<svg width="366" height="277" viewBox="0 0 366 277" fill="none" xmlns="http://www.w3.org/2000/svg">
<path d="M0.739014 41.3484C0.739014 41.3484 11.0104 39.2595 17.239 36.8484C21.8815 35.0513 28.739 31.3484 28.739 31.3484C28.739 31.3484 40.5616 33.8011 48.239 33.8484C56.3039 33.898 60.9253 32.8462 68.739 30.8484C76.0462 28.98 79.9941 27.2235 86.739 23.8484C95.3114 19.5588 98.9768 17.2731 105.739 11.3484C109.478 8.07282 114.739 1.84839 114.739 1.84839C114.739 1.84839 116.282 12.8163 117.239 19.8484C118.647 30.1918 118.57 36.1375 120.739 46.3484C123.114 57.5264 124.691 64.162 128.739 74.8484C131.682 82.6169 133.823 86.632 137.739 93.8484C142.132 101.944 145.127 106.187 150.239 113.848C155.291 121.42 158.027 125.761 163.739 132.848C167.82 137.911 170.246 140.647 174.739 145.348C177.219 147.944 182.739 152.348 182.739 152.348C182.739 152.348 190.147 146.123 194.239 141.348C200.239 134.348 206.32 127.097 213.239 117.348C217.972 110.68 220.268 106.997 224.239 99.8484C229.804 89.8293 232.362 83.7163 236.239 72.8484C239.916 62.5411 241.094 56.5279 243.239 45.8484C245.414 35.0189 246.465 29.1558 247.739 18.3484C248.496 11.9227 249.239 1.84839 249.239 1.84839C249.239 1.84839 251.239 5.84839 256.239 9.84839C260.144 12.9726 262.116 14.5173 266.239 17.3484C272.791 21.848 275.84 23.1998 283.239 26.3484C290.57 29.4681 295.414 31.8452 303.739 33.3484C310.475 34.5647 314.394 33.8107 321.239 33.8484C326.71 33.8785 329.902 32.6624 335.239 33.8484C339.739 34.8484 345.784 36.9348 352.239 38.8484C356.919 40.2358 364.739 42.3484 364.739 42.3484C364.739 42.3484 360.494 52.745 358.239 59.3484C353.446 73.3848 350.97 81.3887 344.739 94.8484C340.005 105.074 337.191 110.781 331.239 120.348C324.308 131.49 320.034 137.61 311.239 147.348C305.223 154.01 301.086 157.002 294.739 163.348C288.392 169.695 284.73 173.164 278.739 179.848C272.815 186.458 269.793 189.23 265.239 196.848C262.999 200.596 261.042 203.111 258.739 207.348C256.069 212.261 254.719 215.119 252.739 220.348C250.507 226.243 249.56 229.685 248.239 235.848C246.142 245.632 245.739 261.348 245.739 261.348C245.739 261.348 238.102 263.102 233.239 264.348C225.574 266.312 221.393 267.843 213.739 269.848C206.546 271.733 202.58 273.17 195.239 274.348C188.659 275.405 184.901 276.034 178.239 275.848C170.121 275.623 165.658 274.152 157.739 272.348C146.779 269.853 140.192 266.375 129.239 263.848C123.044 262.42 115.739 261.348 115.739 261.348C115.739 261.348 116.703 258.726 117.239 256.848C118.239 253.348 118.721 246.801 118.239 240.348C117.974 236.795 117.878 234.827 117.239 231.348C115.777 223.39 113.681 219.171 110.239 211.848C104.849 200.379 100.241 194.675 92.239 184.848C85.3167 176.348 74.739 166.848 67.739 160.348C61.049 154.136 57.9857 149.942 52.239 142.848C45.1091 134.047 41.0812 129.052 35.239 119.348C29.2936 109.473 26.9795 103.356 22.239 92.8484M0.739014 41.3484C0.739014 41.3484 4.17417 48.0121 6.23901 52.3484M0.739014 41.3484L6.23901 52.3484M22.239 92.8484C15.2454 77.3473 13.5502 67.7023 6.23901 52.3484M22.239 92.8484L6.23901 52.3484" stroke="black"/>
</svg>
