<svg width="360" height="132" viewBox="0 0 360 132" fill="none" xmlns="http://www.w3.org/2000/svg">
<path d="M16.1484 13.7532C10.2861 16.5395 0.648438 19.2532 0.648438 19.2532L13.6484 56.2532C13.6484 56.2532 20.333 71.8178 25.6484 81.2532C30.9117 90.5961 40.6484 104.253 40.6484 104.253L60.6484 131.253C60.6484 131.253 55.8928 114.917 55.1484 104.253C54.6045 96.4616 54.6484 93.0637 54.6484 85.2532C54.6484 77.8332 55.1876 72.6588 55.6484 65.2532C56.3482 54.0071 59.6484 36.7532 59.6484 36.7532L47.1484 18.2532L37.1484 0.753174C37.1484 0.753174 24.8598 9.61271 16.1484 13.7532Z" stroke="black"/>
<path d="M339.148 11.7532C346.583 15.2421 359.148 18.2532 359.148 18.2532C359.148 18.2532 355.943 31.1296 353.648 38.2532C350.691 47.434 348.701 52.5005 344.648 61.2532C340.354 70.5301 337.412 75.4895 332.148 84.2532C325.847 94.7455 322.151 100.583 314.648 110.253C308.962 117.582 299.148 128.253 299.148 128.253C299.148 128.253 302.666 113.712 304.148 104.253C305.547 95.3271 305.794 90.787 305.648 81.7532C305.522 73.8829 304.947 68.5166 303.648 60.7532C302.132 51.6873 299.148 38.2532 299.148 38.2532C299.148 38.2532 307.413 26.275 312.148 18.2532C316.102 11.5568 321.648 0.753174 321.648 0.753174C321.648 0.753174 331.841 8.32393 339.148 11.7532Z" stroke="black"/>
</svg>
