<svg width="731" height="1135" viewBox="0 0 731 1135" fill="none" xmlns="http://www.w3.org/2000/svg">
<path d="M347.906 1.93481C335.773 4.46814 326.44 9.40149 319.373 17.0015C307.64 29.5348 303.106 44.0682 304.173 65.8015L304.84 79.1349L299.773 81.2682C293.773 83.9348 293.106 86.2015 295.24 96.4683C297.64 108.602 301.906 116.602 308.173 120.868C314.84 125.268 316.573 131.002 317.906 152.735C318.573 164.468 318.44 168.202 316.973 169.935C316.04 171.135 307.373 175.935 297.906 180.602L280.573 189.135L271.24 184.468C246.706 172.335 212.04 171.268 184.84 181.935C176.306 185.268 175.64 185.402 171.506 183.402C168.973 182.202 162.306 179.935 156.44 178.202C141.64 173.935 113.773 173.935 101.906 178.335C92.4396 181.668 92.1729 181.802 94.7062 178.735C99.5062 173.135 101.373 164.868 100.973 151.135C100.44 130.868 100.973 122.735 103.24 115.002C105.373 107.668 112.306 96.2015 120.04 87.2682L124.573 82.0682L138.573 86.4683C146.173 88.8683 156.573 92.2017 161.506 93.9349C177.24 99.4016 186.44 97.5349 190.306 87.9349C191.506 85.4016 193.24 83.8015 195.773 83.4015C198.573 82.7349 199.906 81.4015 201.106 77.8015C202.573 73.5348 202.306 71.8015 199.106 62.7349C193.64 47.0016 189.64 39.1349 185.906 36.2015C181.24 32.4683 169.906 31.6681 146.173 33.1348C109.773 35.2681 95.9062 41.5349 85.9062 60.2015C79.1062 73.0016 71.6396 83.1349 55.1062 101.802C40.3062 118.468 28.7062 134.202 22.4396 145.802C16.9729 156.068 7.23957 185.535 5.10624 198.468C4.1729 203.935 2.57291 210.735 1.50624 213.535C-1.29376 220.335 -0.0937614 228.468 4.30624 233.002C8.97291 237.802 27.5062 248.735 39.1062 253.535C44.1729 255.535 52.8396 260.202 58.1729 263.935C80.4396 279.002 106.573 289.135 130.84 291.935C143.773 293.402 174.44 293.002 180.44 291.135C182.706 290.468 183.906 292.068 188.573 302.735C191.506 309.535 195.373 319.268 197.106 324.468C201.24 337.268 214.573 364.602 222.04 375.535C225.373 380.468 231.506 388.602 235.773 393.802C244.973 405.135 245.773 406.602 250.04 420.202C253.64 431.802 254.44 445.535 253.106 477.135C252.706 490.468 254.306 500.335 258.973 511.802C259.506 513.002 257.506 516.868 253.906 521.668C246.84 531.268 241.64 545.802 239.773 561.802C236.573 589.135 234.84 595.802 222.573 626.202C210.84 655.535 205.106 682.602 205.106 709.268C205.106 728.068 207.64 743.668 213.906 762.335L218.573 776.468L218.306 801.135C218.04 824.602 218.84 831.668 222.573 841.402C223.773 844.335 223.24 846.468 219.373 854.735C212.973 868.335 209.506 879.135 206.973 893.268C204.04 910.735 204.84 916.335 218.973 972.468C220.706 979.802 223.506 990.335 224.973 995.802C229.64 1012.47 234.44 1038.47 234.44 1046.33C234.44 1053.8 230.706 1073.53 228.04 1079.93C226.173 1084.6 213.906 1093.8 198.573 1102.07C187.106 1108.2 185.773 1109.27 185.773 1112.6C185.773 1115.4 186.84 1117 190.04 1118.73C194.44 1121.4 215.106 1125.8 228.44 1126.87C232.84 1127.27 240.306 1128.87 245.106 1130.6C256.573 1134.6 276.84 1135 283.506 1131.4C289.773 1127.93 292.173 1121.67 290.44 1113.53C288.173 1103.4 285.106 1094.47 280.706 1085.27C277.106 1077.8 276.44 1075 276.04 1063.93C275.773 1056.87 276.173 1047.53 276.84 1043.13L278.04 1035.13L278.973 1041.8C279.506 1045.4 281.373 1053.8 283.24 1060.47C286.706 1073.4 287.24 1080.2 285.106 1085.93C283.506 1089.93 284.573 1092.2 286.44 1089.13C290.173 1083.27 289.506 1074.33 283.64 1050.47C277.373 1025.13 283.506 988.468 299.64 955.135C311.773 930.335 312.44 927.402 312.306 905.802C312.306 889.535 311.773 885.535 308.573 874.468C302.84 854.868 298.306 840.868 296.173 836.735C294.44 833.268 294.573 832.335 297.64 826.068C301.373 818.735 302.173 807.535 299.906 793.802C298.84 787.668 299.506 784.868 308.04 758.468C322.573 713.935 334.04 683.002 341.106 669.402C344.706 662.735 346.973 657.135 346.306 657.135C341.906 657.135 313.373 731.135 300.44 776.468L298.173 784.468L294.44 769.668C292.44 761.535 290.04 748.335 289.106 740.335C287.506 725.802 287.506 725.802 292.306 704.468C296.306 686.468 301.106 659.268 301.106 654.468C301.106 653.802 303.373 653.135 306.173 653.135C313.24 653.135 330.44 648.468 338.04 644.602C345.106 641.002 356.306 629.935 358.573 624.202C359.373 622.068 360.84 617.802 361.906 614.468C363.506 609.002 363.64 610.602 363.24 631.802C362.706 657.668 359.506 676.602 351.64 700.068C346.973 714.068 335.64 737.402 327.106 750.602C319.373 762.602 317.373 766.335 319.906 764.202C321.506 762.868 321.64 765.268 320.973 780.868C319.773 804.735 317.773 812.468 306.173 836.335C300.44 848.202 300.573 847.802 302.573 847.802C304.44 847.802 314.84 825.535 319.24 812.335C322.04 803.668 322.84 798.068 323.506 781.135L324.44 760.468L333.906 744.468C349.773 717.935 360.306 688.868 363.106 664.068C364.173 654.068 365.906 652.468 367.106 660.068C372.04 693.268 379.906 715.802 396.706 744.868L405.64 760.468L406.573 777.135C408.306 804.868 412.306 818.468 424.84 838.335C430.173 846.868 430.173 846.335 423.373 872.202C415.106 903.402 416.84 924.735 429.773 950.602C437.906 966.602 446.973 993.802 449.773 1009.93C452.973 1028.6 452.173 1035.8 443.106 1069.13L439.64 1081.67L443.106 1088.33L446.44 1094.87L443.773 1104.6C439.373 1120.87 440.44 1126.87 448.573 1131.93C452.84 1134.47 455.24 1135 464.306 1134.87C470.306 1134.73 478.44 1133.67 482.44 1132.6C491.506 1129.93 503.506 1127.27 518.973 1124.47C532.44 1122.07 545.506 1116.33 546.173 1112.73C546.84 1109.13 544.706 1107.27 529.906 1098.47C510.573 1086.87 503.64 1080.6 502.44 1073.13C501.906 1069.8 500.44 1062.73 499.24 1057.4C495.24 1039.27 496.84 1027.93 509.506 984.468C522.973 937.935 525.64 925.402 525.64 906.468C525.64 891.935 525.106 888.335 521.906 878.468C519.906 872.202 516.04 862.468 513.373 856.735C509.106 847.535 508.84 845.802 510.173 842.068C513.64 831.802 514.706 820.202 513.773 799.135C512.84 778.335 512.973 777.535 516.306 767.935C518.173 762.468 521.106 751.268 522.573 743.268C526.44 723.135 525.64 691.935 520.573 669.135C516.706 651.668 510.04 629.402 503.773 613.802C496.44 595.535 490.44 577.268 490.44 573.402C490.44 567.268 486.84 546.202 484.573 538.335C483.373 534.202 480.306 527.402 477.773 523.268L473.106 515.535L475.906 505.402C479.24 493.268 479.773 479.535 477.373 463.135C475.373 449.535 476.173 438.468 480.04 423.802C483.64 410.735 486.706 404.602 494.573 396.068C509.773 379.402 526.306 350.468 534.973 325.802C537.773 317.668 541.906 306.735 544.173 301.402L548.306 291.535L557.106 292.735C579.906 295.668 608.973 292.468 629.773 284.868C635.64 282.735 647.373 277.268 655.773 272.868C664.173 268.335 681.64 259.402 694.44 252.868C718.973 240.335 728.04 233.402 730.306 225.668C731.24 222.468 730.44 218.335 726.44 205.668C723.64 197.002 720.306 185.402 719.106 179.935C712.44 151.268 696.973 125.002 669.773 96.4683C662.44 88.735 654.84 78.7349 648.306 68.2015C636.44 49.0016 632.44 44.7347 622.573 41.0015C607.64 35.4015 573.506 31.0015 557.64 32.6014C544.306 33.9348 540.04 38.6016 532.44 59.6682C527.373 73.6682 527.906 78.0682 535.24 82.6016C537.773 84.0682 539.773 86.2015 539.773 87.4015C539.773 90.4681 547.24 97.1349 550.706 97.1349C554.84 97.1349 592.706 86.0682 598.04 83.2682C600.44 82.0682 603.106 81.1349 604.04 81.1349C606.306 81.1349 614.973 93.0016 619.773 102.468C626.173 115.268 627.906 123.135 629.106 145.402C630.04 163.668 630.573 167.135 633.64 173.802C636.44 180.068 636.706 181.268 634.84 180.602C633.64 180.068 627.773 178.468 621.906 176.868C607.773 173.268 586.306 173.935 573.106 178.602C565.106 181.268 557.773 185.002 558.706 185.802C558.973 186.068 564.573 184.335 571.106 182.068C582.04 178.468 584.706 178.068 600.44 177.935C616.04 177.802 618.84 178.202 628.84 181.535C636.573 184.202 643.64 187.935 652.173 193.935C670.04 206.468 674.173 208.202 686.173 207.935C697.506 207.668 704.44 209.535 706.44 213.135C717.906 234.602 654.04 253.802 595.773 246.468C588.04 245.535 581.506 244.468 581.24 244.335C580.973 244.068 583.24 241.402 586.306 238.468C592.973 231.935 597.106 225.535 597.106 221.535C597.106 219.935 594.173 215.535 590.44 211.402L583.906 204.202L597.906 202.468C614.84 200.335 627.24 201.802 644.306 207.668C657.906 212.335 665.64 213.668 671.106 212.068C674.573 211.002 673.906 210.868 667.106 210.868C662.706 210.868 656.44 209.802 653.106 208.468C632.173 200.335 613.64 198.202 592.573 201.268L582.573 202.735L573.506 196.868C568.573 193.535 561.506 189.002 557.906 186.735C549.773 181.535 532.173 175.935 520.173 174.735C500.04 172.735 477.773 176.868 459.24 185.935C453.773 188.735 449.506 190.068 448.573 189.402C447.773 188.735 444.173 187.135 440.44 185.802C436.84 184.468 428.306 180.735 421.64 177.668C409.64 172.202 409.373 171.935 408.44 166.735C407.506 161.002 409.64 143.402 412.573 132.468C413.506 128.735 414.84 123.668 415.506 121.135C416.306 118.602 417.506 110.202 418.44 102.468C420.706 81.6682 422.173 79.4016 428.573 85.9349C431.506 88.735 431.906 90.0682 431.24 94.2015C429.373 104.202 426.306 111.402 421.64 116.202C418.173 119.802 417.373 121.135 418.973 121.135C424.44 121.135 432.306 108.202 433.773 96.4683C434.973 87.4016 433.106 82.8682 427.506 81.4015L423.106 80.3348L422.306 63.0016C421.24 41.5349 419.106 31.9348 413.506 25.0015C401.773 10.3348 393.64 5.26807 377.373 1.66809C366.44 -0.598633 358.973 -0.598511 347.906 1.93481ZM381.106 6.06812C403.373 12.2014 414.973 25.8015 418.573 49.6682C420.44 62.3348 418.44 91.0015 414.306 109.802C412.973 116.335 410.84 126.468 409.64 132.068C408.44 137.802 406.973 142.468 406.44 142.468C405.24 142.468 402.44 136.335 402.44 133.802C402.44 132.735 401.906 131.668 401.24 131.135C399.64 130.202 402.173 139.402 404.44 143.002C405.64 144.868 406.173 149.535 406.04 157.402C405.906 163.935 405.64 169.135 405.64 169.135C405.506 169.135 402.973 165.402 400.04 160.735C395.106 153.268 393.106 147.535 391.24 135.135C390.973 132.868 390.84 135.402 390.973 140.602C391.506 151.802 395.773 160.868 404.973 170.068C411.906 177.135 418.306 180.468 442.973 190.068C454.973 194.735 464.84 199.668 470.44 203.535C479.906 210.335 490.44 219.535 490.44 221.135C490.44 222.735 474.706 232.602 465.106 237.002C456.84 240.868 437.773 246.468 432.973 246.468C431.24 246.468 430.573 248.468 429.906 257.402C427.24 287.935 420.706 315.268 411.24 335.268C403.506 351.402 397.106 361.402 384.573 377.002C374.84 389.002 373.906 390.468 375.506 390.468C376.973 390.468 393.506 369.935 401.106 358.602C410.573 344.468 419.106 324.602 423.64 306.468C427.773 289.668 431.773 266.735 431.773 259.002C431.773 253.135 432.973 252.735 437.24 257.135C445.506 265.268 472.573 279.402 482.573 280.735C488.706 281.668 488.84 282.202 484.44 293.802C476.973 313.802 461.773 333.935 450.573 339.135L445.24 341.402L436.44 337.268C431.506 335.002 425.64 331.668 423.506 329.802C421.24 327.935 419.106 326.735 418.706 327.135C417.506 328.335 424.973 334.068 433.373 338.468C444.706 344.335 454.573 346.602 469.906 346.602C484.973 346.735 498.173 343.135 511.773 335.402C519.106 331.268 535.773 315.268 535.773 312.602C535.64 311.802 533.106 313.935 530.04 317.268C518.973 329.268 507.64 336.468 491.773 341.935C483.773 344.602 462.173 345.402 452.573 343.402L447.24 342.202L452.84 339.802C459.64 336.735 468.84 327.668 475.106 317.802C479.906 310.335 487.906 292.868 489.506 286.335C490.306 283.002 490.706 282.868 503.373 282.068C515.106 281.402 517.24 281.668 528.306 285.268C534.973 287.402 541.106 289.135 542.04 289.135C545.64 289.135 545.24 293.268 540.573 301.935C538.04 306.868 536.173 311.402 536.573 311.935C537.64 313.668 526.706 341.002 520.173 353.135C516.84 359.402 511.64 367.935 508.573 372.335C505.64 376.602 501.64 382.335 499.906 384.868C498.173 387.535 487.373 399.002 475.906 410.468C453.373 432.735 445.106 443.135 437.906 458.602C431.773 471.402 429.24 481.668 428.173 496.068C427.373 507.268 427.24 507.802 424.306 507.802C422.573 507.802 412.84 510.468 402.84 513.668C368.573 524.602 361.64 524.602 325.373 513.668C314.573 510.468 304.306 507.802 302.573 507.802C300.173 507.802 299.64 507.268 300.44 505.402C302.706 500.468 302.706 485.535 300.573 477.002C294.84 454.868 284.173 439.135 254.973 409.802C234.44 389.002 225.773 377.668 213.906 355.535C210.44 349.135 206.173 339.935 204.306 335.135C202.573 330.202 199.906 323.935 198.44 321.135C196.973 318.202 195.773 315.535 195.773 315.002C195.773 314.602 199.64 318.335 204.44 323.402C213.64 333.402 224.84 340.335 238.44 344.468C249.906 347.802 269.506 347.268 281.906 343.135C294.84 338.868 304.173 334.068 308.04 329.802L311.24 326.468L317.64 339.135C321.24 346.202 328.84 358.468 334.573 366.335L344.973 380.735L343.64 397.802C342.173 418.335 339.64 429.002 334.306 437.268C329.24 445.268 317.773 456.068 310.573 459.802C307.373 461.402 305.106 463.002 305.506 463.268C306.706 464.602 318.973 457.535 325.24 451.935C338.44 440.335 344.173 425.402 345.773 397.935L346.706 383.535L351.64 388.335C359.106 395.668 359.373 394.068 352.04 385.402C341.24 372.868 326.973 351.935 319.906 338.468C308.973 317.402 302.44 291.668 300.306 261.402C299.773 254.735 298.706 248.602 297.906 248.068C297.106 247.402 291.373 245.535 285.106 243.935C271.373 240.468 262.973 236.735 250.973 228.735C245.906 225.535 239.906 221.935 237.64 220.735C233.106 218.335 212.84 213.002 211.906 213.802C211.24 214.468 212.306 214.868 224.84 218.335C231.506 220.068 238.573 223.535 247.106 229.002C261.106 237.935 270.84 242.468 285.106 246.335C290.44 247.802 295.106 249.268 295.373 249.535C295.64 249.935 292.44 253.135 288.44 257.002C279.773 264.868 260.573 274.735 247.906 277.935C234.306 281.268 216.573 280.068 202.84 274.602C177.906 264.868 135.773 231.268 135.773 221.268C135.773 218.602 144.573 209.935 155.106 202.068C176.173 186.335 201.506 177.268 224.706 177.135C240.306 177.135 262.173 182.068 271.64 187.935L276.04 190.602L266.973 196.735L257.906 202.735L243.24 197.802C229.64 193.135 227.24 192.735 213.773 192.735C201.373 192.735 197.506 193.268 188.706 196.202C174.573 201.135 157.906 211.935 154.306 218.602C152.173 222.602 156.973 229.135 169.64 239.535C184.84 252.335 192.573 257.535 206.173 264.335C220.84 271.668 231.373 274.468 243.24 274.335L252.44 274.068L241.773 273.135C227.373 271.802 221.24 269.935 207.106 262.868C185.64 252.068 155.773 228.068 155.773 221.668C155.773 218.335 163.373 211.002 172.44 205.668C183.373 199.402 195.24 195.802 208.306 194.868C221.773 194.068 229.906 195.268 244.84 200.735L254.573 204.202L247.506 210.602C239.24 218.068 240.84 219.402 249.373 212.202C258.973 204.202 275.773 193.802 287.773 188.602C307.506 179.935 320.706 172.202 325.64 165.935C332.306 157.935 335.906 148.868 336.573 139.268L337.106 131.135L335.106 140.202C333.106 149.668 329.373 158.468 324.573 164.335L321.773 167.935V157.535C321.773 151.802 322.306 146.335 322.973 145.268C323.773 143.935 323.64 143.668 322.706 144.335C321.773 144.868 321.106 144.868 321.106 144.202C320.973 143.668 320.44 140.735 319.906 137.802C319.24 134.868 316.173 120.202 313.106 105.135C308.306 82.0682 307.373 75.2682 307.373 61.8015C307.24 43.9348 309.24 36.4683 317.506 24.2015C324.84 13.2682 339.106 5.80151 355.773 3.93481C365.773 2.86816 370.84 3.26807 381.106 6.06812ZM182.573 37.1348C187.773 39.9348 198.44 64.4681 198.44 73.8015C198.44 79.1349 195.506 82.4683 190.973 82.4683C188.706 82.4683 187.773 83.2682 187.773 84.8682C187.773 87.5348 183.24 84.0682 169.506 71.0016C165.64 67.2683 162.44 65.0016 162.44 65.9349C162.44 66.8683 166.173 70.8682 170.706 74.7349C186.84 88.6016 187.106 88.8682 184.44 91.8015C183.106 93.2682 181.106 94.7349 179.773 95.1349C177.106 95.9349 137.106 83.6682 126.84 78.8682C122.84 77.0015 118.173 73.4015 115.64 70.3348C113.373 67.4015 111.106 65.2682 110.706 65.6682C109.773 66.7349 114.173 73.1348 118.973 77.4015L122.973 81.1349L116.84 87.4015C101.373 103.135 96.8396 117.135 97.3729 146.468L97.7729 165.802L93.6396 173.802C89.1062 182.468 80.0396 190.335 61.9062 201.135C52.8396 206.602 52.4396 206.735 42.3062 206.202C36.5729 206.068 31.5062 205.268 30.8396 204.735C30.3062 204.068 29.7729 198.335 29.9062 192.068C30.0396 182.868 30.8396 177.935 34.1729 168.202C38.4396 155.668 45.7729 139.802 50.8396 132.602C55.5062 125.802 66.7062 114.468 72.1729 110.868C75.1062 109.135 76.9729 107.268 76.5729 106.868C75.1062 105.401 66.3062 112.335 57.2396 121.935C47.1062 132.735 38.8396 147.802 32.4396 167.135C28.4396 178.735 26.7062 196.868 28.8396 202.468C29.9062 205.268 29.3729 206.335 25.5062 209.935C23.1062 212.202 21.1062 215.402 21.1062 217.002C21.1062 218.602 23.6396 222.602 26.7062 225.935C34.0396 233.935 49.2396 241.135 69.7729 246.468C85.1062 250.468 86.7063 250.735 106.44 250.202C118.973 249.802 131.906 248.602 139.24 247.135L151.24 244.735L161.906 252.735C167.64 257.135 174.973 262.335 178.173 264.335C187.24 269.935 204.706 278.468 207.24 278.468C216.306 278.468 187.906 287.135 171.64 289.268C158.173 291.135 132.173 290.202 119.106 287.268C106.84 284.735 92.3062 279.402 79.1062 272.735C68.1729 267.268 53.1062 257.535 53.1062 255.802C53.1062 255.268 56.8396 254.735 61.5062 254.735C66.0396 254.602 72.4396 253.668 75.7729 252.602L81.7729 250.602L76.4396 251.535C73.5062 252.068 64.8396 252.468 57.1062 252.468C43.5062 252.468 42.8396 252.335 31.7729 247.002C25.5062 243.935 16.7062 238.735 12.1729 235.402C2.43957 228.202 0.839572 223.668 4.30624 214.202C5.37291 211.002 7.90624 201.002 9.90624 191.802C16.8396 158.868 29.6396 134.735 54.7062 106.735C70.4396 89.0016 82.4396 73.4015 88.4396 62.3348C91.3729 57.1349 95.5062 51.1349 97.6396 49.0016C101.773 44.8683 111.906 40.6016 122.706 38.3348C139.106 34.7349 176.706 34.0681 182.573 37.1348ZM594.173 37.2682C609.906 39.1349 625.506 44.3348 631.506 49.8015C634.173 52.2015 639.24 59.0015 642.84 64.8682C651.373 79.4015 658.573 88.8682 671.906 103.268C697.906 131.402 710.04 153.935 718.84 190.602C720.706 198.202 723.506 207.402 724.973 210.868C729.506 221.268 728.84 225.935 722.04 232.468C716.04 238.202 697.373 249.135 687.773 252.468C684.84 253.535 680.44 255.802 678.04 257.668C675.773 259.402 664.973 265.402 654.306 270.735C627.64 284.335 600.306 291.802 577.773 291.802C566.84 291.668 544.706 287.802 530.04 283.402L519.64 280.202L528.84 276.602C540.173 272.202 562.173 259.268 571.773 251.535L578.84 245.802L592.973 248.202C604.173 250.202 611.373 250.602 627.906 250.068C646.173 249.535 649.773 249.668 656.573 251.935C660.973 253.402 668.04 254.868 672.44 255.135C679.906 255.668 680.04 255.668 675.106 254.468C672.173 253.668 666.44 252.335 662.44 251.535C653.773 249.802 649.506 247.935 653.906 247.802C660.306 247.802 683.773 240.868 692.706 236.468C703.906 231.002 709.106 225.135 709.373 217.935C709.64 208.868 700.706 204.068 686.173 205.668C676.306 206.868 671.24 204.735 653.906 191.802C642.04 183.002 640.44 181.268 636.706 173.402C632.84 165.135 632.573 163.668 632.04 144.202L631.373 123.535L634.573 124.068C637.373 124.468 637.906 125.535 639.906 137.802C643.906 162.868 649.106 175.535 659.373 186.602C663.24 190.735 667.506 193.668 671.373 195.002C679.906 197.935 680.173 196.602 671.906 193.135C656.706 186.468 647.506 169.668 641.24 136.735L638.84 123.935L643.24 122.468C648.44 120.735 650.44 117.935 649.373 113.935C648.306 109.668 621.373 76.4681 620.04 77.8015C619.64 78.0682 622.04 81.5348 625.373 85.4015C644.306 107.668 647.906 113.002 646.84 117.268C646.04 120.068 637.24 123.268 633.773 121.935C632.573 121.535 628.973 115.401 625.64 108.335C622.44 101.268 617.106 91.9348 613.906 87.8015L608.04 80.0682L611.24 77.0016C615.106 73.4016 620.306 65.2682 619.506 64.3348C619.106 64.0681 616.973 66.2015 614.573 69.1349C612.173 72.2015 606.84 76.2015 602.44 78.4683C591.906 83.8016 553.773 94.8683 549.64 93.9349C546.173 93.0016 540.973 86.335 543.106 85.5349C550.04 83.1349 561.106 75.2682 564.84 70.0682C567.373 66.6016 568.84 63.8015 568.173 63.8015C567.64 63.9348 565.506 66.2015 563.506 69.1349C559.506 75.0016 547.64 82.4683 542.306 82.4683C540.306 82.4683 537.373 80.8683 535.106 78.6016C530.44 73.6682 530.84 70.0681 537.64 54.3348C543.906 39.9348 546.173 37.0015 552.573 35.6681C558.306 34.6014 576.973 35.2682 594.173 37.2682ZM305.506 83.4015C306.306 84.7349 313.106 116.868 313.106 119.402C313.106 122.335 305.506 116.468 302.973 111.535C299.773 105.402 297.106 95.6682 297.106 90.0682C297.106 86.0682 297.773 84.7349 300.173 83.8015C303.906 82.3348 304.84 82.2015 305.506 83.4015ZM151.906 180.335C158.84 182.068 166.573 184.335 169.106 185.402L173.773 187.402L169.106 189.802C166.573 191.135 160.84 194.602 156.573 197.535L148.706 202.868L137.906 201.268C119.906 198.735 103.506 199.402 88.0396 203.135C80.4396 205.002 72.3062 206.468 69.7729 206.468C67.2396 206.468 64.8396 207.002 64.4396 207.802C63.1062 210.068 70.3062 209.268 84.1729 205.802C91.2396 204.068 101.24 202.202 106.44 201.668C116.04 200.735 146.44 203.402 146.44 205.135C146.44 205.668 145.106 207.002 143.373 208.202C141.773 209.268 138.706 212.602 136.573 215.668C133.106 220.602 132.973 221.402 134.44 225.135C135.373 227.402 138.973 232.202 142.44 235.935C145.906 239.668 148.04 242.868 147.24 243.135C142.04 245.002 121.506 247.935 109.373 248.602C93.2396 249.535 77.5062 247.268 59.2396 241.535C30.1729 232.335 15.7729 218.068 28.1729 210.468C31.6396 208.202 34.3062 207.802 43.7729 208.068L55.1062 208.468L70.9729 198.068C89.9062 185.535 97.3729 182.068 109.773 179.402C123.906 176.335 137.506 176.602 151.906 180.335ZM538.973 181.535C560.173 188.468 594.44 213.268 594.44 221.535C594.44 228.068 580.173 243.135 562.04 255.935C550.706 263.935 528.04 275.268 518.44 277.802C509.64 280.202 492.04 280.335 482.173 278.335C470.04 275.802 448.84 264.468 436.573 254.068C432.306 250.335 432.84 247.802 438.173 247.802C444.84 247.668 467.106 239.135 478.173 232.468C492.706 223.668 497.64 221.135 507.106 217.535C511.506 215.935 513.906 214.602 512.44 214.602C510.973 214.602 506.173 215.935 501.906 217.802L494.04 221.002L488.573 215.268C485.506 212.068 481.373 208.468 479.373 207.135L475.64 204.735L486.973 201.002C510.973 193.135 525.64 192.735 543.906 199.268C558.706 204.602 575.773 216.202 575.773 220.868C575.773 223.535 560.706 239.002 550.44 246.735C540.04 254.735 518.173 265.535 506.706 268.468C501.773 269.668 492.44 270.602 484.04 270.602C472.973 270.735 470.706 271.002 473.773 272.068C478.973 273.668 498.173 272.468 508.44 269.802C518.04 267.268 535.773 259.002 545.906 252.335C555.373 246.068 574.04 228.602 576.573 223.402C578.573 219.802 578.44 219.402 575.506 216.202C570.04 210.335 554.706 201.002 544.173 197.268C525.106 190.335 510.44 190.602 486.973 198.602L474.84 202.735L465.24 197.002L455.64 191.268L463.24 187.402C467.506 185.268 476.306 182.068 482.973 180.335C499.906 175.802 523.506 176.335 538.973 181.535ZM300.573 283.402C301.64 291.535 304.173 304.068 306.306 311.402L310.306 324.468L307.373 327.535C303.24 331.935 284.306 340.735 273.506 343.268C248.973 349.002 218.573 338.735 202.84 319.268C199.773 315.402 194.44 307.135 191.106 300.868L185.106 289.535L193.773 287.135C198.573 285.935 204.706 283.668 207.373 282.335C212.173 279.935 216.44 280.202 212.973 282.735C211.64 283.668 211.906 283.802 213.773 283.135C217.106 282.068 215.906 282.068 227.906 282.335L238.04 282.468L242.973 295.802C249.106 311.935 258.84 328.068 266.973 335.535C275.64 343.535 276.973 342.468 268.573 334.068C260.04 325.668 251.64 311.402 244.973 294.602L240.04 281.935L249.506 279.535C254.706 278.202 262.84 275.268 267.64 273.135C278.04 268.202 292.44 258.068 294.706 254.068C296.173 251.402 296.44 251.935 297.506 259.802C298.04 264.602 299.373 275.135 300.573 283.402ZM271.773 430.202C281.506 441.402 289.24 453.668 294.573 466.202C298.04 474.602 298.973 478.735 299.506 488.602C300.306 505.535 300.04 505.935 285.506 506.868C278.973 507.268 271.106 508.602 267.906 509.935C261.106 512.602 260.84 512.468 258.306 500.602C256.44 492.468 256.173 483.002 256.973 451.802C257.506 435.268 256.04 427.135 249.64 409.802C248.44 406.468 261.906 418.868 271.773 430.202ZM481.506 410.735C480.706 411.668 478.706 417.002 477.106 422.468C473.506 433.802 472.973 448.068 474.973 475.268C475.906 488.602 475.773 493.002 473.773 501.935C472.573 507.668 471.106 512.868 470.573 513.402C470.173 513.935 465.906 512.868 461.106 511.002C455.24 508.602 448.973 507.268 441.506 506.735L430.44 506.068V497.268C430.44 478.202 439.64 455.135 454.84 436.068C463.106 425.668 481.24 407.402 482.173 408.468C482.573 408.735 482.173 409.802 481.506 410.735ZM307.64 511.135C312.44 512.335 322.973 515.268 331.24 517.802C360.973 526.735 372.573 526.468 404.306 515.668C429.64 507.002 450.04 507.002 465.906 515.668C477.506 521.935 484.706 540.068 487.106 569.802C487.773 578.468 489.773 585.268 497.773 606.468C512.706 646.602 518.44 667.002 520.973 690.735C523.773 716.068 522.44 735.002 515.906 759.135L513.373 768.468L513.24 761.802C512.973 747.935 508.973 722.468 504.573 706.335C499.24 687.002 488.04 660.202 478.706 644.602C472.44 634.068 472.306 633.668 473.906 628.468C474.84 625.535 475.64 618.335 475.64 612.602C475.773 606.735 476.44 597.002 477.373 591.002C480.44 569.802 474.84 547.668 463.106 534.735C456.973 527.935 447.106 523.002 435.773 521.135C427.373 519.802 412.04 519.268 413.24 520.335C413.506 520.602 420.04 521.535 427.64 522.335C455.373 525.268 468.04 535.802 473.906 560.735C476.173 570.068 476.04 573.002 473.373 612.468C471.773 634.735 466.973 642.335 450.44 648.602C442.306 651.668 420.706 651.668 409.24 648.602C398.306 645.802 386.04 639.268 381.106 633.535C369.773 620.735 366.44 606.202 366.44 570.335C366.44 555.935 365.906 545.135 365.24 545.135C364.573 545.135 363.773 558.335 363.506 575.402C362.973 602.335 362.573 606.868 360.04 614.735C352.573 637.135 334.306 648.735 304.44 650.068C289.64 650.735 275.773 648.335 268.306 643.668C265.64 642.068 262.573 638.202 260.306 633.802C257.373 627.535 256.573 623.668 255.373 606.202C253.24 577.135 253.506 568.602 256.973 558.335C262.706 541.002 274.44 528.868 289.773 524.468C293.64 523.268 303.64 521.935 311.906 521.268L327.106 520.202L313.24 519.935C279.906 519.535 262.44 531.802 253.773 561.802C251.773 568.468 251.506 573.002 252.306 593.002C252.84 605.935 254.173 620.868 255.24 626.068L257.24 635.802L251.24 646.202C232.306 678.868 220.84 715.802 218.973 750.468C218.44 759.268 217.773 766.335 217.506 766.068C217.24 765.802 215.24 758.468 212.973 749.668C208.44 731.668 206.973 708.202 209.24 687.802C211.24 670.602 218.706 644.068 228.44 619.802C237.906 595.935 240.44 586.468 241.773 569.268C243.373 548.735 248.44 533.668 258.173 520.868C262.706 514.868 267.773 511.935 276.44 510.068C282.706 508.735 299.773 509.268 307.64 511.135ZM374.306 628.202C382.84 642.068 401.773 651.535 424.44 653.402C428.306 653.802 428.44 654.202 429.64 661.802C430.706 669.668 436.573 698.735 440.44 715.802C444.306 733.268 442.706 753.268 434.44 787.135C430.84 801.935 430.306 806.068 430.973 815.535C432.04 831.668 433.906 832.735 433.373 816.735C432.973 804.868 433.506 800.735 437.506 783.802C442.973 761.402 445.506 742.602 444.44 732.735L443.773 725.802L445.64 731.135C446.706 734.068 449.106 741.535 451.106 747.802C455.506 761.402 463.64 777.935 475.24 796.735L483.906 810.735L479.106 823.268C474.173 836.468 465.64 879.802 468.44 876.868C468.973 876.468 470.706 867.802 472.573 857.668C474.306 847.402 477.64 833.668 479.906 827.135C484.04 815.402 486.44 810.602 486.44 814.335C486.44 815.402 491.106 823.802 496.706 833.002C509.24 853.535 514.706 865.135 519.24 881.002C522.306 891.935 522.706 894.868 522.173 910.202C521.506 929.668 517.773 947.135 505.506 987.802C501.506 1001.4 497.373 1017 496.306 1022.47C493.64 1037.53 493.906 1053 497.106 1061.4C501.64 1073.4 499.906 1080.6 490.706 1088.73C486.706 1092.2 486.306 1092.87 488.706 1092.33C492.306 1091.4 499.773 1084.07 499.773 1081.53C499.773 1079.27 501.906 1079.27 502.84 1081.67C503.906 1084.33 521.64 1097.4 529.106 1101.13C532.44 1102.73 537.106 1105.53 539.506 1107.4C544.306 1111 543.906 1113 537.24 1116.33C532.973 1118.6 513.64 1123.27 504.04 1124.33C500.04 1124.87 492.173 1126.73 486.306 1128.6C477.506 1131.53 473.906 1131.93 463.64 1131.53C451.64 1131.13 451.373 1131.13 447.506 1126.47C444.04 1122.33 443.64 1121 444.173 1115.8C444.573 1112.47 447.773 1101.4 451.106 1091.13L457.373 1072.47L456.706 1049.8C455.773 1020.73 452.44 1001.67 444.04 977.802C440.44 967.535 437.106 958.202 436.573 956.868C435.773 955.268 436.573 954.468 439.906 953.802C446.84 952.202 455.24 942.735 458.173 933.002L460.706 924.602L462.306 929.402C464.44 935.668 472.173 944.602 478.573 947.802C484.173 950.735 494.306 951.268 498.706 949.002C500.173 948.202 501.64 947.802 501.906 948.068C503.106 949.402 492.706 978.068 485.106 994.602C475.373 1015.53 471.24 1029.8 468.573 1050.47C466.573 1066.87 467.24 1076.07 470.84 1083.8C473.373 1089.4 476.84 1093.93 477.773 1092.87C478.173 1092.47 477.373 1090.73 475.906 1089C472.706 1085 469.106 1074.2 469.106 1069C469.106 1059.53 473.506 1031.8 476.706 1021.93C478.573 1015.93 483.373 1003.93 487.373 995.135C491.506 986.335 497.373 971.135 500.573 961.268C503.773 951.402 507.24 942.335 508.44 941.135C511.373 937.935 515.773 924.735 515.64 919.535C515.64 916.335 514.973 917.802 513.24 924.735C509.64 939.268 502.44 947.268 492.04 948.735C481.24 950.202 467.106 938.068 462.573 923.402L460.173 915.402L459.24 922.068C458.173 930.202 450.973 944.735 446.44 948.068C444.573 949.402 441.106 951.002 438.706 951.668C434.44 952.868 434.306 952.868 431.24 946.735C422.84 930.202 419.24 907.268 422.306 889.668C423.906 880.735 435.373 838.735 438.306 831.402C439.106 829.402 440.04 827.802 440.44 827.802C440.84 827.802 443.24 832.068 445.773 837.268C449.773 845.535 452.173 854.202 456.973 877.135C458.173 882.868 458.173 883.002 458.306 878.468C458.573 869.402 453.106 848.602 447.506 836.735L441.906 825.002L444.84 822.068C447.506 819.402 449.24 819.135 461.773 819.135C480.306 819.002 480.84 817.668 462.573 817.402C448.04 817.002 447.906 817.135 443.24 821.135C440.306 823.802 437.373 828.468 434.973 834.602C432.973 839.668 430.84 843.402 430.306 842.868C429.773 842.335 426.04 835.135 422.04 827.135C412.973 808.735 410.306 798.335 409.64 777.402L409.24 761.135L401.106 746.735C383.24 715.268 376.973 699.002 371.106 668.468C368.44 654.868 367.373 644.202 366.973 629.135L366.44 608.468L368.84 616.068C370.306 620.202 372.706 625.668 374.306 628.202ZM478.04 647.402C493.64 675.135 504.573 707.402 508.44 737.135C510.973 756.468 511.24 827.002 508.706 837.135L506.973 844.335L502.84 838.468C500.573 835.135 495.373 826.468 491.106 819.135C486.973 811.802 479.64 799.535 474.973 791.802C470.44 784.068 463.906 772.068 460.573 765.135C449.906 742.468 435.24 689.268 432.44 662.868C431.506 654.868 431.64 654.602 434.706 654.068C436.306 653.668 441.24 652.735 445.373 652.068C454.306 650.335 464.173 645.002 468.173 639.668C469.64 637.535 471.106 635.802 471.24 635.802C471.373 635.802 474.44 641.002 478.04 647.402ZM275.906 649.668C279.64 650.868 286.44 652.202 290.973 652.602L299.24 653.402L296.306 671.668C291.24 702.735 286.306 722.335 277.906 745.402C271.373 763.268 267.906 770.602 258.173 787.135C253.373 795.135 247.24 806.335 244.44 811.802C241.64 817.268 236.44 826.468 232.706 832.202L226.04 842.735L224.173 837.535C221.506 830.468 219.506 767.268 221.24 746.468C224.173 713.268 234.04 682.202 252.306 648.735L258.573 637.268L263.773 642.468C267.106 645.802 271.373 648.335 275.906 649.668ZM293.106 773.935C298.973 795.668 300.173 819.535 295.773 826.468C294.84 828.068 294.173 827.802 291.906 824.868C286.573 818.202 274.173 815.268 263.773 818.335C261.773 819.002 264.573 819.402 271.106 819.268C280.706 819.135 282.306 819.535 286.04 822.468C290.706 826.202 291.506 829.268 288.306 831.935C283.24 836.068 278.44 850.335 275.106 870.868C272.84 885.002 274.973 882.202 277.64 867.535C281.773 845.802 288.44 829.268 292.04 832.868C292.706 833.535 295.373 840.868 297.906 849.268C314.573 903.002 314.44 917.802 297.64 952.068C292.84 961.668 287.506 974.468 285.773 980.602C282.973 990.335 278.04 1018.2 274.173 1045.8C272.306 1059.8 273.906 1074.73 278.706 1086.47C284.173 1100.07 287.773 1112.87 287.773 1118.73C287.773 1125.27 282.306 1129.8 273.106 1131.13C266.04 1132.07 254.706 1131 249.106 1128.87C242.306 1126.2 232.173 1123.93 223.106 1123.13C205.106 1121.4 187.773 1116.6 187.773 1113.27C187.773 1111.4 192.173 1108.2 200.44 1104.07C210.573 1099 223.506 1090.47 227.373 1086.33C228.973 1084.6 230.44 1081.67 230.706 1079.8L231.24 1076.47L232.973 1080.47C239.773 1096.87 252.573 1098.6 259.64 1084.07C263.506 1076.07 264.44 1064.6 262.573 1047.8C260.573 1030.73 256.306 1015.93 248.306 998.202C242.04 984.468 228.84 946.468 230.306 946.468C230.706 946.602 232.573 947.402 234.44 948.468C238.706 950.868 245.373 951.002 250.973 948.602C257.24 945.935 266.44 937.268 268.706 931.935L270.706 927.268L273.106 934.202C274.44 937.935 277.24 943.402 279.373 946.335C283.106 951.668 290.973 957.135 292.573 955.535C292.973 955.002 291.506 953.668 289.24 952.468C281.773 948.735 275.906 938.202 272.44 923.135L271.506 919.135L269.906 923.935C264.706 939.135 249.24 950.868 238.706 947.935C227.506 944.602 223.906 940.602 219.64 925.802C218.04 920.468 217.24 919.002 217.24 921.402C217.106 925.935 221.773 938.468 225.106 942.735C226.44 944.602 229.24 951.668 231.24 958.602C235.506 973.535 238.973 982.868 246.44 999.802C249.506 1006.73 253.373 1017 255.106 1022.47C261.906 1045 262.973 1073.93 257.373 1084.6C252.84 1093.4 246.306 1094.33 240.04 1087.27C233.773 1080.07 232.573 1074.73 235.24 1065.67C236.973 1059.53 237.24 1054.6 236.706 1042.6C236.04 1028.73 234.573 1021.8 223.106 976.468C208.04 916.868 206.706 906.602 211.64 886.068C215.24 870.735 223.24 851.802 231.24 839.535C234.706 834.202 241.773 821.668 247.106 811.802C252.44 801.935 259.906 788.335 263.773 781.802C271.373 768.868 275.906 758.868 281.906 741.402L285.773 730.335L287.373 744.202C288.173 751.802 290.84 765.135 293.106 773.935ZM454.173 1061.13C453.64 1076.33 453.106 1080.2 450.44 1086.2L447.373 1093.27L445.506 1089.13C442.84 1082.73 443.373 1076.47 447.773 1062.73C449.906 1055.93 452.173 1046.6 452.706 1042.07C454.173 1030.2 454.84 1038.47 454.173 1061.13Z" fill="black"/>
<path d="M336.44 115.002L332.44 117.002L337.773 116.068C340.707 115.535 346.307 115.135 350.307 115.268C362.04 115.402 362.707 118.068 359.107 147.402C356.44 169.002 352.573 185.002 346.973 196.868L342.44 206.735L349.107 217.802C352.707 223.935 356.44 231.535 357.373 234.735C358.707 239.135 359.107 257.668 359.107 315.668C359.107 357.268 359.64 387.668 360.173 383.668C360.707 379.668 360.973 344.602 360.84 305.802C360.44 226.868 361.24 233.668 350.173 215.402L344.707 206.468L348.84 198.068C355.907 183.668 362.04 153.802 362.707 130.068C363.24 115.535 362.173 114.335 349.507 113.668C343.24 113.268 339.24 113.668 336.44 115.002Z" fill="black"/>
<path d="M372.173 115.135C369.24 117.268 369.107 118.068 369.107 139.001C369.107 165.001 371.24 178.468 378.04 194.201L382.707 205.268L376.04 216.868C372.307 223.268 368.707 230.868 367.907 233.801C366.973 237.268 366.44 261.001 366.44 302.868C366.44 355.668 366.84 368.335 368.573 376.868C369.64 382.468 371.24 387.668 371.907 388.335C373.507 390.068 373.507 390.201 371.107 379.135C369.64 371.668 369.107 356.201 369.107 302.735L368.973 235.668L372.973 227.401C375.24 222.868 378.84 215.801 380.973 211.801L384.973 204.468L381.107 196.335C373.907 181.001 370.44 161.535 370.44 135.135C370.44 118.868 370.44 118.468 373.773 116.335C377.107 114.201 382.707 114.201 392.707 116.602C395.507 117.268 396.04 117.135 394.973 115.935C394.173 115.001 389.373 114.068 384.307 113.668C377.107 113.135 374.44 113.401 372.173 115.135Z" fill="black"/>
<path d="M325.24 131.935C324.44 134.335 323.773 137.802 323.906 139.668C323.906 141.935 324.706 140.468 325.906 135.935C328.04 127.935 327.64 125.268 325.24 131.935Z" fill="black"/>
<path d="M383.506 385.935C382.04 388.335 385.106 414.602 387.906 424.468C391.64 436.735 393.506 440.335 400.84 448.068C406.306 453.935 420.573 463.535 421.773 462.202C422.173 461.935 418.44 459.002 413.506 455.802C396.306 444.335 388.84 429.135 385.906 399.935C385.106 391.402 383.906 385.135 383.506 385.935Z" fill="black"/>
<path d="M363.773 455.402C363.773 491.268 364.173 510.468 365.106 510.468C366.84 510.468 366.84 405.268 365.106 402.468C364.306 401.135 363.773 419.402 363.773 455.402Z" fill="black"/>
<path d="M174.44 54.2015C174.44 55.1348 173.24 55.8015 171.773 55.8015C170.306 55.8015 169.106 56.3348 169.106 57.1348C169.106 57.8015 167.373 58.0681 165.106 57.5348C162.573 57.1348 161.106 57.4015 161.106 58.2015C161.106 59.0015 162.04 59.4015 163.106 59.0015C164.173 58.4681 166.04 58.8681 166.973 59.6681C168.306 60.7348 169.106 60.8681 169.773 59.8015C170.306 59.0015 172.84 60.6015 176.173 63.6681C183.106 70.3348 184.706 69.5348 178.04 62.7348C174.173 58.8681 173.506 57.2681 174.706 56.0681C175.506 55.2681 175.906 54.0681 175.373 53.5348C174.84 53.1348 174.44 53.4015 174.44 54.2015Z" fill="black"/>
<path d="M168.173 64.7349C169.373 65.0016 171.506 65.0016 172.84 64.7349C174.04 64.3349 172.973 64.0683 170.44 64.0683C167.906 64.0683 166.84 64.3349 168.173 64.7349Z" fill="black"/>
<path d="M95.1063 89.4015C91.773 93.1348 88.0396 97.9348 87.1063 99.8015C86.0396 101.801 83.6396 104.468 81.773 105.668C77.6396 108.468 78.173 110.201 82.3063 107.535C84.8396 106.068 88.7063 101.268 100.973 84.8681C104.573 80.0681 101.24 82.6015 95.1063 89.4015Z" fill="black"/>
<path d="M78.573 119.002C80.0397 120.468 92.973 124.868 93.6397 124.202C94.0397 123.668 91.373 122.202 87.5064 120.868C80.8397 118.602 77.373 117.802 78.573 119.002Z" fill="black"/>
<path d="M86.1729 146.335C81.9063 171.001 73.1063 186.868 60.3062 192.735C52.1729 196.468 51.3729 197.801 58.5729 195.801C69.2396 192.868 77.9063 181.668 84.3063 162.468C87.1063 153.801 90.4396 133.135 88.9729 133.135C88.5729 133.135 87.3729 139.135 86.1729 146.335Z" fill="black"/>
<path d="M554.44 57.4016C554.44 61.2682 556.573 62.6016 560.44 61.1349C563.107 60.0682 564.573 60.2016 565.907 61.2682C568.173 63.1349 568.44 61.0016 566.173 58.7349C564.307 56.8682 559.24 56.6016 560.44 58.4682C560.84 59.1349 560.307 59.8016 559.24 59.8016C558.04 59.8016 557.24 59.1349 557.507 58.3349C557.64 57.5349 556.973 56.4682 556.173 56.2016C555.24 55.8016 554.44 56.3349 554.44 57.4016Z" fill="black"/>
<path d="M550.973 65.8016C549.639 66.8683 549.106 67.8016 550.039 67.8016C550.839 67.8016 552.039 67.135 552.573 66.335C553.106 65.4016 555.373 65.135 557.906 65.535C560.706 66.0683 562.173 65.8016 561.773 65.0016C560.573 63.135 553.906 63.535 550.973 65.8016Z" fill="black"/>
<path d="M653.106 107.535C653.106 108.068 655.373 109.401 658.04 110.335C664.04 112.601 674.706 123.001 681.64 133.535C695.506 154.735 705.773 189.401 701.906 202.468C700.973 205.668 701.106 205.668 702.973 203.268C707.64 197.401 703.64 175.268 693.773 153.135C682.706 128.068 671.506 114.068 657.906 108.468C655.24 107.268 653.106 106.868 653.106 107.535Z" fill="black"/>
<path d="M466.173 270.068C467.106 270.468 468.306 270.335 468.706 269.935C469.24 269.535 468.44 269.135 466.973 269.268C465.506 269.268 465.106 269.668 466.173 270.068Z" fill="black"/>
<path d="M389.773 670.068C395.106 680.868 407.906 716.202 416.306 743.802C420.706 757.935 429.373 781.402 429.906 780.735C430.173 780.468 423.24 758.735 414.706 732.335C400.173 688.202 390.306 663.535 385.773 659.802C384.706 658.868 386.44 663.535 389.773 670.068Z" fill="black"/>
<path d="M410.44 765.002C410.44 765.668 411.107 766.735 411.773 767.135C412.573 767.535 413.107 767.402 413.107 766.602C413.107 765.935 412.573 764.868 411.773 764.468C411.107 764.068 410.44 764.202 410.44 765.002Z" fill="black"/>
<path d="M468.973 661.268C480.573 683.268 491.106 714.202 496.04 741.135C498.973 757.402 499.906 785.668 498.173 808.468L497.373 820.468L499.106 810.468C503.106 788.335 500.973 747.802 494.306 722.202C488.173 697.935 474.04 663.668 466.306 654.468C464.706 652.602 465.906 655.668 468.973 661.268Z" fill="black"/>
<path d="M258.306 664.602C246.173 682.335 235.106 717.802 231.906 750.335C229.24 775.535 230.84 822.202 234.44 825.668C235.64 826.735 235.906 826.202 235.24 823.135C232.706 809.535 231.506 777.402 232.973 760.868C236.306 722.468 247.773 682.868 261.106 662.735C262.706 660.468 263.64 658.468 263.24 658.468C262.84 658.468 260.706 661.268 258.306 664.602Z" fill="black"/>
<path d="M246.44 815.802C246.44 816.602 248.173 820.602 250.307 824.868C253.773 831.802 255.907 839.268 263.373 872.468C267.373 889.802 266.573 878.868 262.44 859.002C257.907 837.002 256.04 830.868 251.107 821.135C247.773 814.602 246.44 813.135 246.44 815.802Z" fill="black"/>
</svg>
