<svg width="443" height="46" viewBox="0 0 443 46" fill="none" xmlns="http://www.w3.org/2000/svg">
<path d="M10.6523 13.6732C7.24959 16.0988 1.15234 20.6732 1.15234 20.6732C1.15234 20.6732 4.02264 21.3583 4.65234 21.6732C5.65234 22.1732 5.71494 22.1968 6.65234 22.6732C8.63706 23.6819 8.91459 24.2815 10.6523 25.6732C13.0331 27.5798 14.2045 28.8535 16.6523 30.6732C18.9124 32.3532 20.1827 33.32 22.6523 34.6732C25.8006 36.3982 27.8329 36.8064 31.1523 38.1732C34.4718 39.54 36.2518 40.5229 39.6523 41.6732C43.2864 42.9024 45.3773 43.4906 49.1523 44.1732C53.397 44.9407 55.8397 45.0897 60.1523 45.1732C65.6326 45.2793 68.7604 45.1587 74.1523 44.1732C77.9261 43.4834 79.9596 42.7129 83.6523 41.6732C88.1711 40.4009 95.1523 38.1732 95.1523 38.1732C95.1523 38.1732 93.9989 35.4 93.1523 33.6732C90.6011 28.4692 88.8051 25.6729 85.1523 21.1732C83.4967 19.1336 82.476 18.0641 80.6523 16.1732C77.8711 13.2894 76.274 11.6845 73.1523 9.17319C71.083 7.50844 69.9699 6.47023 67.6523 5.17319C63.7185 2.97163 61.0732 2.55531 56.6523 1.67319C52.4222 0.829131 49.9632 0.824828 45.6523 0.673191C42.9204 0.577091 41.3652 0.336342 38.6523 0.673191C35.6442 1.04671 34.0476 1.77538 31.1523 2.67319C27.376 3.84422 25.1198 4.27355 21.6523 6.17319C19.3724 7.42222 18.3002 8.45872 16.1523 9.92319C14.0045 11.3877 12.7692 12.1642 10.6523 13.6732Z" stroke="black"/>
<path d="M349.652 28.6732C347.558 32.3052 344.652 38.1732 344.652 38.1732C344.652 38.1732 348.612 39.0961 351.152 39.6732C354.663 40.4708 356.624 40.9539 360.152 41.6732C364.431 42.5455 366.826 43.0856 371.152 43.6732C375.427 44.2537 377.839 44.6142 382.152 44.6732C385.867 44.7241 387.99 44.799 391.652 44.1732C394.033 43.7664 395.328 43.3295 397.652 42.6732C402.228 41.3811 404.81 40.6111 409.152 38.6732C412.582 37.1425 414.313 35.8927 417.652 34.1732C421.146 32.3742 423.23 31.6042 426.652 29.6732C429.248 28.2086 430.619 27.2432 433.152 25.6732C436.284 23.7326 441.152 20.6732 441.152 20.6732C441.152 20.6732 438.668 19.8698 437.152 19.1732C434.199 17.8162 432.843 16.4958 430.152 14.6732C427.371 12.7891 426.047 11.378 423.152 9.6732C420.895 8.34379 419.527 7.77987 417.152 6.6732C414.457 5.41682 412.964 4.64208 410.152 3.67321C405.987 2.2381 403.532 1.64682 399.152 1.17321C395.076 0.732363 392.673 0.366568 388.652 1.17321C385.381 1.82958 383.712 2.84138 380.652 4.17321C376.408 6.02087 370.152 9.6732 370.152 9.6732C370.152 9.6732 365.135 12.1846 362.152 14.1732C359.488 15.9499 357.098 17.6732 355.652 19.1732C352.607 22.3327 351.844 24.8718 349.652 28.6732Z" stroke="black"/>
</svg>
