<svg width="590" height="60" viewBox="0 0 590 60" fill="none" xmlns="http://www.w3.org/2000/svg">
<path d="M13.7268 17.3213C9.18727 20.5768 1.05298 26.7162 1.05298 26.7162C1.05298 26.7162 4.71889 27.9697 6.05298 28.6408C7.38707 29.3118 7.59855 29.52 8.55298 30.1408C10.6939 31.5333 11.697 32.5908 13.7268 34.1408C16.8312 36.5112 21.7314 40.1375 21.7314 40.1375C21.7314 40.1375 26.711 43.3492 30.053 45.1408C34.2279 47.3788 36.7126 48.359 41.0757 50.2035C45.5019 52.0747 47.9674 53.2037 52.553 54.6408C57.3434 56.142 60.0167 56.7246 65.053 57.6408C70.7157 58.6708 73.2995 59.0287 79.053 59.1408C86.3641 59.2831 90.8596 58.9635 98.053 57.6408C103.088 56.715 106.627 55.5363 111.553 54.1408C117.581 52.4331 126.458 50.2035 126.458 50.2035C126.458 50.2035 124.919 46.4815 123.789 44.1639C120.386 37.1795 117.99 33.4265 113.117 27.3873C110.908 24.6499 109.546 23.2144 107.113 20.6766C103.403 16.8061 101.272 14.6522 97.1075 11.2817C94.3468 9.04737 93.1449 8.88156 90.053 7.14076C84.8049 4.18597 81.4508 3.32468 75.553 2.14076C69.9096 1.00792 68.304 0.844276 62.553 0.64076C58.9083 0.511781 55.1722 0.763616 51.553 1.21571C47.5398 1.71703 44.9383 1.93581 41.0757 3.14078C36.0377 4.71246 32.6789 5.59122 28.053 8.14079C25.0114 9.81715 23.9298 10.3228 21.0643 12.2883C18.1989 14.2538 16.5509 15.296 13.7268 17.3213Z" stroke="black"/>
<path d="M465.984 37.4533C463.065 42.2556 459.313 50.2035 459.313 50.2035C459.313 50.2035 464.596 51.4422 467.985 52.2167C472.669 53.2872 475.846 53.6754 480.553 54.6407C486.26 55.8114 489.281 56.3521 495.053 57.1407C500.755 57.9198 504.299 58.1771 510.053 58.2563C515.009 58.3246 517.167 57.9806 522.053 57.1407C525.229 56.5948 527.952 56.0216 531.053 55.1407C537.158 53.4065 538.76 53.2416 544.553 50.6407C549.129 48.5863 552.247 46.9486 556.702 44.6407C561.363 42.2262 564.143 41.3871 568.709 38.7954C572.172 36.8297 574 35.534 577.38 33.4269C581.558 30.8223 588.053 26.7162 588.053 26.7162C588.053 26.7162 584.739 25.638 582.717 24.703C578.777 22.8817 576.968 21.1096 573.378 18.6634C569.667 16.1348 568.415 14.9288 564.553 12.6407C561.541 10.8565 559.87 10.626 556.702 9.14075C553.105 7.45451 550.304 5.8714 546.553 4.57104C540.996 2.64494 537.896 1.7764 532.053 1.14075C526.614 0.549079 523.917 0.0580856 518.553 1.1407C514.189 2.02164 511.598 2.88583 507.34 4.57104C501.591 6.84672 498.474 8.66602 493.053 11.6407C488.855 13.9446 486.539 15.1846 482.66 17.9924C479.464 20.3055 477.771 21.7811 475.053 24.6408C470.83 29.0841 469.167 32.2145 465.984 37.4533Z" stroke="black"/>
</svg>
