<svg width="688" height="76" viewBox="0 0 688 76" fill="none" xmlns="http://www.w3.org/2000/svg">
<path d="M19 31.8489C15.0753 31.8489 12.5 32.349 9 32.849C7.25469 33.0983 4.90783 34.3053 3 36.3488C1.38995 38.0735 0.50002 39.4895 0.5 41.8488C0.49998 44.2083 1.78904 45.5325 3 47.349C4 48.849 11.375 55.849 14 57.349C17.5 59.349 24.5138 62.8036 31.5 65.3488C38.4862 67.8941 51.3584 72.2491 65 73.849C75.5 75.0804 88.8577 74.5311 104 72.8488C117.5 71.349 128 67.8488 128 67.8488C128 67.8488 121.696 60.8997 118.5 55.8488C116.936 53.3772 112.426 49.9421 113 45.3488C113.5 41.349 122.986 33.646 130.5 27.3489C138.926 20.2876 154 11.8489 154 11.8489C154 11.8489 148.535 9.16295 145 7.849C139.386 5.76201 136.315 4.78692 130.5 3.34885C123.047 1.50558 118.7 1.11803 111 0.848999C103.561 0.589111 99.3388 0.607613 92 1.84885C85.0423 3.02563 81.0532 3.73156 74.5 6.34885C66.9425 9.36728 63.2163 12.2534 56.5 16.8489C47 23.349 31.5 31.8489 31.5 31.8489H19Z" stroke="black"/>
<path d="M567.5 58.3488C563.745 63.1242 556.5 69.3488 556.5 69.3488C556.5 69.3488 563.171 71.035 567.5 71.8488C580.01 74.2005 587.27 74.364 600 74.3488C612.535 74.3339 619.636 73.9135 632 71.8488C639.896 70.5302 644.338 69.6689 652 67.3488C660.225 64.8584 668.5 62.1855 672.5 59.849C676.851 57.3073 679.925 56.0418 683 51.849C685.016 49.099 686.877 46.2213 687 43.849C687.123 41.4767 686.652 39.9261 685.5 37.8488C684.359 35.7927 682.996 35.0914 681 33.8488C676.936 31.3192 673.758 31.8721 669 31.3489C663.565 30.7512 660.33 32.5662 655 31.3489C652.17 30.7025 650.663 30.0051 648 28.8489C640.399 25.548 637.525 21.2439 630.5 16.8489C623.827 12.674 620.29 9.81629 613 6.84885C605.894 3.95631 598.523 1.91424 594 1.34886C590 0.848877 579.345 0.0274351 570 0.84885C562.065 1.54631 557.488 2.13338 550 4.84885C543.596 7.17112 534.5 12.8489 534.5 12.8489C534.5 12.8489 544.895 18.6047 551 22.8489C557.487 27.3584 560.695 29.9902 566.5 35.3488C573 41.3488 574.5 47.3488 574.5 47.3488C574.5 47.3488 570.648 54.3464 567.5 58.3488Z" stroke="black"/>
</svg>
