<svg width="360" height="360" viewBox="0 0 360 360" fill="none" xmlns="http://www.w3.org/2000/svg">
<path d="M180 0C80.5887 0 0 80.5887 0 180C0 279.411 80.5887 360 180 360C279.411 360 360 279.411 360 180C360 144.635 349.74 111.516 332.117 83.6836C330.77 81.5557 327.804 81.2688 326.023 83.0496L285.876 123.197C284.628 124.445 284.352 126.36 285.146 127.936C293.123 143.748 297.485 161.408 297.485 180.359C297.485 245.046 244.837 292.284 180.359 297.485C174.903 297.925 171.825 298.084 166.347 298.204C162.279 298.292 159.993 298.377 155.928 298.204C91.1014 295.442 38.8024 245.046 38.8024 180.359C38.8024 174.688 39.2055 169.111 39.9846 163.655C40.1159 162.735 41.6766 162.904 41.6766 163.832C41.6766 194.3 53.3102 222.051 72.3776 242.885C75.5827 246.387 80.3601 241.525 78.0456 237.38C68.6185 220.498 63.2335 201.044 63.2335 180.359C63.2335 115.673 115.673 63.2335 180.359 63.2335C201.173 63.2335 220.719 68.6627 237.658 78.1822C239.258 79.0812 241.268 78.8364 242.564 77.5368L282.418 37.5636C284.15 35.8265 283.926 32.9513 281.907 31.5574C252.902 11.5248 217.949 0 180 0Z" fill="#FFB300"/>
</svg>
