<svg width="278" height="109" viewBox="0 0 278 109" fill="none" xmlns="http://www.w3.org/2000/svg">
<path d="M140.788 34.9329C140.788 34.9329 139.874 33.5186 139.288 32.9329C137.14 30.785 132.788 27.9329 132.788 27.9329C132.788 27.9329 129.622 25.6232 127.288 24.4329C123.553 22.528 121.625 21.1214 117.788 19.4329C112.701 17.1946 109.69 16.2393 104.288 14.9329C99.6703 13.816 97.002 13.5248 92.2881 12.9329C87.8152 12.3712 85.296 11.9463 80.7881 11.9329C77.4629 11.9229 72.2881 12.4329 72.2881 12.4329C72.2881 12.4329 66.1417 13.4274 62.2881 14.4329C57.0897 15.7891 54.574 17.9732 49.2881 18.9329C44.4812 19.8056 41.6729 19.3567 36.7881 19.4329C33.6643 19.4816 29.3311 19.0965 27.7881 18.4329C26.245 17.7692 26.6286 17.945 25.2881 16.9329C22.8539 15.095 21.6312 13.8855 19.2881 11.9329C16.9449 9.98024 15.7207 8.77284 13.2881 6.93286C11.3871 5.49502 10.446 4.44492 8.28809 3.43286C6.44239 2.56725 1.28809 0.932861 1.28809 0.932861C1.28809 0.932861 6.68978 8.43628 9.28809 12.4329C14.0538 19.7632 16.6529 23.7292 20.7881 31.4329C23.8033 37.05 25.7913 40.3059 28.7881 45.9329C34.0481 55.8092 36.7949 61.4834 42.7881 70.9329C46.8493 77.3362 48.5241 81.5337 53.2881 87.4329C56.4158 91.3059 58.4773 93.2296 62.2881 96.4329C67.1084 100.485 70.411 102.172 76.2881 104.433C84.2277 107.487 89.2881 107.933 96.2881 107.933C103.288 107.933 116.379 108.872 120.788 107.933C125.197 106.994 127.791 106.517 131.788 104.433C134.285 103.131 135.803 102.431 137.788 100.433C139.164 99.0477 140.788 95.9329 140.788 95.9329M140.788 34.9329L146.288 29.9329C146.288 29.9329 151.015 26.3469 154.288 24.4329C158.738 21.8303 166.288 18.9329 166.288 18.9329C166.288 18.9329 175.347 16.1384 181.288 14.9329C186.511 13.8731 189.489 13.507 194.788 12.9329C201.206 12.2374 204.25 11.9603 210.288 12.4329C217.657 13.0096 221.882 14.9821 228.788 16.4329C234.411 17.6142 237.55 18.6328 243.288 18.9329C245.823 19.0654 247.262 19.1874 249.788 18.9329C252.57 18.6525 254.118 18.2605 256.788 17.4329C259.459 16.6052 262.126 15.0482 267.788 10.9329C269.589 9.62391 276.788 4.93286 276.788 4.93286C276.788 4.93286 261.468 30.6179 252.288 47.4329C246.261 58.4722 243.948 65.0925 236.788 75.4329C232.048 82.2777 229.618 86.4888 223.788 92.4329C219.916 96.3808 218.026 99.0818 213.288 101.933C209.156 104.419 206.463 105.249 201.788 106.433C196.646 107.735 193.583 107.616 188.288 107.933C182.051 108.307 178.53 108.224 172.288 107.933C166.019 107.64 162.327 108.141 156.288 106.433C151.995 105.218 149.299 104.685 145.788 101.933C143.504 100.142 140.788 95.9329 140.788 95.9329M140.788 34.9329V95.9329" stroke="black"/>
</svg>
