<svg width="590" height="60" viewBox="0 0 590 60" fill="none" xmlns="http://www.w3.org/2000/svg">
<path d="M13.7271 17.3213C9.18751 20.5768 1.05322 26.7162 1.05322 26.7162C1.05322 26.7162 4.71913 27.9697 6.05322 28.6408C7.38731 29.3118 7.5988 29.52 8.55322 30.1408C10.6941 31.5333 11.6972 32.5908 13.7271 34.1408C16.8315 36.5112 21.7316 40.1375 21.7316 40.1375C21.7316 40.1375 26.7112 43.3492 30.0532 45.1408C34.2282 47.3788 36.7128 48.359 41.076 50.2035C45.5022 52.0747 47.9677 53.2037 52.5532 54.6408C57.3437 56.142 60.0169 56.7246 65.0532 57.6408C70.716 58.6708 73.2997 59.0287 79.0532 59.1408C86.3644 59.2831 90.8599 58.9635 98.0532 57.6408C103.088 56.715 106.627 55.5363 111.553 54.1408C117.582 52.4331 126.458 50.2035 126.458 50.2035C126.458 50.2035 124.919 46.4815 123.79 44.1639C120.386 37.1795 117.99 33.4265 113.117 27.3873C110.908 24.6499 109.546 23.2144 107.113 20.6766C103.403 16.8061 101.272 14.6522 97.1078 11.2817C94.3471 9.04737 93.1451 8.88156 90.0532 7.14076C84.8051 4.18597 81.451 3.32468 75.5532 2.14076C69.9099 1.00792 68.3042 0.844276 62.5532 0.64076C58.9085 0.511781 55.1724 0.763616 51.5532 1.21571C47.54 1.71703 44.9385 1.93581 41.076 3.14078C36.0379 4.71246 32.6792 5.59122 28.0532 8.14079C25.0116 9.81715 23.9301 10.3228 21.0646 12.2883C18.1991 14.2538 16.5512 15.296 13.7271 17.3213Z" stroke="black"/>
<path d="M465.984 37.4533C463.065 42.2556 459.313 50.2035 459.313 50.2035C459.313 50.2035 464.596 51.4422 467.985 52.2167C472.669 53.2872 475.847 53.6754 480.553 54.6407C486.261 55.8114 489.281 56.3521 495.053 57.1407C500.755 57.9198 504.299 58.1771 510.053 58.2563C515.009 58.3246 517.168 57.9806 522.053 57.1407C525.229 56.5948 527.952 56.0216 531.053 55.1407C537.158 53.4065 538.76 53.2416 544.553 50.6407C549.129 48.5863 552.247 46.9486 556.702 44.6407C561.363 42.2262 564.143 41.3871 568.709 38.7954C572.172 36.8297 574.001 35.534 577.38 33.4269C581.558 30.8223 588.053 26.7162 588.053 26.7162C588.053 26.7162 584.739 25.638 582.717 24.703C578.777 22.8817 576.968 21.1096 573.378 18.6634C569.668 16.1348 568.415 14.9288 564.553 12.6407C561.542 10.8565 559.87 10.626 556.702 9.14075C553.106 7.45451 550.305 5.8714 546.553 4.57104C540.997 2.64494 537.896 1.7764 532.053 1.14075C526.614 0.549079 523.917 0.0580856 518.553 1.1407C514.189 2.02164 511.598 2.88583 507.341 4.57104C501.591 6.84672 498.474 8.66602 493.053 11.6407C488.855 13.9446 486.54 15.1846 482.66 17.9924C479.464 20.3055 477.771 21.7811 475.053 24.6408C470.83 29.0841 469.168 32.2145 465.984 37.4533Z" stroke="black"/>
</svg>
