<svg width="372" height="146" viewBox="0 0 372 146" fill="none" xmlns="http://www.w3.org/2000/svg">
<path d="M188.354 49.4379C188.354 49.4379 186.125 45.2122 185.354 44.4379C182.523 41.5985 181.497 40.4937 178.854 38.4379C176.225 36.3933 174.928 35.5114 171.854 33.9379C166.933 31.4197 164.41 29.67 159.354 27.4379C152.651 24.479 148.193 23.3925 140.854 21.4379C134.673 19.7918 131.189 18.816 124.854 17.9379C119.231 17.1586 116.027 17.0971 110.354 16.9379C106.45 16.8283 104.244 16.5968 100.354 16.9379C95.5955 17.355 93.028 18.3203 88.3535 19.3012C82.0824 20.6173 78.6387 21.6908 72.3535 22.9379C65.3634 24.3248 61.4646 25.4716 54.3535 25.9379C49.6773 26.2445 46.9736 26.7228 42.3535 25.9379C40.219 25.5752 38.9978 25.3638 36.976 24.589C33.4416 23.2347 31.8897 21.5612 28.8535 19.3012C25.7723 17.0077 23.9269 15.2418 20.8535 12.9379C18.0369 10.8264 16.2014 9.71978 13.3535 7.93787C8.91188 5.15874 0.353516 0.437866 0.353516 0.437866C0.353516 0.437866 10.3535 10.4379 14.8535 18.9379C20.2562 29.1429 23.5372 34.5685 29.3535 44.4379C33.7571 51.91 36.5036 55.9343 40.8535 63.4379C48.0832 75.9089 50.9569 83.4462 58.8535 95.9379C64.2046 104.403 67.5919 109.988 73.8689 117.786C77.99 122.906 80.3324 126.203 85.3535 130.438C91.7047 135.794 96.3511 137.514 104.174 140.26C113.761 143.624 120.354 143.938 129.854 144.438C139.354 144.938 155.044 145.179 160.854 143.938C166.663 142.697 171.087 142.693 176.354 139.938C179.644 138.217 181.238 137.079 183.854 134.438C185.667 132.607 189.159 129.023 189.159 129.023M188.354 49.4379L189.159 129.023M188.354 49.4379C188.354 49.4379 190.791 46.6952 192.354 44.9379C193.916 43.1805 196.354 40.4379 196.354 40.4379C196.354 40.4379 202.041 35.4681 206.354 32.9379C212.217 29.4975 222.854 25.9379 222.854 25.9379C222.854 25.9379 234.694 22.0315 242.522 20.4379C249.404 19.0369 252.872 18.1969 259.854 17.4379C268.31 16.5185 272.898 16.8131 280.854 17.4379C290.563 18.2003 296.254 20.52 305.354 22.4379C312.763 23.9996 317.293 24.8533 324.854 25.25C328.194 25.4252 331.526 25.5865 334.854 25.25C338.519 24.8794 342.854 23.4379 344.354 22.9379C345.854 22.4379 353.611 17.9379 356.354 15.9379C358.726 14.2075 370.854 5.93787 370.854 5.93787C370.854 5.93787 348.449 43.2094 336.354 65.4379C328.413 80.0313 325.084 88.2536 315.649 101.923C309.404 110.971 306.201 116.538 298.52 124.396C293.419 129.615 290.596 132.169 284.354 135.938C278.909 139.225 275.513 140.372 269.354 141.938C262.578 143.66 259.33 143.518 252.354 143.938C244.135 144.432 238.888 145.271 230.664 144.886C222.404 144.5 216.81 144.196 208.854 141.938C203.197 140.332 200.979 140.077 196.354 136.438C193.344 134.07 189.159 129.023 189.159 129.023" stroke="black"/>
</svg>
