<svg width="155" height="228" viewBox="0 0 155 228" fill="none" xmlns="http://www.w3.org/2000/svg">
<path d="M13.3623 15.6714C9.00451 15.0775 2.97322 14.3196 2.97322 14.3196C2.97322 14.3196 1.29219 19.9428 0.862305 24.3196C0.314453 29.8975 0.317957 33.313 1.36235 38.8196C2.11296 42.7771 2.63432 46.1809 4.36225 49.8196C6.18109 53.6497 7.88475 56.7423 10.8018 59.8196C13.4309 62.593 18.3623 67.3196 18.3623 67.3196C18.3623 67.3196 12.9302 73.1232 10.8018 77.6451C9.04047 81.3872 8.24861 83.8284 7.86225 87.8196C7.42213 92.3661 8.35061 95.9401 9.49705 98.8196C10.9106 102.37 16.8623 104.82 16.8623 104.82C16.8623 104.82 13.1703 107.96 12.1066 111.568C11.0265 115.231 11.3623 119.82 11.3623 121.32C11.3623 122.82 12.1383 130.367 12.8623 132.32L14.7161 137.32V147.32C14.7161 147.32 14.9394 157.246 15.8623 164.32C16.8537 171.919 17.6545 176.065 19.8623 183.32C23.3623 194.82 33.8623 221.32 33.8623 221.32C33.8623 221.32 37.9565 222.834 41.8623 223.82C50.0476 225.886 55.431 225.892 63.8623 226.32C74.5489 226.862 82.1911 227.111 92.8623 226.32C102.097 225.635 118.862 222.82 118.862 222.82C118.862 222.82 119.439 211.223 120.362 203.82C121.217 196.969 122.017 193.091 123.362 186.32C124.738 179.398 125.824 175.575 127.862 168.82C130.074 161.488 131.346 157.358 134.362 150.32C135.862 146.82 136.362 143.32 136.362 143.32C136.362 143.32 139.359 141.32 141.862 136.82C143.819 133.302 143.814 130.807 144.362 126.82C145.054 121.79 145.373 118.795 144.362 113.82C143.748 110.794 142.966 109.203 141.862 106.32C141.486 105.338 140.862 103.82 140.862 103.82C140.862 103.82 144.79 97.1012 145.862 92.3196C146.754 88.3422 145.424 86.3569 144.862 82.3196C144.428 79.1984 142.598 77.2183 141.362 74.3196C139.782 70.6142 136.059 67.3196 136.059 67.3196C136.059 67.3196 138.78 64.5311 140.862 62.3196C144.376 58.5879 146.882 56.8048 149.362 52.3196C151.933 47.6713 152.649 43.7773 153.362 39.3196C154.247 33.7851 153.862 26.8196 152.862 22.3196C152.244 19.5391 151.362 15.6714 151.362 15.6714C151.362 15.6714 141.175 16.1016 136.059 16.3196C127.136 16.6998 116.73 16.7379 107.862 15.6714C98.3372 14.5258 97.8677 15.2575 89.3623 10.8196C83.8945 7.96663 78.3623 0.81958 78.3623 0.81958C78.3623 0.81958 72.6683 8.2549 67.8623 11.1049C61.3248 14.9816 58.3732 14.5078 50.8623 15.6714C45.5512 16.4942 39.0084 16.8632 33.6352 16.9761C26.739 17.121 20.1967 16.6028 13.3623 15.6714Z" stroke="black"/>
</svg>
