<svg width="677" height="117" viewBox="0 0 677 117" fill="none" xmlns="http://www.w3.org/2000/svg">
<path d="M0.924885 106.553C1.39416 109.739 2.92488 114.553 2.92488 114.553C2.92488 114.553 16.6815 108.555 25.4249 104.553C27.967 103.39 29.4622 102.877 31.9249 101.553L32.0665 101.477C37.2803 98.6757 40.4333 96.9814 44.4249 92.5535C48.7551 87.7499 49.8565 83.9889 52.4249 78.0535C55.7376 70.3979 56.6784 65.7102 58.4249 57.5535C59.749 51.3694 60.0493 47.8168 60.9249 41.5535C63.1254 25.8134 64.9249 1.05347 64.9249 1.05347C64.9249 1.05347 54.1148 9.09944 47.4249 14.5535C42.0571 18.9296 38.8502 21.1847 33.9249 26.0535C29.3004 30.6248 26.6639 33.2334 22.9249 38.5535C19.2062 43.8447 17.7763 47.2487 14.9249 53.0535C10.8321 61.3851 8.30364 66.2285 5.4248 75.0535C3.60306 80.638 2.92161 83.7645 1.92488 89.5535C0.796437 96.1074 -0.0442326 99.9741 0.924885 106.553Z" stroke="black"/>
<path d="M675.425 107.553C674.784 110.763 673.425 115.553 673.425 115.553C673.425 115.553 659.476 108.703 650.425 104.553C646.532 102.769 644.083 102.279 640.425 100.053C633.936 96.1058 630.829 92.7415 626.425 86.5535C622.17 80.5756 620.89 76.4641 618.425 69.5535C615.528 61.4344 615.103 56.5088 613.425 48.0535C612.075 41.2523 610.425 30.5535 610.425 30.5535C610.425 30.5535 615.995 29.8401 618.425 27.5535C619.648 26.4024 620.709 25.7192 620.925 24.0535C621.139 22.399 619.425 20.0535 619.425 20.0535L614.925 11.5535C614.925 11.5535 622.116 13.1898 626.425 15.0535C631.896 17.42 634.765 19.3362 639.425 23.0535C647.34 29.3676 650.435 34.0452 655.925 42.5535C660.764 50.0535 663.544 57.1021 667.425 66.5535C670.568 74.2082 673.099 82.5535 673.925 86.5535C675.587 94.6056 676.523 102.053 675.425 107.553Z" stroke="black"/>
</svg>
