<svg width="654" height="128" viewBox="0 0 654 128" fill="none" xmlns="http://www.w3.org/2000/svg">
<path d="M2.01357 117.762C3.09574 121.453 6.01356 126.762 6.01356 126.762C6.01356 126.762 11.2218 126.19 14.5136 125.762C18.1311 125.293 20.6343 124.892 24.0136 123.762C26.2513 123.014 27.5133 122.514 29.5136 121.262C31.9121 119.762 34.4538 116.189 37.5136 112.262C41.2418 107.478 42.7255 104.531 45.5137 99.2625C48.7037 93.2343 50.4356 89.6787 52.5136 83.2625C55.3456 74.5178 56.3781 69.3076 58.0137 60.2625C59.7334 50.7517 59.804 45.3514 61.0136 35.7625C61.8744 28.9379 63.0136 18.2625 63.0136 18.2625C63.0136 18.2625 49.0137 24.2625 43.5137 27.2625C38.6109 29.9367 36.0822 32.1051 32.0136 35.7625C27.9449 39.4198 24.9897 43.5919 21.0136 49.2625C16.0482 56.3441 13.9051 60.8061 10.5136 68.7625C6.97833 77.0564 4.46401 84.4092 3.01357 90.7625C1.56301 97.1162 0.35794 101.762 0.513566 107.262C0.630722 111.403 0.848132 113.788 2.01357 117.762Z" stroke="black"/>
<path d="M632.514 115.762C635.992 119.142 639.014 122.262 642.014 123.762C643.236 124.374 644.547 124.729 645.514 123.762C646.014 123.262 647.014 119.762 647.514 118.262C648.665 114.809 650.875 113.221 652.014 109.262C653.364 104.567 653.393 101.629 653.014 96.7625C652.457 89.623 651.784 85.7012 650.014 78.7625C647.617 69.3689 645.732 64.2155 642.014 55.2625C638.597 47.0363 636.598 42.3014 632.014 34.7625C627.671 27.6216 625.261 23.8303 619.514 17.7625L619.094 17.3197C616.215 14.2779 614.458 12.4213 611.014 9.76245C607.54 7.08122 605.401 5.57059 601.514 3.76245C597.929 2.09483 592.014 0.762451 592.014 0.762451C592.014 0.762451 596.036 6.79014 597.514 9.76245C600.63 16.03 602.13 19.5211 604.014 26.2625C606.34 34.5903 606.014 39.7625 606.514 48.2625C607 56.5324 607.886 61.1655 609.514 69.2625C611.073 77.0196 611.556 81.4784 614.514 88.7625L614.812 89.4987C616.956 94.7841 618.197 97.8441 621.514 102.762C625.232 108.276 627.744 111.128 632.514 115.762Z" stroke="black"/>
</svg>
