<svg width="725" height="1145" viewBox="0 0 725 1145" fill="none" xmlns="http://www.w3.org/2000/svg">
<path d="M333.763 165.868C333.763 175.334 341.763 197.201 348.696 207.201C353.229 213.601 352.696 210.268 347.896 201.601C342.429 192.134 338.429 181.334 336.429 170.401C334.829 162.401 333.763 160.534 333.763 165.868Z" fill="black"/>
<path d="M382.296 167.601C378.962 182.401 376.962 188.801 372.296 198.668C369.496 204.801 367.096 210.134 367.096 210.534C367.096 212.934 373.229 202.534 376.562 194.534C380.429 185.201 385.096 165.734 383.896 164.401C383.496 164.134 382.829 165.601 382.296 167.601Z" fill="black"/>
<path d="M201.096 274.801C203.762 279.601 224.695 307.068 225.229 306.401C225.629 306.001 220.962 299.201 214.962 291.334C204.029 276.801 198.829 270.668 201.096 274.801Z" fill="black"/>
<path d="M508.163 281.868C504.029 287.868 498.163 296.268 495.096 300.401C492.029 304.668 489.896 308.134 490.163 308.134C491.096 308.134 508.296 285.068 512.963 277.734C519.363 267.601 516.029 270.534 508.163 281.868Z" fill="black"/>
<path d="M452.162 361.468C449.096 370.934 443.496 377.734 434.829 382.001C430.962 383.868 428.962 385.468 430.162 385.468C433.762 385.468 442.029 380.801 445.896 376.534C450.962 371.201 455.362 361.868 454.829 357.734C454.562 354.801 454.029 355.468 452.162 361.468Z" fill="black"/>
<path d="M633.665 85.0504C652.639 97.1982 665.61 121.805 674.622 148.584C681.774 169.833 683.061 188.753 677.625 194.138C676.481 195.303 674.068 203.314 674.497 203.75C674.783 204.187 678.484 195.885 680.2 193.702C683.061 189.918 683.347 188.462 682.632 176.528C680.2 136.359 651.698 90.5797 622.231 82.2839C620.231 81.7209 628.198 81.5504 633.665 85.0504Z" fill="black"/>
<path d="M349.031 1.21726C326.631 4.95059 310.631 19.7506 305.697 41.3506C301.964 57.7506 304.097 87.8839 311.164 117.351C312.364 122.284 310.231 122.151 304.897 116.817C299.431 111.217 297.031 105.484 296.231 95.3506C295.564 86.6839 296.497 83.7506 300.231 83.2173C301.431 83.0839 302.497 82.4173 302.497 81.6173C302.497 79.3506 298.231 79.484 295.431 82.0173C293.031 84.1506 292.764 85.4839 293.431 93.7506C293.831 98.8172 295.164 105.617 296.364 108.817C298.631 114.417 307.831 123.751 311.164 123.751C313.964 123.751 315.431 131.617 316.364 151.884L317.297 171.351L310.097 173.617C300.897 176.684 281.297 187.084 277.164 191.084L273.964 194.151L268.764 190.284C262.231 185.617 245.831 179.217 234.631 177.084C221.697 174.551 197.697 176.017 183.031 180.417C176.497 182.284 170.497 184.417 169.964 184.951C169.297 185.617 164.897 184.017 159.964 181.617C148.764 175.884 138.097 173.884 124.364 174.817C113.297 175.617 97.1638 180.684 92.4972 184.817C90.3638 186.817 90.3638 186.284 93.0305 181.084C98.2305 170.817 99.6972 162.817 99.6972 142.951C99.6972 127.617 100.231 122.284 102.364 115.217C105.564 105.217 112.497 92.684 117.431 88.0173L120.764 84.8172L126.097 88.4172C134.097 93.6172 146.764 97.084 158.764 97.084C171.164 97.084 177.431 94.8173 180.364 89.2173C181.431 86.9506 183.031 85.084 183.831 85.084C184.631 85.084 184.764 84.4173 184.231 83.484C183.697 82.5506 183.831 82.4173 184.897 82.9507C187.564 84.684 192.897 80.1506 193.697 75.3506C194.631 70.6839 190.897 56.0173 186.097 45.7506C180.497 33.6172 177.964 32.4171 157.697 32.6838C131.697 33.2171 108.497 37.4839 97.0305 44.0172C94.3639 45.3505 90.3638 49.3506 88.0972 52.8172C84.0972 58.8172 73.5639 75.4839 69.2972 82.4172C68.2305 84.2839 62.3639 91.4839 56.3638 98.4172C37.1638 120.817 19.5638 146.951 15.5638 159.617C14.7638 162.284 13.5638 164.951 13.0305 165.751C12.3638 166.417 10.4972 173.351 8.63051 181.084C6.76384 188.817 3.96384 200.817 2.36384 207.884C0.363837 216.151 -0.436162 222.284 0.230505 225.351C1.56384 232.817 11.1638 240.684 31.0305 250.817C40.6305 255.617 54.6305 262.951 62.3638 267.084C95.1639 284.951 111.697 290.151 139.031 291.351C154.497 292.017 174.097 290.684 179.831 288.417C181.431 287.751 182.897 290.551 186.364 301.351C196.231 332.417 215.564 367.217 236.097 391.351C245.164 401.884 253.031 425.751 253.031 442.684C253.031 446.151 252.097 454.684 251.031 461.617C249.031 474.151 249.697 484.151 252.897 490.284C253.697 491.617 253.964 494.151 253.431 495.884C253.031 497.617 252.364 502.017 252.097 505.751C251.697 509.484 250.364 513.617 249.031 515.084C245.564 518.951 243.697 523.084 243.697 526.817C243.697 528.684 241.297 537.217 238.497 545.884C235.564 554.684 232.231 567.484 230.897 574.417C228.364 589.351 227.031 593.884 219.831 614.417C206.631 652.684 203.031 671.351 203.164 702.417C203.164 724.151 203.431 726.817 207.297 741.351C210.097 752.017 212.497 758.284 214.897 761.084C217.431 764.284 218.364 766.817 218.497 771.484C218.497 774.951 219.031 791.484 219.564 808.417L220.631 839.084L216.764 849.751C208.497 872.817 205.831 885.884 205.831 903.084C205.831 922.151 207.964 933.617 217.031 963.751C229.564 1006.02 232.897 1022.42 233.164 1042.28C233.297 1055.48 231.831 1058.95 218.631 1075.35C204.631 1092.68 195.031 1101.08 181.297 1108.02C168.364 1114.55 163.697 1119.22 163.697 1125.88C163.697 1129.88 164.364 1130.82 168.631 1132.82C171.431 1134.02 173.831 1135.48 174.097 1136.02C174.364 1136.55 176.764 1137.35 179.431 1137.88C182.097 1138.28 185.564 1139.48 187.031 1140.42C189.831 1142.15 195.564 1143.22 207.697 1144.55C214.097 1145.22 217.297 1144.68 229.697 1140.42C246.364 1134.82 250.097 1132.55 255.297 1124.68C259.031 1119.08 259.164 1119.08 268.764 1118.28C276.897 1117.75 279.031 1116.95 281.964 1114.02C287.164 1108.95 287.431 1100.02 283.164 1081.22C281.297 1072.95 279.964 1065.62 280.364 1065.08C280.764 1064.42 280.097 1060.15 278.897 1055.48C273.297 1034.02 282.231 986.417 298.097 951.751C300.231 946.951 303.831 938.017 305.831 931.751C309.297 921.484 309.697 918.684 309.697 902.417C309.697 885.484 309.297 883.351 304.497 866.817L299.431 849.217L307.431 833.484C320.497 807.884 324.631 792.551 324.897 768.417L325.031 753.751L332.231 739.751C340.497 723.484 347.564 705.084 351.697 689.217C355.697 673.217 361.031 646.684 361.031 642.284C361.031 639.484 361.697 638.417 363.431 638.551C364.764 638.551 365.031 638.951 364.097 639.351C362.897 639.751 362.764 640.684 363.697 642.284C364.364 643.617 364.631 645.084 364.231 645.484C363.164 646.417 371.031 682.151 375.697 697.484C380.497 713.484 390.097 736.551 396.364 746.817C400.897 754.417 401.031 754.817 401.031 768.951C401.031 792.151 405.831 810.417 417.964 834.151C421.831 841.751 424.764 848.417 424.364 849.084C423.964 849.617 421.564 857.484 418.897 866.551C415.031 880.151 413.964 886.017 413.431 899.084C412.631 918.151 414.364 926.817 422.364 945.217C442.897 991.884 447.697 1007.48 448.631 1031.88C449.164 1044.28 448.897 1051.62 447.831 1054.55C446.897 1057.08 445.964 1063.22 445.564 1068.42C445.164 1073.48 443.964 1081.08 442.897 1085.22C440.764 1094.02 440.497 1104.82 442.364 1109.62C444.364 1115.08 451.164 1118.42 460.097 1118.42C468.364 1118.42 469.697 1119.22 477.697 1129.62C479.564 1132.15 484.764 1134.55 495.564 1138.42C509.297 1143.22 512.097 1143.75 523.697 1143.75C534.897 1143.75 536.897 1143.35 539.031 1141.08C540.364 1139.62 542.764 1138.42 544.364 1138.42C545.831 1138.42 548.364 1137.48 549.831 1136.42C551.164 1135.35 553.564 1134.42 555.031 1134.42C559.164 1134.42 561.031 1131.75 561.031 1126.28C561.031 1119.48 557.431 1115.75 543.697 1108.28C525.697 1098.55 522.897 1096.15 509.031 1078.95C493.831 1060.02 493.431 1059.35 491.697 1050.42C489.031 1036.15 496.097 996.951 507.031 964.951C520.497 925.351 522.231 901.351 513.831 871.084C511.164 861.617 507.431 851.217 505.697 848.017C502.497 842.417 502.497 842.017 504.364 834.817C505.697 829.884 506.231 820.417 506.231 805.884C506.231 780.951 507.164 774.284 513.564 754.817C520.631 732.417 521.431 726.684 520.764 699.484C519.831 669.217 516.631 652.951 504.231 617.217C498.631 601.217 494.497 586.151 492.364 574.684C490.497 565.084 486.897 550.951 484.364 543.351C481.831 535.884 479.697 528.017 479.697 526.017C479.697 523.884 478.497 519.484 477.164 516.017C472.631 504.951 471.431 493.884 473.964 484.951C475.964 477.617 475.964 476.151 473.697 462.284C470.631 442.951 471.431 429.884 476.897 413.084C480.364 402.417 482.231 398.817 489.164 390.417C509.697 365.484 530.364 328.817 538.364 302.684C542.897 288.151 543.164 287.617 546.364 288.284C568.364 292.817 599.431 292.684 617.431 287.884C630.897 284.284 646.497 277.484 660.764 268.951C667.164 265.084 680.497 257.751 690.364 252.684C717.431 238.684 726.631 229.484 724.631 218.684C721.431 201.751 710.897 165.351 706.364 156.017C698.764 140.017 684.231 118.417 675.831 110.417C664.764 100.017 649.031 78.2839 640.897 62.4172C638.497 57.6172 635.031 52.0172 633.164 50.0172C623.564 39.3505 598.364 33.0838 565.431 33.0838C543.964 33.0838 540.364 34.1506 535.964 41.3506C532.364 47.3506 527.697 61.6173 526.764 69.084C526.097 74.8173 526.364 75.4839 530.364 78.8172C534.097 82.0172 536.497 82.9506 539.431 82.1506C539.964 82.0173 540.631 83.6172 541.031 85.7506C542.364 92.9506 552.231 97.2173 566.364 96.5506C578.497 95.884 590.631 92.9506 598.097 88.8172C606.631 84.0172 605.297 82.9506 616.631 104.817L624.364 119.884L624.497 143.484C624.631 164.284 625.031 168.017 627.564 174.684C629.164 178.951 631.164 182.684 631.831 183.084C632.497 183.617 633.031 184.417 633.031 185.217C633.031 185.884 630.231 185.084 626.764 183.351C605.564 172.684 588.231 172.284 570.097 182.151L561.164 186.951L549.431 183.351C531.164 177.751 518.764 175.484 505.031 175.351C490.231 175.084 478.764 178.017 461.564 186.684L450.631 192.017L441.164 186.551C435.964 183.484 427.031 178.951 421.431 176.551L411.031 172.151L411.164 163.617C411.164 158.951 411.431 148.551 411.564 140.684L411.964 126.284L419.031 119.351C426.497 111.884 429.697 105.217 431.164 93.484C431.964 87.2173 431.697 86.2839 428.631 83.2173C426.631 81.3506 424.097 79.7506 422.764 79.7506C420.631 79.7506 420.364 78.2839 420.364 63.3506C420.364 48.6839 419.964 45.8839 416.364 35.7506C413.031 26.0173 411.297 23.2172 404.364 16.2839C395.431 7.21724 387.031 3.21717 371.964 1.08383C361.697 -0.382833 359.031 -0.382744 349.031 1.21726ZM388.764 8.95053C408.497 18.1505 416.764 33.8839 417.697 63.7506C418.097 75.4839 417.431 83.2172 415.164 96.4172C409.564 127.884 404.364 140.817 391.964 153.484C383.164 162.551 374.231 167.617 364.897 168.684C359.431 169.351 357.164 168.817 349.964 165.351C322.764 151.884 307.431 116.417 307.164 65.7506C307.031 41.6172 309.964 30.9506 319.431 20.8172C331.831 7.61723 342.497 3.61715 364.364 4.15048C377.831 4.41715 379.831 4.8172 388.764 8.95053ZM171.431 35.6172C178.097 35.8838 181.431 40.284 186.897 56.5506C192.764 74.4173 192.897 76.4173 187.697 79.084C185.564 80.1506 183.297 81.084 182.764 81.084C182.097 81.084 180.497 76.5506 179.297 71.2173C176.897 61.2173 173.297 51.0839 172.364 51.8839C172.097 52.1506 173.297 57.4839 175.164 63.6173C176.897 69.7506 178.364 78.0172 178.364 81.8839C178.364 88.5505 178.097 89.3506 174.097 91.7506C171.697 93.2172 167.964 94.4172 165.964 94.4172C162.497 94.4172 162.364 94.1506 163.831 91.484C166.764 86.0173 167.431 79.6173 166.231 70.0173C165.031 60.9506 162.631 52.4173 161.564 53.484C161.297 53.7506 161.964 58.4172 163.164 63.8839C165.564 75.0839 164.897 86.2839 161.697 91.2173C160.097 93.7506 158.497 94.4172 154.497 94.4172C145.564 94.4172 144.497 93.4839 148.364 88.8172C152.497 83.8839 153.564 79.8839 152.497 72.6839C150.897 62.4173 149.031 62.4173 149.964 72.6839C150.631 80.4173 150.364 82.9506 148.497 85.7506C144.631 91.7506 141.297 92.2839 133.031 88.6839C128.897 86.8173 124.897 84.4172 123.964 83.3506C122.497 81.6172 123.164 80.9506 128.897 79.084C132.497 77.884 136.231 76.0173 137.031 74.9507C139.164 72.4173 138.497 72.5506 131.564 75.7506C121.164 80.4172 111.031 78.1506 105.564 69.7506C102.497 65.2172 101.697 66.4173 104.231 71.6173C105.564 74.0173 108.897 76.9506 112.364 78.6839L118.231 81.7506L113.564 87.7506C107.964 94.9506 102.897 104.417 99.4305 114.417C97.1639 120.551 96.7639 124.817 96.8972 140.017C97.1639 160.151 95.8305 167.217 90.2305 178.684C83.5638 192.017 73.4305 200.951 62.6305 202.951L58.2305 203.751L64.3639 196.684C72.0972 187.884 81.5638 168.951 85.0305 155.084C86.4972 149.217 88.6305 135.351 89.6972 124.284C91.8305 102.284 93.5638 96.5506 101.697 85.2173C104.497 81.3506 106.364 78.0173 105.964 77.6173C105.164 76.8173 93.9638 92.4173 92.6305 96.1506C92.0972 97.3506 90.6305 98.8172 89.4305 99.3506C79.1638 102.951 66.7639 109.884 60.8972 115.351C46.7638 128.417 35.6972 150.017 30.0972 174.951C27.9638 185.084 27.6972 188.284 28.8972 194.284C29.6972 198.284 31.2972 202.951 32.3638 204.551C34.0972 207.217 33.9638 207.617 31.0305 209.617C26.6305 212.551 23.4305 218.951 24.4972 223.084C27.0305 233.484 49.5638 243.617 74.6305 245.751C84.6305 246.551 86.8972 246.284 95.5638 243.351L105.431 239.884L115.564 243.351C123.431 246.017 129.297 246.951 141.697 247.484L157.697 248.151L164.364 254.151C167.964 257.351 173.964 261.751 177.697 263.884C185.697 268.417 202.097 272.417 208.631 271.351C217.697 269.751 215.564 268.417 203.964 268.284C194.231 268.284 191.031 267.617 184.497 264.684C175.964 260.684 166.897 254.017 160.097 246.417C157.031 243.084 155.831 242.417 155.697 244.017C155.697 245.884 154.231 246.151 144.097 245.617C127.431 244.817 119.297 242.951 106.497 236.817C97.1638 232.417 92.7639 229.084 81.4305 218.017C73.8305 210.684 67.4305 204.951 67.0305 205.217C65.8305 206.551 84.7638 225.751 93.2972 231.751L102.631 238.284L97.4305 240.551C90.7638 243.484 74.0972 244.417 62.7639 242.417C49.2972 240.151 35.4305 233.884 29.8305 227.617C27.1638 224.817 25.0305 221.884 25.0305 221.217C25.0305 220.684 26.3638 218.151 28.0972 215.617C31.8305 210.151 36.2305 208.551 55.5639 205.884L70.2305 203.751L83.6972 194.284C102.231 181.217 111.831 177.884 130.364 177.884C147.164 177.884 155.031 180.417 167.831 190.284C177.697 197.751 182.497 203.484 189.431 215.884L194.231 224.551L183.297 228.017C177.297 230.017 167.964 232.284 162.631 233.084C138.897 236.551 108.231 227.484 85.0305 210.017C75.5638 202.817 71.8305 200.817 73.6972 203.751C74.0972 204.417 75.1638 205.084 75.8305 205.084C76.6305 205.084 80.3638 207.751 84.0972 211.084C92.7639 218.684 105.164 225.217 120.897 230.417C142.097 237.484 160.631 237.217 184.097 229.617C189.964 227.617 195.031 226.684 195.697 227.217C196.631 228.284 213.964 258.151 218.231 266.151C219.831 269.084 219.431 269.351 206.097 275.617C185.697 285.351 175.564 287.884 154.231 288.684C133.564 289.484 114.631 286.951 99.0305 281.484C88.6305 277.751 68.3639 267.751 56.4972 260.684L48.7639 256.017L54.6305 255.084C61.6972 254.017 74.7638 250.417 74.0972 249.751C73.8305 249.484 70.0972 250.151 65.6972 251.217C51.2972 254.551 44.8972 253.751 30.6305 247.084C14.8972 239.617 5.56384 232.684 3.69717 226.951C2.49717 223.484 2.89717 219.617 5.83051 206.817C12.3638 177.751 15.6972 167.217 23.6972 150.951C32.0972 133.884 40.4972 121.751 58.3638 101.084C64.3639 94.1506 72.4972 82.9505 76.6305 76.4172C93.8305 48.4172 93.8305 48.2838 102.097 44.6838C112.764 40.0171 127.964 36.9506 146.097 35.8839C154.631 35.3506 162.897 35.0839 164.364 35.2173C165.831 35.3506 169.031 35.4838 171.431 35.6172ZM595.831 37.7506C610.497 39.8839 621.964 43.8838 627.697 48.5505C629.831 50.4172 634.364 57.084 637.831 63.484C647.831 81.884 654.497 91.2173 670.364 109.084C696.497 138.417 709.164 161.751 713.964 189.084C715.031 195.351 717.297 204.551 719.164 209.751C721.564 216.417 722.231 220.417 721.697 223.751C720.364 230.817 710.497 239.217 693.564 247.617C685.564 251.617 673.297 258.417 666.364 262.551C645.831 274.951 629.431 282.151 612.764 286.017C599.031 289.084 595.831 289.351 576.364 288.684C552.897 287.884 539.297 285.084 520.631 276.951C510.231 272.417 506.097 269.617 511.697 271.084C513.564 271.484 520.231 271.217 526.364 270.551C540.497 268.684 550.764 263.884 562.097 253.617C568.764 247.617 571.164 246.284 573.831 246.817C579.831 247.884 599.697 244.951 609.297 241.617L618.631 238.284L624.364 240.951C627.431 242.417 631.697 244.017 633.564 244.551C635.431 244.951 637.031 245.884 637.031 246.417C637.031 247.884 653.031 252.817 663.564 254.551C670.097 255.617 673.297 255.617 675.164 254.684C677.164 253.484 676.097 253.217 669.564 253.084C662.764 253.084 640.897 248.017 638.897 246.017C638.497 245.617 644.231 245.351 651.431 245.217C672.231 245.084 690.764 237.751 697.031 227.484C700.764 221.217 700.364 217.484 695.431 212.551C691.297 208.551 688.897 207.641 674.497 203.75C670.097 202.543 666.364 200.017 660.097 193.751C645.964 179.617 639.831 162.817 637.031 130.951C634.897 106.017 632.097 96.8172 622.231 82.2839C617.831 75.6172 617.297 74.1506 618.364 70.5506C619.831 65.2173 618.097 65.0839 616.097 70.4172C615.031 73.0839 612.897 75.2173 609.564 76.5506C604.097 78.8173 599.431 78.4172 587.964 74.4172C584.097 73.0839 581.297 72.4173 581.697 73.084C582.631 74.684 596.497 79.7506 599.697 79.7506C607.297 79.7506 598.497 86.9506 586.497 90.5506C580.764 92.284 580.631 92.2839 576.631 87.7506C572.764 83.4839 572.764 82.9505 573.431 73.8839C574.097 66.2839 573.964 64.9506 572.631 67.084C571.831 68.5506 571.164 73.2172 571.031 77.3506C571.031 83.4839 571.564 85.4839 574.231 88.2839C578.097 92.4172 577.697 93.084 570.631 93.484C559.297 93.884 555.697 84.5506 559.831 65.8839C561.297 59.3505 562.231 53.7506 561.831 53.484C560.764 52.284 556.897 66.8172 556.097 75.3506C555.431 82.2839 555.831 84.2839 558.097 88.2839L560.897 93.084H555.831C552.631 93.084 549.431 92.0172 547.164 90.2839C542.764 86.8172 542.631 81.0839 546.364 65.2173C547.831 59.0839 548.897 53.7506 548.497 53.484C547.831 52.8173 544.231 64.0172 543.031 70.4172C541.564 78.6839 540.897 79.7506 537.964 79.7506C536.231 79.7506 533.564 78.8173 531.964 77.6173C527.964 74.8173 528.097 69.0839 532.497 56.8172C537.031 44.1506 540.364 38.9506 544.764 37.2173C550.231 35.2173 581.431 35.4839 595.831 37.7506ZM630.231 101.751C631.697 106.284 633.564 117.084 634.231 126.551C637.297 163.617 644.764 183.217 661.297 197.617C667.564 202.951 667.964 203.751 665.164 203.751C661.564 203.751 649.564 197.351 642.231 191.484C631.164 182.551 626.097 166.684 627.297 144.684C627.831 135.351 627.431 127.084 626.497 122.551C624.764 114.151 616.364 95.8839 610.497 87.2173C607.564 82.9506 606.764 81.084 608.097 81.084C609.164 81.084 611.431 80.0173 613.164 78.5506L616.231 76.1506L621.964 84.9507C625.031 89.7507 628.764 97.3506 630.231 101.751ZM426.897 84.5506C428.364 88.4173 427.697 99.2173 425.697 105.217C423.564 111.217 421.297 114.417 415.831 119.084L412.631 121.751L413.431 118.417C413.964 116.551 415.564 108.151 417.164 99.7506C418.631 91.3506 420.231 84.0173 420.631 83.484C421.697 81.6173 426.097 82.4173 426.897 84.5506ZM89.4305 111.351C88.0972 130.684 82.6305 159.217 78.3638 169.751C73.4305 181.484 65.8305 193.484 59.5639 199.217C56.0972 202.417 52.8972 203.884 45.8305 205.084C36.7638 206.817 36.6305 206.684 34.2305 203.617C28.4972 196.017 29.8305 178.284 37.8305 155.884C46.4972 131.351 59.5638 115.217 77.5638 106.417C83.5639 103.484 88.7638 101.084 89.2972 101.084C89.6972 101.084 89.8305 105.751 89.4305 111.351ZM409.031 143.751C407.164 164.951 407.431 181.084 409.697 188.551C412.097 196.817 419.031 207.751 421.831 207.751C423.297 207.751 422.631 206.284 419.297 202.417C414.364 196.684 410.364 186.151 410.364 178.951C410.364 174.951 410.631 174.551 412.764 175.751C413.964 176.417 421.297 179.884 429.031 183.484C436.764 187.084 444.497 191.217 446.231 192.684L449.564 195.351L443.697 202.284C438.497 208.417 437.431 209.084 432.497 209.084C420.764 209.217 395.831 216.284 380.897 223.751C374.631 226.951 362.364 240.151 362.364 242.417C362.364 243.084 369.297 234.684 371.431 232.817C376.497 227.751 395.831 218.951 408.364 215.884C434.764 209.217 449.297 208.951 471.831 214.684C484.364 217.884 491.297 218.951 500.497 218.951C511.831 219.084 512.631 219.217 511.431 221.484C510.764 222.817 510.364 230.551 510.497 238.817L510.764 253.751L505.031 264.417C494.631 283.751 482.364 303.217 475.164 312.017C462.097 327.884 450.231 333.484 424.497 335.884C396.497 338.417 374.097 334.017 366.364 324.151C363.831 320.951 363.697 318.817 363.697 283.884C363.697 263.617 363.031 244.951 362.364 242.417C358.631 228.817 330.364 214.151 299.431 209.751C291.831 208.684 285.297 207.751 284.897 207.751C284.497 207.751 282.097 204.951 279.697 201.617L275.297 195.351L278.497 192.817C282.097 190.017 309.431 176.284 314.097 175.084C316.764 174.284 317.031 174.684 317.031 179.484C317.031 187.084 313.831 193.751 306.097 201.884C302.364 205.884 299.964 209.084 300.631 209.084C301.431 209.084 305.031 205.884 308.631 202.017C318.764 191.351 320.364 185.351 319.164 160.551C318.764 149.484 317.964 138.951 317.564 137.084C317.164 135.217 319.031 137.617 321.831 142.284C327.964 152.284 338.631 162.551 348.231 167.351C365.164 176.017 385.164 168.417 400.364 147.617C403.031 144.151 406.097 138.417 407.297 135.084C408.364 131.751 409.564 129.084 409.697 129.351C409.964 129.617 409.564 136.017 409.031 143.751ZM616.231 182.017C625.697 185.351 638.364 191.884 642.497 195.351C643.697 196.417 648.497 199.217 653.031 201.617C660.231 205.484 661.031 206.284 658.497 207.084C656.897 207.484 650.631 212.017 644.631 217.084C620.497 236.817 606.364 243.084 581.431 244.551L566.764 245.484L560.231 252.017C548.897 263.351 533.431 269.084 513.964 269.084C507.031 269.084 506.231 268.817 507.031 266.551C508.897 260.417 529.297 226.551 530.764 227.084C531.697 227.351 540.364 229.084 550.097 230.951C570.364 234.951 587.297 235.351 599.031 232.417C606.497 230.551 642.364 214.017 642.364 212.417C642.364 211.484 628.364 217.751 621.564 221.751C607.031 230.284 582.364 234.817 566.364 232.017C562.364 231.351 552.764 229.617 545.031 228.284C537.297 226.951 530.764 225.751 530.497 225.484C529.697 224.951 532.764 219.217 539.297 208.817C543.697 202.017 546.897 198.817 553.431 194.684C564.631 187.617 579.964 180.017 586.097 178.417C593.164 176.684 605.164 178.017 616.231 182.017ZM238.364 181.084C254.764 185.084 267.431 191.617 275.031 200.017L281.431 207.084L271.564 208.684C266.097 209.484 255.697 211.884 248.364 213.884C231.164 218.551 213.564 219.084 208.497 215.084C196.764 205.617 177.164 194.05 176.631 194.584C176.231 194.85 189.697 202.684 197.031 208.551C205.164 215.084 210.764 220.551 211.564 222.951C212.364 225.084 213.164 231.351 213.164 236.951L213.431 247.084L214.497 238.551C215.297 232.417 215.031 228.684 213.831 224.951L211.964 219.751H223.031C231.164 219.751 238.364 218.684 250.497 215.351C275.297 208.951 297.697 209.484 322.364 217.351C334.631 221.217 348.764 228.817 355.297 235.217L361.031 240.684V320.817L357.697 324.817C350.497 333.351 331.564 338.017 308.897 336.551C284.631 335.084 267.964 329.617 256.364 319.484C249.431 313.351 230.631 285.751 223.031 270.417C220.231 264.951 212.231 250.551 205.031 238.417C197.964 226.284 190.497 213.217 188.497 209.484C186.631 205.617 180.764 198.717 176.631 194.584C172.497 190.584 170.364 187.351 170.631 187.217C170.764 186.951 174.231 185.751 178.097 184.417C197.564 178.151 220.497 176.817 238.364 181.084ZM533.697 181.751C552.231 186.684 555.697 187.884 555.697 188.951C555.697 190.284 532.497 205.751 520.897 212.284C512.897 216.684 511.164 217.084 501.831 217.084C494.764 217.084 486.497 215.751 475.297 212.951C466.364 210.684 455.297 208.817 450.764 208.684C446.097 208.551 442.364 208.017 442.364 207.617C442.364 207.084 445.697 203.351 449.831 199.217C457.831 191.351 469.164 184.951 483.031 180.817C493.031 177.884 521.297 178.284 533.697 181.751ZM538.897 205.351C538.364 206.284 536.897 208.551 535.697 210.417C534.364 212.284 531.964 216.417 530.097 219.751C528.231 223.084 523.564 231.484 519.564 238.417L512.364 251.084L511.964 238.284C511.831 231.351 512.097 224.151 512.764 222.284C513.564 220.284 518.497 216.417 526.497 211.484C540.897 202.951 540.097 203.217 538.897 205.351ZM683.431 208.417C691.564 210.951 698.364 216.151 698.364 220.284C698.364 224.551 691.564 232.017 684.097 236.151C669.831 243.884 643.964 246.284 629.431 241.084C621.297 238.284 619.431 237.084 622.097 236.151C625.031 235.084 637.431 226.151 645.031 219.751C661.431 205.751 667.831 203.884 683.431 208.417ZM230.231 287.884C235.564 296.817 240.764 305.084 241.697 306.284C242.764 307.484 245.697 311.084 248.497 314.417C255.831 323.484 265.431 330.017 276.231 333.351L285.831 336.417L284.631 342.417C281.697 358.151 286.631 375.351 296.364 383.484L301.164 387.351L297.697 392.551C295.431 395.751 293.297 397.617 291.964 397.351C283.431 395.484 273.964 386.551 269.431 376.151C266.897 370.017 263.564 356.684 264.764 357.351C272.364 361.351 281.297 365.217 282.364 364.817C283.164 364.551 279.431 362.284 274.097 359.751C263.164 354.417 257.164 348.951 249.031 336.417C245.831 331.617 243.031 328.017 242.631 328.284C241.697 329.217 247.297 338.017 255.164 347.884C260.497 354.551 262.497 358.284 263.697 364.284C264.497 368.551 265.031 372.284 264.631 372.551C263.031 374.284 250.097 365.884 244.364 359.484L238.097 352.417L239.031 341.751C239.431 335.884 239.964 325.351 240.364 318.417C240.897 306.284 240.764 306.151 239.564 314.417C238.897 319.217 237.697 327.084 236.897 331.884C234.897 343.617 236.097 376.817 238.897 385.751C239.964 389.351 240.764 392.551 240.497 392.684C239.697 393.484 219.297 363.751 210.097 348.417C203.564 337.617 195.431 318.951 189.697 301.617C187.164 293.751 185.164 287.217 185.297 287.084C185.564 286.951 189.964 285.217 195.031 283.217C200.231 281.351 207.431 278.017 211.031 275.751C214.764 273.617 218.364 271.884 219.031 271.884C219.831 271.751 224.897 278.951 230.231 287.884ZM519.831 280.017C520.231 280.684 521.164 281.217 521.831 281.084C524.364 280.551 538.631 285.751 539.297 287.351C540.497 290.284 530.497 317.351 521.964 334.417C517.297 343.617 509.031 358.017 503.431 366.417C492.631 382.684 483.031 394.417 484.231 389.751C485.831 383.751 487.564 372.951 489.031 360.017C490.364 347.884 490.231 344.551 487.697 329.351C484.764 311.884 481.964 304.284 483.297 317.484C483.964 324.684 483.831 325.217 478.097 333.351C469.431 345.484 458.364 355.217 448.097 360.017C443.164 362.417 439.831 364.417 440.764 364.817C441.564 365.084 446.364 363.351 451.297 360.951C461.164 356.284 470.497 347.484 479.164 335.084C481.831 331.084 484.364 327.884 484.497 328.151C484.764 328.284 485.564 332.684 486.364 337.751C487.431 344.551 487.431 350.951 486.364 361.751C484.631 378.684 483.164 384.951 475.697 407.617C468.231 430.151 466.497 443.084 469.431 456.284C472.231 469.084 472.364 482.684 469.697 488.284C468.364 490.951 464.497 494.417 458.631 498.017C447.031 505.217 439.831 515.084 437.297 527.351L436.231 532.417L421.697 537.217C400.764 544.151 379.431 546.951 354.631 546.017C343.831 545.484 331.564 544.417 327.297 543.484L319.431 541.751L314.897 530.417C305.964 508.551 300.764 489.751 300.497 479.084C300.497 473.617 299.031 458.151 298.364 458.151C297.697 458.151 298.364 474.551 298.764 481.351C299.431 494.284 303.697 508.817 312.897 530.284C315.164 535.751 316.764 540.417 316.497 540.684C316.231 540.951 310.231 539.351 303.297 536.951L290.497 532.684L285.831 523.084C279.697 510.817 277.431 507.884 266.097 498.817C260.231 494.151 255.964 489.617 254.764 486.551C252.631 481.751 252.631 481.617 255.164 448.417C256.231 434.551 253.697 419.617 248.497 408.151C243.964 398.417 239.831 381.217 238.497 366.417C237.831 359.484 237.564 353.484 237.697 353.351C237.964 353.084 239.031 354.551 240.097 356.684C243.697 363.484 256.497 373.484 263.031 374.684C264.497 374.817 267.831 378.417 270.497 382.417C276.364 391.484 278.764 393.617 286.764 397.084C291.431 399.217 293.031 400.551 292.497 402.151C290.497 409.617 290.364 413.217 292.231 417.751L294.364 422.684L290.897 421.884C279.164 418.817 266.097 408.284 260.364 397.217C258.631 393.617 256.231 386.284 255.164 380.951C253.564 372.684 253.297 371.884 253.164 376.551C253.031 379.484 253.964 385.217 255.164 389.217C260.897 408.284 273.164 419.617 294.097 425.084C299.164 426.417 299.564 426.817 297.831 428.551C293.297 433.084 293.564 450.284 298.364 458.151C302.364 464.684 307.964 466.817 323.697 467.751C331.431 468.151 337.964 468.417 338.231 468.151C340.097 466.817 335.164 465.751 322.231 465.084C306.097 464.017 302.631 462.417 298.897 453.484C296.631 448.151 296.497 434.817 298.764 430.551C300.364 427.484 300.631 427.484 327.431 426.817C362.764 425.884 361.431 425.217 360.764 444.551L360.364 458.551L347.831 469.751L351.964 476.817C357.031 485.484 361.297 487.751 366.231 484.017C369.831 481.351 371.564 475.084 369.297 472.817C367.564 471.084 358.497 471.084 356.897 472.684C356.097 473.484 358.231 473.884 361.964 473.884C367.431 473.751 368.364 474.151 368.764 476.551C369.031 478.017 367.964 480.284 366.497 481.617C362.231 485.484 358.364 483.884 353.964 476.417L350.097 469.884L355.964 464.817L361.697 459.884L367.431 465.484C374.231 472.151 375.031 470.417 368.231 463.351L363.431 458.417L363.564 444.017C363.697 432.284 364.231 429.484 366.097 427.884C367.964 426.551 373.297 426.284 392.364 426.951C405.831 427.484 418.231 427.217 420.497 426.551C424.631 425.351 424.764 425.484 426.231 430.684C429.564 441.484 427.564 457.084 422.231 461.884C419.697 464.151 413.031 464.951 384.764 466.284C383.431 466.417 382.364 466.951 382.364 467.751C382.364 468.417 383.697 468.817 385.431 468.551C387.031 468.151 394.764 467.884 402.497 467.884C414.897 467.751 417.794 467.351 421.342 464.684C423.589 463.084 426.497 459.884 427.564 457.751C430.231 452.284 431.031 439.484 429.164 432.684C428.231 429.617 427.431 426.551 427.297 425.884C427.164 425.217 429.431 424.417 432.364 424.151C440.364 423.484 453.564 416.417 459.164 410.017C466.497 401.484 471.831 389.217 472.764 378.684C473.297 371.217 474.097 368.817 477.697 364.417C484.497 355.884 484.631 354.551 478.097 361.751C474.764 365.484 469.831 369.751 467.164 371.084C464.497 372.551 462.364 374.151 462.364 374.817C462.364 375.484 464.497 374.684 467.164 373.217L471.964 370.284L471.031 378.017C469.164 393.084 462.231 406.017 451.831 413.751C446.764 417.351 434.497 422.417 430.364 422.417C427.964 422.417 427.964 422.151 429.831 417.484C432.897 410.417 431.297 400.151 426.231 393.084L422.231 387.617L427.031 382.684C436.231 373.351 438.897 367.217 438.897 355.217C439.031 349.217 438.631 342.817 438.097 340.951C437.164 337.617 437.431 337.351 443.431 335.751C464.764 329.884 474.231 320.417 501.964 276.684L505.031 271.751L512.097 275.217C515.831 277.217 519.431 279.351 519.831 280.017ZM368.631 336.284C366.897 337.884 364.897 340.284 364.097 341.617C362.897 343.884 362.364 343.617 357.964 338.951L353.164 333.751L362.764 323.884L367.164 328.684L371.697 333.484L368.631 336.284ZM361.031 363.351C361.031 373.351 361.564 379.751 362.364 379.751C363.164 379.751 363.697 373.217 363.697 362.684V345.751L368.764 339.884L373.697 334.151L383.964 336.417C391.564 338.017 398.897 338.551 414.231 338.151L434.364 337.751L435.831 342.284C437.831 348.151 436.764 364.684 434.097 369.751C432.897 371.884 429.431 376.684 426.364 380.151L420.631 386.551L417.164 383.351C407.031 373.884 383.831 370.151 371.964 376.151C367.964 378.017 367.697 378.017 367.697 376.017C367.697 374.684 366.897 375.351 365.564 377.751C364.497 379.884 363.297 381.884 363.164 382.151C362.897 382.284 361.031 381.084 358.897 379.351C347.564 369.751 324.231 371.617 306.097 383.351L302.364 385.617L297.031 380.417C290.097 373.617 286.364 363.751 286.364 352.017C286.364 336.417 283.964 337.751 314.097 337.751C334.097 337.751 341.564 337.217 345.697 335.751L351.031 333.751L356.097 340.417L361.031 346.951V363.351ZM349.164 377.084C351.831 377.884 355.564 379.884 357.564 381.751C360.897 384.817 361.031 385.351 361.031 401.084C361.031 416.417 360.897 417.351 357.697 420.417C355.431 422.817 352.897 423.751 349.431 423.751C346.631 423.884 335.031 424.151 323.697 424.417C300.897 425.084 297.564 424.284 294.631 417.884C291.964 412.684 293.564 404.284 298.764 395.617C307.564 380.951 331.431 372.151 349.164 377.084ZM406.497 379.351C423.164 386.817 433.564 406.151 427.297 418.417C424.097 424.817 420.497 425.484 392.764 424.417C361.831 423.217 363.697 424.684 363.297 400.817C363.031 382.151 363.164 381.884 374.097 377.617C381.031 374.951 398.764 375.884 406.497 379.351ZM470.364 505.351V512.951L462.764 517.884C458.497 520.684 451.697 524.551 447.697 526.551C440.764 530.017 440.364 530.151 439.964 527.617C439.297 524.151 444.097 514.551 449.431 508.551C454.764 502.551 467.964 494.417 469.297 496.417C469.831 497.084 470.364 501.217 470.364 505.351ZM266.364 501.751C269.831 504.284 274.231 508.417 275.964 510.684C280.364 516.417 286.764 529.084 285.297 529.084C283.831 529.084 258.364 516.017 256.097 514.151C254.231 512.684 253.831 505.217 255.164 500.017C256.364 495.884 259.031 496.284 266.364 501.751ZM476.631 524.284C477.297 528.151 476.764 529.084 472.897 532.017C470.364 533.884 461.964 538.817 454.097 543.084C446.231 547.351 435.831 553.884 430.764 557.617C418.097 567.351 405.164 583.884 396.897 601.084C381.697 632.817 381.164 633.484 367.431 635.617C361.697 636.551 359.031 636.284 353.031 634.017C343.164 630.417 339.431 626.017 330.097 607.084C312.631 571.751 298.097 556.951 264.364 540.017C257.031 536.417 249.964 532.151 248.631 530.684C246.364 528.284 246.364 527.484 247.831 523.084C250.497 515.884 252.497 514.684 257.564 517.617C267.697 523.484 293.164 535.884 301.031 538.951C318.764 545.617 337.031 548.417 361.697 548.417C387.164 548.417 401.164 546.551 419.031 540.817C432.497 536.417 453.964 526.417 465.031 519.351C471.964 514.817 472.364 514.684 474.097 517.217C475.031 518.684 476.231 521.751 476.631 524.284ZM288.231 556.951C304.897 568.817 315.031 581.884 327.964 608.284C337.164 626.817 342.764 633.484 351.964 636.551L358.231 638.551L357.564 644.817C356.231 656.951 348.631 689.884 344.231 703.751C338.364 721.751 323.831 751.084 317.964 756.817L313.431 761.217L312.497 746.951C310.764 719.217 305.964 701.351 286.097 649.217C285.564 647.484 284.631 646.417 284.231 646.684C283.831 647.084 286.897 656.684 291.031 667.884C304.497 705.351 310.364 731.351 310.364 753.751C310.231 795.751 287.297 812.551 261.697 788.951C253.964 781.751 247.431 771.084 243.031 758.017L239.564 747.751L242.764 739.884C244.497 735.484 250.897 723.217 257.031 712.417C268.497 692.284 276.364 673.751 280.364 657.751C281.564 652.551 283.164 647.217 283.831 645.751C285.564 641.617 287.431 611.217 286.897 597.084C286.497 586.417 280.631 553.617 278.897 551.884C277.031 550.017 277.431 554.551 280.631 569.217C285.431 592.284 285.697 624.551 281.297 644.817C275.697 669.884 269.564 685.084 252.631 715.351C246.631 726.151 240.497 738.551 239.031 742.817C235.431 753.617 231.031 758.417 223.697 759.751C220.364 760.417 217.297 760.551 216.764 760.284C214.897 759.084 210.097 744.017 208.364 733.751C202.364 697.884 206.097 664.417 221.164 620.017C229.164 596.684 241.164 573.084 259.164 545.084C261.297 541.884 261.164 541.884 257.964 545.351C253.831 549.751 241.564 569.484 235.697 580.951C233.431 585.617 231.297 589.084 231.031 588.817C230.097 587.884 238.231 554.951 241.697 545.751C243.564 540.551 245.431 535.617 245.697 534.817C246.497 532.551 274.497 547.217 288.231 556.951ZM482.897 547.751C485.964 557.217 489.031 570.817 490.897 583.084C491.697 587.484 490.497 586.017 483.964 573.751C475.297 557.217 465.031 540.684 464.097 541.617C463.831 541.884 466.231 546.684 469.564 552.284C475.564 562.017 490.497 591.084 495.031 601.884C504.897 625.084 514.364 658.684 517.164 680.417C520.364 706.017 516.764 744.151 509.964 756.284C509.164 757.884 508.631 759.484 508.764 760.017C508.897 760.551 508.097 763.084 506.897 765.751C505.831 768.417 504.231 777.617 503.564 786.151C502.764 794.684 501.964 801.884 501.697 802.151C501.431 802.417 499.831 801.617 497.964 800.284C495.297 798.151 494.364 795.084 491.297 778.417C486.897 754.284 486.897 755.084 491.431 758.284C495.697 761.351 504.497 763.084 505.697 761.084C506.231 760.284 505.164 759.751 503.031 759.751C498.497 759.751 491.564 756.684 488.897 753.617C487.697 752.151 486.097 747.751 485.164 743.617C484.231 738.951 480.631 731.217 476.097 723.617C453.831 686.017 442.364 653.217 439.697 619.351C438.097 598.951 439.031 588.551 443.831 568.817C445.964 560.284 447.697 552.817 447.697 552.151C447.564 548.951 444.764 557.084 441.031 571.084C438.764 579.884 434.897 592.284 432.364 598.684C425.431 616.017 416.097 649.617 412.231 670.951C409.297 686.951 408.764 692.284 409.431 706.417C409.697 715.617 410.631 724.551 411.297 726.417C412.231 728.684 412.497 722.951 412.097 707.751C411.431 687.084 411.697 684.551 415.431 665.751C419.564 645.751 429.297 610.151 434.097 598.017L436.631 591.484L437.431 617.351C438.364 646.284 439.297 640.951 425.964 685.751C416.631 716.684 415.031 724.684 413.564 748.017C412.631 761.617 412.497 762.151 410.097 760.684C406.764 758.551 397.031 743.084 390.897 729.751C380.897 708.151 370.897 672.417 367.964 647.617L366.897 638.817L372.631 637.351C381.964 634.817 386.897 628.951 394.897 610.951C404.097 589.884 409.697 581.617 423.564 567.751C433.431 558.017 437.964 554.817 455.697 544.817C479.431 531.617 477.831 531.351 482.897 547.751ZM448.364 670.551C454.364 688.684 461.431 703.884 471.564 720.417C476.097 727.751 480.764 736.951 481.831 740.817C483.831 747.484 483.697 748.284 480.897 756.817C474.231 777.084 464.764 790.417 452.764 796.551C437.697 804.151 424.231 797.617 418.764 780.151C415.697 770.151 415.031 744.151 417.564 728.017C418.631 720.551 423.831 700.151 429.031 682.684C434.231 665.351 438.764 648.684 439.297 645.751L440.097 640.417L441.964 648.417C442.897 652.817 445.831 662.817 448.364 670.551ZM241.831 761.751C247.964 780.284 261.164 795.617 275.164 800.417L279.431 801.884L274.631 809.084C262.897 826.551 245.031 830.284 235.697 817.217C231.831 811.617 231.031 802.417 233.431 789.084C234.497 782.817 235.831 773.884 236.364 769.084C236.764 764.284 237.564 758.951 237.964 757.084C238.497 754.817 238.231 754.151 237.297 755.084C236.497 755.751 234.897 763.084 233.831 771.084C230.897 792.017 230.731 796.551 229.731 801.884C230.231 805.551 229.731 803.051 229.731 805.551C229.731 811.108 232.764 815.484 234.364 829.217C237.031 850.817 243.431 863.751 251.431 863.751C263.831 863.751 281.564 833.617 280.897 813.751C280.497 802.817 280.631 802.417 284.764 802.417C291.697 802.284 299.431 797.617 303.697 790.817C307.964 784.284 311.697 773.484 311.697 768.284C311.697 766.417 313.697 763.751 317.031 761.084L322.364 756.817V764.017C322.364 776.417 319.831 792.951 316.231 804.817C311.697 820.284 298.364 845.351 288.764 857.217C264.764 886.684 260.631 902.951 260.764 969.084C260.897 991.484 261.297 1015.48 261.831 1022.42C262.764 1035.35 266.497 1050.95 269.297 1052.55C270.364 1053.22 270.497 1052.68 269.697 1050.95C265.164 1039.88 264.631 1035.35 263.697 998.417C262.097 944.017 262.231 931.617 263.964 935.751C270.497 950.551 276.231 958.417 280.497 958.417C281.564 958.417 280.364 956.551 277.697 954.151C271.964 949.217 268.364 942.684 265.697 932.151C264.097 925.884 263.964 922.417 265.164 913.751C267.031 899.484 272.097 884.684 278.097 875.751L283.031 868.417L283.964 893.751C285.031 922.284 287.164 946.017 289.164 949.084C290.231 950.551 290.364 950.017 289.831 947.084C289.164 943.751 286.364 903.217 284.631 874.284C284.231 866.951 284.364 866.551 290.497 859.617L296.764 852.551L300.231 863.617C310.497 896.151 309.297 921.084 296.231 948.817C289.431 963.217 289.564 963.217 285.831 975.751C275.164 1011.62 272.231 1034.42 275.431 1055.08C276.764 1063.35 276.631 1064.68 274.497 1067.08C269.964 1072.28 266.631 1079.08 265.697 1085.35C264.497 1093.35 265.697 1093.75 267.697 1086.02C268.497 1082.95 270.631 1078.15 272.497 1075.48C274.231 1072.68 275.697 1069.88 275.697 1069.08C275.697 1068.28 276.231 1067.88 276.897 1068.28C277.564 1068.68 279.431 1076.28 281.031 1085.22C283.564 1098.82 283.831 1102.15 282.497 1106.68C280.631 1112.82 275.297 1115.75 265.831 1115.75C257.697 1115.75 255.964 1116.68 253.031 1122.42C249.297 1129.75 245.431 1132.28 228.897 1137.62C211.964 1143.08 204.364 1143.62 199.297 1139.75C195.297 1136.55 194.364 1136.42 194.364 1138.95C194.364 1142.15 189.164 1139.75 187.031 1135.62C184.497 1130.82 185.297 1128.95 192.497 1123.88C199.697 1118.68 200.231 1117.08 193.431 1121.22C185.431 1125.88 183.697 1127.88 183.697 1132.02C183.697 1136.02 180.364 1137.22 177.297 1134.15C174.497 1131.35 175.564 1127.35 180.097 1122.68L184.364 1118.15L180.231 1120.15C177.964 1121.35 175.031 1124.42 173.831 1127.08C171.831 1131.08 171.164 1131.62 168.897 1130.42C164.897 1128.28 165.697 1122.82 170.631 1118.15C173.031 1116.02 179.431 1111.88 185.031 1109.08C198.631 1102.15 204.097 1097.48 218.364 1080.42C234.897 1060.68 236.364 1057.22 236.097 1040.42C235.964 1026.95 233.297 1008.68 229.831 996.417C226.097 983.351 217.031 952.284 215.031 945.751C211.164 932.817 209.031 918.017 209.031 903.084C209.031 890.551 209.697 885.217 213.297 871.484C215.564 862.551 218.497 852.684 219.697 849.751L221.964 844.417L222.897 851.751C223.297 855.751 224.897 865.084 226.364 872.417C240.364 942.684 241.564 951.484 240.631 976.951C240.097 990.551 240.231 996.417 241.031 993.751C241.831 991.484 242.764 981.884 243.164 972.417C244.231 952.551 243.031 942.017 236.231 907.751C233.697 894.951 231.031 881.084 230.364 877.084C229.697 873.084 228.231 864.951 227.164 859.084C223.564 840.151 222.497 827.617 221.831 798.951C221.431 783.484 220.631 768.951 220.231 766.551C219.431 762.551 219.564 762.151 221.831 762.951C224.897 763.884 231.697 760.017 235.164 755.351C238.097 751.484 238.631 752.151 241.831 761.751ZM486.364 761.084C486.364 763.617 487.564 772.017 489.031 779.751C490.497 787.484 492.097 798.151 492.631 803.351L493.431 812.951L488.231 818.284C476.231 830.151 463.164 827.751 452.897 811.884C447.831 803.884 447.964 801.751 454.097 798.817C465.697 793.351 475.964 779.351 481.964 760.817C484.497 752.951 486.364 753.084 486.364 761.084ZM414.897 772.817C415.964 782.684 421.297 793.484 427.164 798.017C430.497 800.551 433.964 801.751 439.164 802.151C445.164 802.684 446.364 803.084 445.697 804.817C440.764 817.884 448.497 843.617 461.297 856.817C475.831 871.884 485.831 862.151 492.497 826.417C494.364 816.551 495.564 806.817 495.164 804.684C494.231 800.284 495.697 800.151 499.431 804.151C504.231 809.351 504.631 820.417 500.631 837.084C498.631 844.817 496.497 855.617 495.697 861.084C492.897 879.484 486.497 914.951 483.031 930.951C480.364 943.351 479.564 950.551 479.564 964.017C479.564 984.284 480.764 997.351 482.631 996.284C483.431 995.751 483.564 992.151 483.031 987.351C481.031 970.817 482.097 953.084 486.231 931.751C490.364 910.151 501.031 848.551 501.031 846.017C501.031 842.684 503.564 847.617 506.764 857.351C519.164 893.751 518.897 920.017 505.697 959.351C493.431 996.017 488.764 1018.02 488.497 1039.75C488.497 1058.02 488.631 1058.55 504.364 1077.88C519.831 1097.08 525.564 1102.42 539.431 1109.62C546.231 1113.22 553.297 1117.88 555.164 1120.02C558.231 1123.88 559.697 1131.75 557.164 1131.75C556.497 1131.75 555.031 1132.15 553.964 1132.55C552.497 1133.08 551.431 1131.88 550.364 1128.55C549.431 1125.48 547.297 1122.95 545.031 1121.75C539.431 1118.95 539.431 1119.22 544.497 1124.28C549.964 1129.75 550.364 1134.02 545.564 1135.88C543.564 1136.55 541.964 1136.95 541.831 1136.82C540.364 1132.95 537.697 1130.55 532.631 1127.88C524.631 1123.88 522.897 1125.08 530.497 1129.22C537.431 1133.08 539.564 1136.15 537.297 1138.82C534.631 1142.02 511.564 1141.75 504.364 1138.55C501.164 1137.08 495.297 1135.08 491.297 1133.88C484.231 1131.88 480.897 1129.08 474.231 1119.62C472.497 1117.08 470.497 1116.55 461.431 1115.88C443.431 1114.55 440.631 1109.35 445.831 1086.68C447.564 1078.82 449.031 1071.22 449.031 1069.75C449.164 1065.62 458.364 1080.82 459.297 1086.68C459.697 1089.48 460.631 1091.75 461.297 1091.75C462.631 1091.75 461.431 1083.08 459.431 1079.08C458.631 1077.62 455.964 1073.35 453.297 1069.48C448.764 1062.68 448.631 1062.42 450.364 1056.42C452.631 1048.15 451.431 1015.48 448.231 1003.75C446.364 996.684 438.764 975.617 433.697 963.351C433.031 961.617 433.431 961.084 435.564 961.084C440.231 961.084 448.631 956.151 452.497 950.951C454.497 948.417 457.297 943.084 458.497 939.351C459.831 935.484 461.031 932.951 461.031 933.751C461.164 934.417 461.431 954.817 461.697 979.084C462.097 1023.35 461.431 1030.95 456.364 1047.08C455.831 1048.95 456.097 1048.68 457.564 1046.42C458.631 1044.55 460.897 1037.48 462.497 1030.82C465.164 1019.08 465.297 1017.08 463.964 994.151C463.164 980.684 462.897 962.817 463.297 954.284C464.097 937.751 462.231 914.284 458.897 900.017C455.164 884.151 445.431 866.284 429.297 845.751C414.497 826.951 405.297 801.084 404.097 774.684L403.297 758.284L408.631 761.884C413.564 765.084 414.097 765.884 414.897 772.817ZM276.364 828.817C272.231 843.084 263.431 856.417 255.431 860.551C251.831 862.417 251.164 862.417 248.231 860.417C242.631 856.817 239.297 847.084 236.497 826.684L235.564 820.817L239.564 823.617C248.497 830.017 259.031 828.284 269.164 818.817C272.764 815.484 276.097 811.484 276.631 809.884C278.764 804.017 278.497 821.217 276.364 828.817ZM449.031 809.351C449.031 812.151 457.697 822.284 462.497 824.951C471.031 829.884 484.764 827.617 489.697 820.551C492.364 816.817 492.231 819.084 489.031 833.617C486.097 847.084 482.497 855.217 477.697 859.751C474.764 862.417 474.097 862.551 470.364 861.084C462.231 857.751 453.031 844.284 448.497 829.217C446.097 821.084 445.564 807.751 447.697 807.751C448.497 807.751 449.031 808.417 449.031 809.351ZM436.631 858.817C455.431 885.217 463.564 914.817 457.697 935.084C452.497 953.217 435.297 966.684 430.497 956.284C429.697 954.417 429.297 952.284 429.697 951.617C430.231 950.951 429.964 950.417 429.297 950.417C427.297 950.417 420.231 933.351 417.831 922.817C414.231 906.417 415.297 891.884 422.231 867.084C425.697 854.817 427.697 849.084 428.764 849.084C429.297 849.084 432.764 853.484 436.631 858.817Z" fill="black"/>
<path d="M414.363 479.484C409.041 497.217 406.679 504.017 403.889 523.551C403.389 527.051 402.868 537.667 403.276 538.31C404.5 539.597 407.439 508.564 412.743 489.744C415.598 479.77 420.934 471.762 421.342 464.684C422.288 459.884 419.531 467.05 414.363 479.484Z" fill="black"/>
<path d="M282.739 573.607C282.606 574.659 284.333 580.972 286.592 587.887C296.692 619.605 303.735 657.336 306.526 694.315C308.652 723.929 309.051 725.131 308.519 701.831C307.988 677.479 304.533 650.722 298.686 624.866C293.37 601.567 283.004 568.345 282.739 573.607Z" fill="black"/>
<path d="M204.562 1112.8C197.096 1117.47 195.096 1119.47 195.096 1122.67C195.096 1123.6 196.696 1122.67 198.829 1120.53C200.829 1118.4 204.962 1114.93 208.162 1113.07C213.496 1109.6 215.096 1108 212.829 1108.27C212.162 1108.27 208.562 1110.4 204.562 1112.8Z" fill="black"/>
<path d="M509.096 1111.73C514.029 1116.27 523.363 1122.93 523.896 1122.4C524.83 1121.6 517.096 1115.2 511.896 1112.53C509.629 1111.47 508.429 1111.07 509.096 1111.73Z" fill="black"/>
<path d="M437.363 861.068C436.829 861.468 436.429 866.801 436.429 872.668C436.429 882.801 433.229 920.001 431.629 928.801C431.096 932.001 431.229 932.401 432.429 930.535C434.163 927.735 437.496 897.068 438.296 875.735C438.563 867.201 438.696 860.135 438.563 860.135C438.296 860.135 437.763 860.535 437.363 861.068Z" fill="black"/>
<path d="M430.563 935.468C430.163 936.668 429.763 938.401 429.896 939.201C429.896 940.135 430.563 939.335 431.229 937.601C431.896 935.868 432.296 934.135 431.896 933.868C431.629 933.601 431.096 934.268 430.563 935.468Z" fill="black"/>
<path d="M349.031 1.21726C326.631 4.95059 310.631 19.7506 305.697 41.3506C301.964 57.7506 304.097 87.8839 311.164 117.351C312.364 122.284 310.231 122.151 304.897 116.817C299.431 111.217 297.031 105.484 296.231 95.3506C295.564 86.6839 296.497 83.7506 300.231 83.2173C301.431 83.0839 302.497 82.4173 302.497 81.6173C302.497 79.3506 298.231 79.484 295.431 82.0173C293.031 84.1506 292.764 85.4839 293.431 93.7506C293.831 98.8172 295.164 105.617 296.364 108.817C298.631 114.417 307.831 123.751 311.164 123.751C313.964 123.751 315.431 131.617 316.364 151.884L317.297 171.351L310.097 173.617C300.897 176.684 281.297 187.084 277.164 191.084L273.964 194.151L268.764 190.284C262.231 185.617 245.831 179.217 234.631 177.084C221.697 174.551 197.697 176.017 183.031 180.417C176.497 182.284 170.497 184.417 169.964 184.951C169.297 185.617 164.897 184.017 159.964 181.617C148.764 175.884 138.097 173.884 124.364 174.817C113.297 175.617 97.1638 180.684 92.4972 184.817C90.3638 186.817 90.3638 186.284 93.0305 181.084C98.2305 170.817 99.6972 162.817 99.6972 142.951C99.6972 127.617 100.231 122.284 102.364 115.217C105.564 105.217 112.497 92.684 117.431 88.0173L120.764 84.8172L126.097 88.4172C134.097 93.6172 146.764 97.084 158.764 97.084C171.164 97.084 177.431 94.8173 180.364 89.2173C181.431 86.9506 183.031 85.084 183.831 85.084C184.631 85.084 184.764 84.4173 184.231 83.484C183.697 82.5506 183.831 82.4173 184.897 82.9507C187.564 84.684 192.897 80.1506 193.697 75.3506C194.631 70.6839 190.897 56.0173 186.097 45.7506C180.497 33.6172 177.964 32.4171 157.697 32.6838C131.697 33.2171 108.497 37.4839 97.0305 44.0172C94.3639 45.3505 90.3638 49.3506 88.0972 52.8172C84.0972 58.8172 73.5639 75.4839 69.2972 82.4172C68.2305 84.2839 62.3639 91.4839 56.3638 98.4172C37.1638 120.817 19.5638 146.951 15.5638 159.617C14.7638 162.284 13.5638 164.951 13.0305 165.751C12.3638 166.417 10.4972 173.351 8.63051 181.084C6.76384 188.817 3.96384 200.817 2.36384 207.884C0.363837 216.151 -0.436162 222.284 0.230505 225.351C1.56384 232.817 11.1638 240.684 31.0305 250.817C40.6305 255.617 54.6305 262.951 62.3638 267.084C95.1639 284.951 111.697 290.151 139.031 291.351C154.497 292.017 174.097 290.684 179.831 288.417C181.431 287.751 182.897 290.551 186.364 301.351C196.231 332.417 215.564 367.217 236.097 391.351C245.164 401.884 253.031 425.751 253.031 442.684C253.031 446.151 252.097 454.684 251.031 461.617C249.031 474.151 249.697 484.151 252.897 490.284C253.697 491.617 253.964 494.151 253.431 495.884C253.031 497.617 252.364 502.017 252.097 505.751C251.697 509.484 250.364 513.617 249.031 515.084C245.564 518.951 243.697 523.084 243.697 526.817C243.697 528.684 241.297 537.217 238.497 545.884C235.564 554.684 232.231 567.484 230.897 574.417C228.364 589.351 227.031 593.884 219.831 614.417C206.631 652.684 203.031 671.351 203.164 702.417C203.164 724.151 203.431 726.817 207.297 741.351C210.097 752.017 212.497 758.284 214.897 761.084C217.431 764.284 218.364 766.817 218.497 771.484C218.497 774.951 219.031 791.484 219.564 808.417L220.631 839.084L216.764 849.751C208.497 872.817 205.831 885.884 205.831 903.084C205.831 922.151 207.964 933.617 217.031 963.751C229.564 1006.02 232.897 1022.42 233.164 1042.28C233.297 1055.48 231.831 1058.95 218.631 1075.35C204.631 1092.68 195.031 1101.08 181.297 1108.02C168.364 1114.55 163.697 1119.22 163.697 1125.88C163.697 1129.88 164.364 1130.82 168.631 1132.82C171.431 1134.02 173.831 1135.48 174.097 1136.02C174.364 1136.55 176.764 1137.35 179.431 1137.88C182.097 1138.28 185.564 1139.48 187.031 1140.42C189.831 1142.15 195.564 1143.22 207.697 1144.55C214.097 1145.22 217.297 1144.68 229.697 1140.42C246.364 1134.82 250.097 1132.55 255.297 1124.68C259.031 1119.08 259.164 1119.08 268.764 1118.28C276.897 1117.75 279.031 1116.95 281.964 1114.02C287.164 1108.95 287.431 1100.02 283.164 1081.22C281.297 1072.95 279.964 1065.62 280.364 1065.08C280.764 1064.42 280.097 1060.15 278.897 1055.48C273.297 1034.02 282.231 986.417 298.097 951.751C300.231 946.951 303.831 938.017 305.831 931.751C309.297 921.484 309.697 918.684 309.697 902.417C309.697 885.484 309.297 883.351 304.497 866.817L299.431 849.217L307.431 833.484C320.497 807.884 324.631 792.551 324.897 768.417L325.031 753.751L332.231 739.751C340.497 723.484 347.564 705.084 351.697 689.217C355.697 673.217 361.031 646.684 361.031 642.284C361.031 639.484 361.697 638.417 363.431 638.551C364.764 638.551 365.031 638.951 364.097 639.351C362.897 639.751 362.764 640.684 363.697 642.284C364.364 643.617 364.631 645.084 364.231 645.484C363.164 646.417 371.031 682.151 375.697 697.484C380.497 713.484 390.097 736.551 396.364 746.817C400.897 754.417 401.031 754.817 401.031 768.951C401.031 792.151 405.831 810.417 417.964 834.151C421.831 841.751 424.764 848.417 424.364 849.084C423.964 849.617 421.564 857.484 418.897 866.551C415.031 880.151 413.964 886.017 413.431 899.084C412.631 918.151 414.364 926.817 422.364 945.217C442.897 991.884 447.697 1007.48 448.631 1031.88C449.164 1044.28 448.897 1051.62 447.831 1054.55C446.897 1057.08 445.964 1063.22 445.564 1068.42C445.164 1073.48 443.964 1081.08 442.897 1085.22C440.764 1094.02 440.497 1104.82 442.364 1109.62C444.364 1115.08 451.164 1118.42 460.097 1118.42C468.364 1118.42 469.697 1119.22 477.697 1129.62C479.564 1132.15 484.764 1134.55 495.564 1138.42C509.297 1143.22 512.097 1143.75 523.697 1143.75C534.897 1143.75 536.897 1143.35 539.031 1141.08C540.364 1139.62 542.764 1138.42 544.364 1138.42C545.831 1138.42 548.364 1137.48 549.831 1136.42C551.164 1135.35 553.564 1134.42 555.031 1134.42C559.164 1134.42 561.031 1131.75 561.031 1126.28C561.031 1119.48 557.431 1115.75 543.697 1108.28C525.697 1098.55 522.897 1096.15 509.031 1078.95C493.831 1060.02 493.431 1059.35 491.697 1050.42C489.031 1036.15 496.097 996.951 507.031 964.951C520.497 925.351 522.231 901.351 513.831 871.084C511.164 861.617 507.431 851.217 505.697 848.017C502.497 842.417 502.497 842.017 504.364 834.817C505.697 829.884 506.231 820.417 506.231 805.884C506.231 780.951 507.164 774.284 513.564 754.817C520.631 732.417 521.431 726.684 520.764 699.484C519.831 669.217 516.631 652.951 504.231 617.217C498.631 601.217 494.497 586.151 492.364 574.684C490.497 565.084 486.897 550.951 484.364 543.351C481.831 535.884 479.697 528.017 479.697 526.017C479.697 523.884 478.497 519.484 477.164 516.017C472.631 504.951 471.431 493.884 473.964 484.951C475.964 477.617 475.964 476.151 473.697 462.284C470.631 442.951 471.431 429.884 476.897 413.084C480.364 402.417 482.231 398.817 489.164 390.417C509.697 365.484 530.364 328.817 538.364 302.684C542.897 288.151 543.164 287.617 546.364 288.284C568.364 292.817 599.431 292.684 617.431 287.884C630.897 284.284 646.497 277.484 660.764 268.951C667.164 265.084 680.497 257.751 690.364 252.684C717.431 238.684 726.631 229.484 724.631 218.684C721.431 201.751 710.897 165.351 706.364 156.017C698.764 140.017 684.231 118.417 675.831 110.417C664.764 100.017 649.031 78.2839 640.897 62.4172C638.497 57.6172 635.031 52.0172 633.164 50.0172C623.564 39.3505 598.364 33.0838 565.431 33.0838C543.964 33.0838 540.364 34.1506 535.964 41.3506C532.364 47.3506 527.697 61.6173 526.764 69.084C526.097 74.8173 526.364 75.4839 530.364 78.8172C534.097 82.0172 536.497 82.9506 539.431 82.1506C539.964 82.0173 540.631 83.6172 541.031 85.7506C542.364 92.9506 552.231 97.2173 566.364 96.5506C578.497 95.884 590.631 92.9506 598.097 88.8172C606.631 84.0172 605.297 82.9506 616.631 104.817L624.364 119.884L624.497 143.484C624.631 164.284 625.031 168.017 627.564 174.684C629.164 178.951 631.164 182.684 631.831 183.084C632.497 183.617 633.031 184.417 633.031 185.217C633.031 185.884 630.231 185.084 626.764 183.351C605.564 172.684 588.231 172.284 570.097 182.151L561.164 186.951L549.431 183.351C531.164 177.751 518.764 175.484 505.031 175.351C490.231 175.084 478.764 178.017 461.564 186.684L450.631 192.017L441.164 186.551C435.964 183.484 427.031 178.951 421.431 176.551L411.031 172.151L411.164 163.617C411.164 158.951 411.431 148.551 411.564 140.684L411.964 126.284L419.031 119.351C426.497 111.884 429.697 105.217 431.164 93.484C431.964 87.2173 431.697 86.2839 428.631 83.2173C426.631 81.3506 424.097 79.7506 422.764 79.7506C420.631 79.7506 420.364 78.2839 420.364 63.3506C420.364 48.6839 419.964 45.8839 416.364 35.7506C413.031 26.0173 411.297 23.2172 404.364 16.2839C395.431 7.21724 387.031 3.21717 371.964 1.08383C361.697 -0.382833 359.031 -0.382744 349.031 1.21726ZM388.764 8.95053C408.497 18.1505 416.764 33.8839 417.697 63.7506C418.097 75.4839 417.431 83.2172 415.164 96.4172C409.564 127.884 404.364 140.817 391.964 153.484C383.164 162.551 374.231 167.617 364.897 168.684C359.431 169.351 357.164 168.817 349.964 165.351C322.764 151.884 307.431 116.417 307.164 65.7506C307.031 41.6172 309.964 30.9506 319.431 20.8172C331.831 7.61723 342.497 3.61715 364.364 4.15048C377.831 4.41715 379.831 4.8172 388.764 8.95053ZM171.431 35.6172C178.097 35.8838 181.431 40.284 186.897 56.5506C192.764 74.4173 192.897 76.4173 187.697 79.084C185.564 80.1506 183.297 81.084 182.764 81.084C182.097 81.084 180.497 76.5506 179.297 71.2173C176.897 61.2173 173.297 51.0839 172.364 51.8839C172.097 52.1506 173.297 57.4839 175.164 63.6173C176.897 69.7506 178.364 78.0172 178.364 81.8839C178.364 88.5505 178.097 89.3506 174.097 91.7506C171.697 93.2172 167.964 94.4172 165.964 94.4172C162.497 94.4172 162.364 94.1506 163.831 91.484C166.764 86.0173 167.431 79.6173 166.231 70.0173C165.031 60.9506 162.631 52.4173 161.564 53.484C161.297 53.7506 161.964 58.4172 163.164 63.8839C165.564 75.0839 164.897 86.2839 161.697 91.2173C160.097 93.7506 158.497 94.4172 154.497 94.4172C145.564 94.4172 144.497 93.4839 148.364 88.8172C152.497 83.8839 153.564 79.8839 152.497 72.6839C150.897 62.4173 149.031 62.4173 149.964 72.6839C150.631 80.4173 150.364 82.9506 148.497 85.7506C144.631 91.7506 141.297 92.2839 133.031 88.6839C128.897 86.8173 124.897 84.4172 123.964 83.3506C122.497 81.6172 123.164 80.9506 128.897 79.084C132.497 77.884 136.231 76.0173 137.031 74.9507C139.164 72.4173 138.497 72.5506 131.564 75.7506C121.164 80.4172 111.031 78.1506 105.564 69.7506C102.497 65.2172 101.697 66.4173 104.231 71.6173C105.564 74.0173 108.897 76.9506 112.364 78.6839L118.231 81.7506L113.564 87.7506C107.964 94.9506 102.897 104.417 99.4305 114.417C97.1639 120.551 96.7639 124.817 96.8972 140.017C97.1639 160.151 95.8305 167.217 90.2305 178.684C83.5638 192.017 73.4305 200.951 62.6305 202.951L58.2305 203.751L64.3639 196.684C72.0972 187.884 81.5638 168.951 85.0305 155.084C86.4972 149.217 88.6305 135.351 89.6972 124.284C91.8305 102.284 93.5638 96.5506 101.697 85.2173C104.497 81.3506 106.364 78.0173 105.964 77.6173C105.164 76.8173 93.9638 92.4173 92.6305 96.1506C92.0972 97.3506 90.6305 98.8172 89.4305 99.3506C79.1638 102.951 66.7639 109.884 60.8972 115.351C46.7638 128.417 35.6972 150.017 30.0972 174.951C27.9638 185.084 27.6972 188.284 28.8972 194.284C29.6972 198.284 31.2972 202.951 32.3638 204.551C34.0972 207.217 33.9638 207.617 31.0305 209.617C26.6305 212.551 23.4305 218.951 24.4972 223.084C27.0305 233.484 49.5638 243.617 74.6305 245.751C84.6305 246.551 86.8972 246.284 95.5638 243.351L105.431 239.884L115.564 243.351C123.431 246.017 129.297 246.951 141.697 247.484L157.697 248.151L164.364 254.151C167.964 257.351 173.964 261.751 177.697 263.884C185.697 268.417 202.097 272.417 208.631 271.351C217.697 269.751 215.564 268.417 203.964 268.284C194.231 268.284 191.031 267.617 184.497 264.684C175.964 260.684 166.897 254.017 160.097 246.417C157.031 243.084 155.831 242.417 155.697 244.017C155.697 245.884 154.231 246.151 144.097 245.617C127.431 244.817 119.297 242.951 106.497 236.817C97.1638 232.417 92.7639 229.084 81.4305 218.017C73.8305 210.684 67.4305 204.951 67.0305 205.217C65.8305 206.551 84.7638 225.751 93.2972 231.751L102.631 238.284L97.4305 240.551C90.7638 243.484 74.0972 244.417 62.7639 242.417C49.2972 240.151 35.4305 233.884 29.8305 227.617C27.1638 224.817 25.0305 221.884 25.0305 221.217C25.0305 220.684 26.3638 218.151 28.0972 215.617C31.8305 210.151 36.2305 208.551 55.5639 205.884L70.2305 203.751L83.6972 194.284C102.231 181.217 111.831 177.884 130.364 177.884C147.164 177.884 155.031 180.417 167.831 190.284C177.697 197.751 182.497 203.484 189.431 215.884L194.231 224.551L183.297 228.017C177.297 230.017 167.964 232.284 162.631 233.084C138.897 236.551 108.231 227.484 85.0305 210.017C75.5638 202.817 71.8305 200.817 73.6972 203.751C74.0972 204.417 75.1638 205.084 75.8305 205.084C76.6305 205.084 80.3638 207.751 84.0972 211.084C92.7639 218.684 105.164 225.217 120.897 230.417C142.097 237.484 160.631 237.217 184.097 229.617C189.964 227.617 195.031 226.684 195.697 227.217C196.631 228.284 213.964 258.151 218.231 266.151C219.831 269.084 219.431 269.351 206.097 275.617C185.697 285.351 175.564 287.884 154.231 288.684C133.564 289.484 114.631 286.951 99.0305 281.484C88.6305 277.751 68.3639 267.751 56.4972 260.684L48.7639 256.017L54.6305 255.084C61.6972 254.017 74.7638 250.417 74.0972 249.751C73.8305 249.484 70.0972 250.151 65.6972 251.217C51.2972 254.551 44.8972 253.751 30.6305 247.084C14.8972 239.617 5.56384 232.684 3.69717 226.951C2.49717 223.484 2.89717 219.617 5.83051 206.817C12.3638 177.751 15.6972 167.217 23.6972 150.951C32.0972 133.884 40.4972 121.751 58.3638 101.084C64.3639 94.1506 72.4972 82.9505 76.6305 76.4172C93.8305 48.4172 93.8305 48.2838 102.097 44.6838C112.764 40.0171 127.964 36.9506 146.097 35.8839C154.631 35.3506 162.897 35.0839 164.364 35.2173C165.831 35.3506 169.031 35.4838 171.431 35.6172ZM595.831 37.7506C610.497 39.8839 621.964 43.8838 627.697 48.5505C629.831 50.4172 634.364 57.084 637.831 63.484C647.831 81.884 654.497 91.2173 670.364 109.084C696.497 138.417 709.164 161.751 713.964 189.084C715.031 195.351 717.297 204.551 719.164 209.751C721.564 216.417 722.231 220.417 721.697 223.751C720.364 230.817 710.497 239.217 693.564 247.617C685.564 251.617 673.297 258.417 666.364 262.551C645.831 274.951 629.431 282.151 612.764 286.017C599.031 289.084 595.831 289.351 576.364 288.684C552.897 287.884 539.297 285.084 520.631 276.951C510.231 272.417 506.097 269.617 511.697 271.084C513.564 271.484 520.231 271.217 526.364 270.551C540.497 268.684 550.764 263.884 562.097 253.617C568.764 247.617 571.164 246.284 573.831 246.817C579.831 247.884 599.697 244.951 609.297 241.617L618.631 238.284L624.364 240.951C627.431 242.417 631.697 244.017 633.564 244.551C635.431 244.951 637.031 245.884 637.031 246.417C637.031 247.884 653.031 252.817 663.564 254.551C670.097 255.617 673.297 255.617 675.164 254.684C677.164 253.484 676.097 253.217 669.564 253.084C662.764 253.084 640.897 248.017 638.897 246.017C638.497 245.617 644.231 245.351 651.431 245.217C672.231 245.084 690.764 237.751 697.031 227.484C700.764 221.217 700.364 217.484 695.431 212.551C691.297 208.551 688.897 207.641 674.497 203.75C670.097 202.543 666.364 200.017 660.097 193.751C645.964 179.617 639.831 162.817 637.031 130.951C634.897 106.017 632.097 96.8172 622.231 82.2839C617.831 75.6172 617.297 74.1506 618.364 70.5506C619.831 65.2173 618.097 65.0839 616.097 70.4172C615.031 73.0839 612.897 75.2173 609.564 76.5506C604.097 78.8173 599.431 78.4172 587.964 74.4172C584.097 73.0839 581.297 72.4173 581.697 73.084C582.631 74.684 596.497 79.7506 599.697 79.7506C607.297 79.7506 598.497 86.9506 586.497 90.5506C580.764 92.284 580.631 92.2839 576.631 87.7506C572.764 83.4839 572.764 82.9505 573.431 73.8839C574.097 66.2839 573.964 64.9506 572.631 67.084C571.831 68.5506 571.164 73.2172 571.031 77.3506C571.031 83.4839 571.564 85.4839 574.231 88.2839C578.097 92.4172 577.697 93.084 570.631 93.484C559.297 93.884 555.697 84.5506 559.831 65.8839C561.297 59.3505 562.231 53.7506 561.831 53.484C560.764 52.284 556.897 66.8172 556.097 75.3506C555.431 82.2839 555.831 84.2839 558.097 88.2839L560.897 93.084H555.831C552.631 93.084 549.431 92.0172 547.164 90.2839C542.764 86.8172 542.631 81.0839 546.364 65.2173C547.831 59.0839 548.897 53.7506 548.497 53.484C547.831 52.8173 544.231 64.0172 543.031 70.4172C541.564 78.6839 540.897 79.7506 537.964 79.7506C536.231 79.7506 533.564 78.8173 531.964 77.6173C527.964 74.8173 528.097 69.0839 532.497 56.8172C537.031 44.1506 540.364 38.9506 544.764 37.2173C550.231 35.2173 581.431 35.4839 595.831 37.7506ZM630.231 101.751C631.697 106.284 633.564 117.084 634.231 126.551C637.297 163.617 644.764 183.217 661.297 197.617C667.564 202.951 667.964 203.751 665.164 203.751C661.564 203.751 649.564 197.351 642.231 191.484C631.164 182.551 626.097 166.684 627.297 144.684C627.831 135.351 627.431 127.084 626.497 122.551C624.764 114.151 616.364 95.8839 610.497 87.2173C607.564 82.9506 606.764 81.084 608.097 81.084C609.164 81.084 611.431 80.0173 613.164 78.5506L616.231 76.1506L621.964 84.9507C625.031 89.7507 628.764 97.3506 630.231 101.751ZM426.897 84.5506C428.364 88.4173 427.697 99.2173 425.697 105.217C423.564 111.217 421.297 114.417 415.831 119.084L412.631 121.751L413.431 118.417C413.964 116.551 415.564 108.151 417.164 99.7506C418.631 91.3506 420.231 84.0173 420.631 83.484C421.697 81.6173 426.097 82.4173 426.897 84.5506ZM89.4305 111.351C88.0972 130.684 82.6305 159.217 78.3638 169.751C73.4305 181.484 65.8305 193.484 59.5639 199.217C56.0972 202.417 52.8972 203.884 45.8305 205.084C36.7638 206.817 36.6305 206.684 34.2305 203.617C28.4972 196.017 29.8305 178.284 37.8305 155.884C46.4972 131.351 59.5638 115.217 77.5638 106.417C83.5639 103.484 88.7638 101.084 89.2972 101.084C89.6972 101.084 89.8305 105.751 89.4305 111.351ZM409.031 143.751C407.164 164.951 407.431 181.084 409.697 188.551C412.097 196.817 419.031 207.751 421.831 207.751C423.297 207.751 422.631 206.284 419.297 202.417C414.364 196.684 410.364 186.151 410.364 178.951C410.364 174.951 410.631 174.551 412.764 175.751C413.964 176.417 421.297 179.884 429.031 183.484C436.764 187.084 444.497 191.217 446.231 192.684L449.564 195.351L443.697 202.284C438.497 208.417 437.431 209.084 432.497 209.084C420.764 209.217 395.831 216.284 380.897 223.751C374.631 226.951 362.364 240.151 362.364 242.417C362.364 243.084 369.297 234.684 371.431 232.817C376.497 227.751 395.831 218.951 408.364 215.884C434.764 209.217 449.297 208.951 471.831 214.684C484.364 217.884 491.297 218.951 500.497 218.951C511.831 219.084 512.631 219.217 511.431 221.484C510.764 222.817 510.364 230.551 510.497 238.817L510.764 253.751L505.031 264.417C494.631 283.751 482.364 303.217 475.164 312.017C462.097 327.884 450.231 333.484 424.497 335.884C396.497 338.417 374.097 334.017 366.364 324.151C363.831 320.951 363.697 318.817 363.697 283.884C363.697 263.617 363.031 244.951 362.364 242.417C358.631 228.817 330.364 214.151 299.431 209.751C291.831 208.684 285.297 207.751 284.897 207.751C284.497 207.751 282.097 204.951 279.697 201.617L275.297 195.351L278.497 192.817C282.097 190.017 309.431 176.284 314.097 175.084C316.764 174.284 317.031 174.684 317.031 179.484C317.031 187.084 313.831 193.751 306.097 201.884C302.364 205.884 299.964 209.084 300.631 209.084C301.431 209.084 305.031 205.884 308.631 202.017C318.764 191.351 320.364 185.351 319.164 160.551C318.764 149.484 317.964 138.951 317.564 137.084C317.164 135.217 319.031 137.617 321.831 142.284C327.964 152.284 338.631 162.551 348.231 167.351C365.164 176.017 385.164 168.417 400.364 147.617C403.031 144.151 406.097 138.417 407.297 135.084C408.364 131.751 409.564 129.084 409.697 129.351C409.964 129.617 409.564 136.017 409.031 143.751ZM616.231 182.017C625.697 185.351 638.364 191.884 642.497 195.351C643.697 196.417 648.497 199.217 653.031 201.617C660.231 205.484 661.031 206.284 658.497 207.084C656.897 207.484 650.631 212.017 644.631 217.084C620.497 236.817 606.364 243.084 581.431 244.551L566.764 245.484L560.231 252.017C548.897 263.351 533.431 269.084 513.964 269.084C507.031 269.084 506.231 268.817 507.031 266.551C508.897 260.417 529.297 226.551 530.764 227.084C531.697 227.351 540.364 229.084 550.097 230.951C570.364 234.951 587.297 235.351 599.031 232.417C606.497 230.551 642.364 214.017 642.364 212.417C642.364 211.484 628.364 217.751 621.564 221.751C607.031 230.284 582.364 234.817 566.364 232.017C562.364 231.351 552.764 229.617 545.031 228.284C537.297 226.951 530.764 225.751 530.497 225.484C529.697 224.951 532.764 219.217 539.297 208.817C543.697 202.017 546.897 198.817 553.431 194.684C564.631 187.617 579.964 180.017 586.097 178.417C593.164 176.684 605.164 178.017 616.231 182.017ZM238.364 181.084C254.764 185.084 267.431 191.617 275.031 200.017L281.431 207.084L271.564 208.684C266.097 209.484 255.697 211.884 248.364 213.884C231.164 218.551 213.564 219.084 208.497 215.084C196.764 205.617 177.164 194.05 176.631 194.584C176.231 194.85 189.697 202.684 197.031 208.551C205.164 215.084 210.764 220.551 211.564 222.951C212.364 225.084 213.164 231.351 213.164 236.951L213.431 247.084L214.497 238.551C215.297 232.417 215.031 228.684 213.831 224.951L211.964 219.751H223.031C231.164 219.751 238.364 218.684 250.497 215.351C275.297 208.951 297.697 209.484 322.364 217.351C334.631 221.217 348.764 228.817 355.297 235.217L361.031 240.684V320.817L357.697 324.817C350.497 333.351 331.564 338.017 308.897 336.551C284.631 335.084 267.964 329.617 256.364 319.484C249.431 313.351 230.631 285.751 223.031 270.417C220.231 264.951 212.231 250.551 205.031 238.417C197.964 226.284 190.497 213.217 188.497 209.484C186.631 205.617 180.764 198.717 176.631 194.584C172.497 190.584 170.364 187.351 170.631 187.217C170.764 186.951 174.231 185.751 178.097 184.417C197.564 178.151 220.497 176.817 238.364 181.084ZM533.697 181.751C552.231 186.684 555.697 187.884 555.697 188.951C555.697 190.284 532.497 205.751 520.897 212.284C512.897 216.684 511.164 217.084 501.831 217.084C494.764 217.084 486.497 215.751 475.297 212.951C466.364 210.684 455.297 208.817 450.764 208.684C446.097 208.551 442.364 208.017 442.364 207.617C442.364 207.084 445.697 203.351 449.831 199.217C457.831 191.351 469.164 184.951 483.031 180.817C493.031 177.884 521.297 178.284 533.697 181.751ZM538.897 205.351C538.364 206.284 536.897 208.551 535.697 210.417C534.364 212.284 531.964 216.417 530.097 219.751C528.231 223.084 523.564 231.484 519.564 238.417L512.364 251.084L511.964 238.284C511.831 231.351 512.097 224.151 512.764 222.284C513.564 220.284 518.497 216.417 526.497 211.484C540.897 202.951 540.097 203.217 538.897 205.351ZM683.431 208.417C691.564 210.951 698.364 216.151 698.364 220.284C698.364 224.551 691.564 232.017 684.097 236.151C669.831 243.884 643.964 246.284 629.431 241.084C621.297 238.284 619.431 237.084 622.097 236.151C625.031 235.084 637.431 226.151 645.031 219.751C661.431 205.751 667.831 203.884 683.431 208.417ZM230.231 287.884C235.564 296.817 240.764 305.084 241.697 306.284C242.764 307.484 245.697 311.084 248.497 314.417C255.831 323.484 265.431 330.017 276.231 333.351L285.831 336.417L284.631 342.417C281.697 358.151 286.631 375.351 296.364 383.484L301.164 387.351L297.697 392.551C295.431 395.751 293.297 397.617 291.964 397.351C283.431 395.484 273.964 386.551 269.431 376.151C266.897 370.017 263.564 356.684 264.764 357.351C272.364 361.351 281.297 365.217 282.364 364.817C283.164 364.551 279.431 362.284 274.097 359.751C263.164 354.417 257.164 348.951 249.031 336.417C245.831 331.617 243.031 328.017 242.631 328.284C241.697 329.217 247.297 338.017 255.164 347.884C260.497 354.551 262.497 358.284 263.697 364.284C264.497 368.551 265.031 372.284 264.631 372.551C263.031 374.284 250.097 365.884 244.364 359.484L238.097 352.417L239.031 341.751C239.431 335.884 239.964 325.351 240.364 318.417C240.897 306.284 240.764 306.151 239.564 314.417C238.897 319.217 237.697 327.084 236.897 331.884C234.897 343.617 236.097 376.817 238.897 385.751C239.964 389.351 240.764 392.551 240.497 392.684C239.697 393.484 219.297 363.751 210.097 348.417C203.564 337.617 195.431 318.951 189.697 301.617C187.164 293.751 185.164 287.217 185.297 287.084C185.564 286.951 189.964 285.217 195.031 283.217C200.231 281.351 207.431 278.017 211.031 275.751C214.764 273.617 218.364 271.884 219.031 271.884C219.831 271.751 224.897 278.951 230.231 287.884ZM519.831 280.017C520.231 280.684 521.164 281.217 521.831 281.084C524.364 280.551 538.631 285.751 539.297 287.351C540.497 290.284 530.497 317.351 521.964 334.417C517.297 343.617 509.031 358.017 503.431 366.417C492.631 382.684 483.031 394.417 484.231 389.751C485.831 383.751 487.564 372.951 489.031 360.017C490.364 347.884 490.231 344.551 487.697 329.351C484.764 311.884 481.964 304.284 483.297 317.484C483.964 324.684 483.831 325.217 478.097 333.351C469.431 345.484 458.364 355.217 448.097 360.017C443.164 362.417 439.831 364.417 440.764 364.817C441.564 365.084 446.364 363.351 451.297 360.951C461.164 356.284 470.497 347.484 479.164 335.084C481.831 331.084 484.364 327.884 484.497 328.151C484.764 328.284 485.564 332.684 486.364 337.751C487.431 344.551 487.431 350.951 486.364 361.751C484.631 378.684 483.164 384.951 475.697 407.617C468.231 430.151 466.497 443.084 469.431 456.284C472.231 469.084 472.364 482.684 469.697 488.284C468.364 490.951 464.497 494.417 458.631 498.017C447.031 505.217 439.831 515.084 437.297 527.351L436.231 532.417L421.697 537.217C400.764 544.151 379.431 546.951 354.631 546.017C343.831 545.484 331.564 544.417 327.297 543.484L319.431 541.751L314.897 530.417C305.964 508.551 300.764 489.751 300.497 479.084C300.497 473.617 299.031 458.151 298.364 458.151C297.697 458.151 298.364 474.551 298.764 481.351C299.431 494.284 303.697 508.817 312.897 530.284C315.164 535.751 316.764 540.417 316.497 540.684C316.231 540.951 310.231 539.351 303.297 536.951L290.497 532.684L285.831 523.084C279.697 510.817 277.431 507.884 266.097 498.817C260.231 494.151 255.964 489.617 254.764 486.551C252.631 481.751 252.631 481.617 255.164 448.417C256.231 434.551 253.697 419.617 248.497 408.151C243.964 398.417 239.831 381.217 238.497 366.417C237.831 359.484 237.564 353.484 237.697 353.351C237.964 353.084 239.031 354.551 240.097 356.684C243.697 363.484 256.497 373.484 263.031 374.684C264.497 374.817 267.831 378.417 270.497 382.417C276.364 391.484 278.764 393.617 286.764 397.084C291.431 399.217 293.031 400.551 292.497 402.151C290.497 409.617 290.364 413.217 292.231 417.751L294.364 422.684L290.897 421.884C279.164 418.817 266.097 408.284 260.364 397.217C258.631 393.617 256.231 386.284 255.164 380.951C253.564 372.684 253.297 371.884 253.164 376.551C253.031 379.484 253.964 385.217 255.164 389.217C260.897 408.284 273.164 419.617 294.097 425.084C299.164 426.417 299.564 426.817 297.831 428.551C293.297 433.084 293.564 450.284 298.364 458.151C302.364 464.684 307.964 466.817 323.697 467.751C331.431 468.151 337.964 468.417 338.231 468.151C340.097 466.817 335.164 465.751 322.231 465.084C306.097 464.017 302.631 462.417 298.897 453.484C296.631 448.151 296.497 434.817 298.764 430.551C300.364 427.484 300.631 427.484 327.431 426.817C362.764 425.884 361.431 425.217 360.764 444.551L360.364 458.551L347.831 469.751L351.964 476.817C357.031 485.484 361.297 487.751 366.231 484.017C369.831 481.351 371.564 475.084 369.297 472.817C367.564 471.084 358.497 471.084 356.897 472.684C356.097 473.484 358.231 473.884 361.964 473.884C367.431 473.751 368.364 474.151 368.764 476.551C369.031 478.017 367.964 480.284 366.497 481.617C362.231 485.484 358.364 483.884 353.964 476.417L350.097 469.884L355.964 464.817L361.697 459.884L367.431 465.484C374.231 472.151 375.031 470.417 368.231 463.351L363.431 458.417L363.564 444.017C363.697 432.284 364.231 429.484 366.097 427.884C367.964 426.551 373.297 426.284 392.364 426.951C405.831 427.484 418.231 427.217 420.497 426.551C424.631 425.351 424.764 425.484 426.231 430.684C429.564 441.484 427.564 457.084 422.231 461.884C419.697 464.151 413.031 464.951 384.764 466.284C383.431 466.417 382.364 466.951 382.364 467.751C382.364 468.417 383.697 468.817 385.431 468.551C387.031 468.151 394.764 467.884 402.497 467.884C414.897 467.751 417.794 467.351 421.342 464.684C423.589 463.084 426.497 459.884 427.564 457.751C430.231 452.284 431.031 439.484 429.164 432.684C428.231 429.617 427.431 426.551 427.297 425.884C427.164 425.217 429.431 424.417 432.364 424.151C440.364 423.484 453.564 416.417 459.164 410.017C466.497 401.484 471.831 389.217 472.764 378.684C473.297 371.217 474.097 368.817 477.697 364.417C484.497 355.884 484.631 354.551 478.097 361.751C474.764 365.484 469.831 369.751 467.164 371.084C464.497 372.551 462.364 374.151 462.364 374.817C462.364 375.484 464.497 374.684 467.164 373.217L471.964 370.284L471.031 378.017C469.164 393.084 462.231 406.017 451.831 413.751C446.764 417.351 434.497 422.417 430.364 422.417C427.964 422.417 427.964 422.151 429.831 417.484C432.897 410.417 431.297 400.151 426.231 393.084L422.231 387.617L427.031 382.684C436.231 373.351 438.897 367.217 438.897 355.217C439.031 349.217 438.631 342.817 438.097 340.951C437.164 337.617 437.431 337.351 443.431 335.751C464.764 329.884 474.231 320.417 501.964 276.684L505.031 271.751L512.097 275.217C515.831 277.217 519.431 279.351 519.831 280.017ZM368.631 336.284C366.897 337.884 364.897 340.284 364.097 341.617C362.897 343.884 362.364 343.617 357.964 338.951L353.164 333.751L362.764 323.884L367.164 328.684L371.697 333.484L368.631 336.284ZM361.031 363.351C361.031 373.351 361.564 379.751 362.364 379.751C363.164 379.751 363.697 373.217 363.697 362.684V345.751L368.764 339.884L373.697 334.151L383.964 336.417C391.564 338.017 398.897 338.551 414.231 338.151L434.364 337.751L435.831 342.284C437.831 348.151 436.764 364.684 434.097 369.751C432.897 371.884 429.431 376.684 426.364 380.151L420.631 386.551L417.164 383.351C407.031 373.884 383.831 370.151 371.964 376.151C367.964 378.017 367.697 378.017 367.697 376.017C367.697 374.684 366.897 375.351 365.564 377.751C364.497 379.884 363.297 381.884 363.164 382.151C362.897 382.284 361.031 381.084 358.897 379.351C347.564 369.751 324.231 371.617 306.097 383.351L302.364 385.617L297.031 380.417C290.097 373.617 286.364 363.751 286.364 352.017C286.364 336.417 283.964 337.751 314.097 337.751C334.097 337.751 341.564 337.217 345.697 335.751L351.031 333.751L356.097 340.417L361.031 346.951V363.351ZM349.164 377.084C351.831 377.884 355.564 379.884 357.564 381.751C360.897 384.817 361.031 385.351 361.031 401.084C361.031 416.417 360.897 417.351 357.697 420.417C355.431 422.817 352.897 423.751 349.431 423.751C346.631 423.884 335.031 424.151 323.697 424.417C300.897 425.084 297.564 424.284 294.631 417.884C291.964 412.684 293.564 404.284 298.764 395.617C307.564 380.951 331.431 372.151 349.164 377.084ZM406.497 379.351C423.164 386.817 433.564 406.151 427.297 418.417C424.097 424.817 420.497 425.484 392.764 424.417C361.831 423.217 363.697 424.684 363.297 400.817C363.031 382.151 363.164 381.884 374.097 377.617C381.031 374.951 398.764 375.884 406.497 379.351ZM470.364 505.351V512.951L462.764 517.884C458.497 520.684 451.697 524.551 447.697 526.551C440.764 530.017 440.364 530.151 439.964 527.617C439.297 524.151 444.097 514.551 449.431 508.551C454.764 502.551 467.964 494.417 469.297 496.417C469.831 497.084 470.364 501.217 470.364 505.351ZM266.364 501.751C269.831 504.284 274.231 508.417 275.964 510.684C280.364 516.417 286.764 529.084 285.297 529.084C283.831 529.084 258.364 516.017 256.097 514.151C254.231 512.684 253.831 505.217 255.164 500.017C256.364 495.884 259.031 496.284 266.364 501.751ZM476.631 524.284C477.297 528.151 476.764 529.084 472.897 532.017C470.364 533.884 461.964 538.817 454.097 543.084C446.231 547.351 435.831 553.884 430.764 557.617C418.097 567.351 405.164 583.884 396.897 601.084C381.697 632.817 381.164 633.484 367.431 635.617C361.697 636.551 359.031 636.284 353.031 634.017C343.164 630.417 339.431 626.017 330.097 607.084C312.631 571.751 298.097 556.951 264.364 540.017C257.031 536.417 249.964 532.151 248.631 530.684C246.364 528.284 246.364 527.484 247.831 523.084C250.497 515.884 252.497 514.684 257.564 517.617C267.697 523.484 293.164 535.884 301.031 538.951C318.764 545.617 337.031 548.417 361.697 548.417C387.164 548.417 401.164 546.551 419.031 540.817C432.497 536.417 453.964 526.417 465.031 519.351C471.964 514.817 472.364 514.684 474.097 517.217C475.031 518.684 476.231 521.751 476.631 524.284ZM288.231 556.951C304.897 568.817 315.031 581.884 327.964 608.284C337.164 626.817 342.764 633.484 351.964 636.551L358.231 638.551L357.564 644.817C356.231 656.951 348.631 689.884 344.231 703.751C338.364 721.751 323.831 751.084 317.964 756.817L313.431 761.217L312.497 746.951C310.764 719.217 305.964 701.351 286.097 649.217C285.564 647.484 284.631 646.417 284.231 646.684C283.831 647.084 286.897 656.684 291.031 667.884C304.497 705.351 310.364 731.351 310.364 753.751C310.231 795.751 287.297 812.551 261.697 788.951C253.964 781.751 247.431 771.084 243.031 758.017L239.564 747.751L242.764 739.884C244.497 735.484 250.897 723.217 257.031 712.417C268.497 692.284 276.364 673.751 280.364 657.751C281.564 652.551 283.164 647.217 283.831 645.751C285.564 641.617 287.431 611.217 286.897 597.084C286.497 586.417 280.631 553.617 278.897 551.884C277.031 550.017 277.431 554.551 280.631 569.217C285.431 592.284 285.697 624.551 281.297 644.817C275.697 669.884 269.564 685.084 252.631 715.351C246.631 726.151 240.497 738.551 239.031 742.817C235.431 753.617 231.031 758.417 223.697 759.751C220.364 760.417 217.297 760.551 216.764 760.284C214.897 759.084 210.097 744.017 208.364 733.751C202.364 697.884 206.097 664.417 221.164 620.017C229.164 596.684 241.164 573.084 259.164 545.084C261.297 541.884 261.164 541.884 257.964 545.351C253.831 549.751 241.564 569.484 235.697 580.951C233.431 585.617 231.297 589.084 231.031 588.817C230.097 587.884 238.231 554.951 241.697 545.751C243.564 540.551 245.431 535.617 245.697 534.817C246.497 532.551 274.497 547.217 288.231 556.951ZM482.897 547.751C485.964 557.217 489.031 570.817 490.897 583.084C491.697 587.484 490.497 586.017 483.964 573.751C475.297 557.217 465.031 540.684 464.097 541.617C463.831 541.884 466.231 546.684 469.564 552.284C475.564 562.017 490.497 591.084 495.031 601.884C504.897 625.084 514.364 658.684 517.164 680.417C520.364 706.017 516.764 744.151 509.964 756.284C509.164 757.884 508.631 759.484 508.764 760.017C508.897 760.551 508.097 763.084 506.897 765.751C505.831 768.417 504.231 777.617 503.564 786.151C502.764 794.684 501.964 801.884 501.697 802.151C501.431 802.417 499.831 801.617 497.964 800.284C495.297 798.151 494.364 795.084 491.297 778.417C486.897 754.284 486.897 755.084 491.431 758.284C495.697 761.351 504.497 763.084 505.697 761.084C506.231 760.284 505.164 759.751 503.031 759.751C498.497 759.751 491.564 756.684 488.897 753.617C487.697 752.151 486.097 747.751 485.164 743.617C484.231 738.951 480.631 731.217 476.097 723.617C453.831 686.017 442.364 653.217 439.697 619.351C438.097 598.951 439.031 588.551 443.831 568.817C445.964 560.284 447.697 552.817 447.697 552.151C447.564 548.951 444.764 557.084 441.031 571.084C438.764 579.884 434.897 592.284 432.364 598.684C425.431 616.017 416.097 649.617 412.231 670.951C409.297 686.951 408.764 692.284 409.431 706.417C409.697 715.617 410.631 724.551 411.297 726.417C412.231 728.684 412.497 722.951 412.097 707.751C411.431 687.084 411.697 684.551 415.431 665.751C419.564 645.751 429.297 610.151 434.097 598.017L436.631 591.484L437.431 617.351C438.364 646.284 439.297 640.951 425.964 685.751C416.631 716.684 415.031 724.684 413.564 748.017C412.631 761.617 412.497 762.151 410.097 760.684C406.764 758.551 397.031 743.084 390.897 729.751C380.897 708.151 370.897 672.417 367.964 647.617L366.897 638.817L372.631 637.351C381.964 634.817 386.897 628.951 394.897 610.951C404.097 589.884 409.697 581.617 423.564 567.751C433.431 558.017 437.964 554.817 455.697 544.817C479.431 531.617 477.831 531.351 482.897 547.751ZM448.364 670.551C454.364 688.684 461.431 703.884 471.564 720.417C476.097 727.751 480.764 736.951 481.831 740.817C483.831 747.484 483.697 748.284 480.897 756.817C474.231 777.084 464.764 790.417 452.764 796.551C437.697 804.151 424.231 797.617 418.764 780.151C415.697 770.151 415.031 744.151 417.564 728.017C418.631 720.551 423.831 700.151 429.031 682.684C434.231 665.351 438.764 648.684 439.297 645.751L440.097 640.417L441.964 648.417C442.897 652.817 445.831 662.817 448.364 670.551ZM241.831 761.751C247.964 780.284 261.164 795.617 275.164 800.417L279.431 801.884L274.631 809.084C262.897 826.551 245.031 830.284 235.697 817.217C231.831 811.617 231.031 802.417 233.431 789.084C234.497 782.817 235.831 773.884 236.364 769.084C236.764 764.284 237.564 758.951 237.964 757.084C238.497 754.817 238.231 754.151 237.297 755.084C236.497 755.751 234.897 763.084 233.831 771.084C230.897 792.017 230.731 796.551 229.731 801.884C230.231 805.551 229.731 803.051 229.731 805.551C229.731 811.108 232.764 815.484 234.364 829.217C237.031 850.817 243.431 863.751 251.431 863.751C263.831 863.751 281.564 833.617 280.897 813.751C280.497 802.817 280.631 802.417 284.764 802.417C291.697 802.284 299.431 797.617 303.697 790.817C307.964 784.284 311.697 773.484 311.697 768.284C311.697 766.417 313.697 763.751 317.031 761.084L322.364 756.817V764.017C322.364 776.417 319.831 792.951 316.231 804.817C311.697 820.284 298.364 845.351 288.764 857.217C264.764 886.684 260.631 902.951 260.764 969.084C260.897 991.484 261.297 1015.48 261.831 1022.42C262.764 1035.35 266.497 1050.95 269.297 1052.55C270.364 1053.22 270.497 1052.68 269.697 1050.95C265.164 1039.88 264.631 1035.35 263.697 998.417C262.097 944.017 262.231 931.617 263.964 935.751C270.497 950.551 276.231 958.417 280.497 958.417C281.564 958.417 280.364 956.551 277.697 954.151C271.964 949.217 268.364 942.684 265.697 932.151C264.097 925.884 263.964 922.417 265.164 913.751C267.031 899.484 272.097 884.684 278.097 875.751L283.031 868.417L283.964 893.751C285.031 922.284 287.164 946.017 289.164 949.084C290.231 950.551 290.364 950.017 289.831 947.084C289.164 943.751 286.364 903.217 284.631 874.284C284.231 866.951 284.364 866.551 290.497 859.617L296.764 852.551L300.231 863.617C310.497 896.151 309.297 921.084 296.231 948.817C289.431 963.217 289.564 963.217 285.831 975.751C275.164 1011.62 272.231 1034.42 275.431 1055.08C276.764 1063.35 276.631 1064.68 274.497 1067.08C269.964 1072.28 266.631 1079.08 265.697 1085.35C264.497 1093.35 265.697 1093.75 267.697 1086.02C268.497 1082.95 270.631 1078.15 272.497 1075.48C274.231 1072.68 275.697 1069.88 275.697 1069.08C275.697 1068.28 276.231 1067.88 276.897 1068.28C277.564 1068.68 279.431 1076.28 281.031 1085.22C283.564 1098.82 283.831 1102.15 282.497 1106.68C280.631 1112.82 275.297 1115.75 265.831 1115.75C257.697 1115.75 255.964 1116.68 253.031 1122.42C249.297 1129.75 245.431 1132.28 228.897 1137.62C211.964 1143.08 204.364 1143.62 199.297 1139.75C195.297 1136.55 194.364 1136.42 194.364 1138.95C194.364 1142.15 189.164 1139.75 187.031 1135.62C184.497 1130.82 185.297 1128.95 192.497 1123.88C199.697 1118.68 200.231 1117.08 193.431 1121.22C185.431 1125.88 183.697 1127.88 183.697 1132.02C183.697 1136.02 180.364 1137.22 177.297 1134.15C174.497 1131.35 175.564 1127.35 180.097 1122.68L184.364 1118.15L180.231 1120.15C177.964 1121.35 175.031 1124.42 173.831 1127.08C171.831 1131.08 171.164 1131.62 168.897 1130.42C164.897 1128.28 165.697 1122.82 170.631 1118.15C173.031 1116.02 179.431 1111.88 185.031 1109.08C198.631 1102.15 204.097 1097.48 218.364 1080.42C234.897 1060.68 236.364 1057.22 236.097 1040.42C235.964 1026.95 233.297 1008.68 229.831 996.417C226.097 983.351 217.031 952.284 215.031 945.751C211.164 932.817 209.031 918.017 209.031 903.084C209.031 890.551 209.697 885.217 213.297 871.484C215.564 862.551 218.497 852.684 219.697 849.751L221.964 844.417L222.897 851.751C223.297 855.751 224.897 865.084 226.364 872.417C240.364 942.684 241.564 951.484 240.631 976.951C240.097 990.551 240.231 996.417 241.031 993.751C241.831 991.484 242.764 981.884 243.164 972.417C244.231 952.551 243.031 942.017 236.231 907.751C233.697 894.951 231.031 881.084 230.364 877.084C229.697 873.084 228.231 864.951 227.164 859.084C223.564 840.151 222.497 827.617 221.831 798.951C221.431 783.484 220.631 768.951 220.231 766.551C219.431 762.551 219.564 762.151 221.831 762.951C224.897 763.884 231.697 760.017 235.164 755.351C238.097 751.484 238.631 752.151 241.831 761.751ZM486.364 761.084C486.364 763.617 487.564 772.017 489.031 779.751C490.497 787.484 492.097 798.151 492.631 803.351L493.431 812.951L488.231 818.284C476.231 830.151 463.164 827.751 452.897 811.884C447.831 803.884 447.964 801.751 454.097 798.817C465.697 793.351 475.964 779.351 481.964 760.817C484.497 752.951 486.364 753.084 486.364 761.084ZM414.897 772.817C415.964 782.684 421.297 793.484 427.164 798.017C430.497 800.551 433.964 801.751 439.164 802.151C445.164 802.684 446.364 803.084 445.697 804.817C440.764 817.884 448.497 843.617 461.297 856.817C475.831 871.884 485.831 862.151 492.497 826.417C494.364 816.551 495.564 806.817 495.164 804.684C494.231 800.284 495.697 800.151 499.431 804.151C504.231 809.351 504.631 820.417 500.631 837.084C498.631 844.817 496.497 855.617 495.697 861.084C492.897 879.484 486.497 914.951 483.031 930.951C480.364 943.351 479.564 950.551 479.564 964.017C479.564 984.284 480.764 997.351 482.631 996.284C483.431 995.751 483.564 992.151 483.031 987.351C481.031 970.817 482.097 953.084 486.231 931.751C490.364 910.151 501.031 848.551 501.031 846.017C501.031 842.684 503.564 847.617 506.764 857.351C519.164 893.751 518.897 920.017 505.697 959.351C493.431 996.017 488.764 1018.02 488.497 1039.75C488.497 1058.02 488.631 1058.55 504.364 1077.88C519.831 1097.08 525.564 1102.42 539.431 1109.62C546.231 1113.22 553.297 1117.88 555.164 1120.02C558.231 1123.88 559.697 1131.75 557.164 1131.75C556.497 1131.75 555.031 1132.15 553.964 1132.55C552.497 1133.08 551.431 1131.88 550.364 1128.55C549.431 1125.48 547.297 1122.95 545.031 1121.75C539.431 1118.95 539.431 1119.22 544.497 1124.28C549.964 1129.75 550.364 1134.02 545.564 1135.88C543.564 1136.55 541.964 1136.95 541.831 1136.82C540.364 1132.95 537.697 1130.55 532.631 1127.88C524.631 1123.88 522.897 1125.08 530.497 1129.22C537.431 1133.08 539.564 1136.15 537.297 1138.82C534.631 1142.02 511.564 1141.75 504.364 1138.55C501.164 1137.08 495.297 1135.08 491.297 1133.88C484.231 1131.88 480.897 1129.08 474.231 1119.62C472.497 1117.08 470.497 1116.55 461.431 1115.88C443.431 1114.55 440.631 1109.35 445.831 1086.68C447.564 1078.82 449.031 1071.22 449.031 1069.75C449.164 1065.62 458.364 1080.82 459.297 1086.68C459.697 1089.48 460.631 1091.75 461.297 1091.75C462.631 1091.75 461.431 1083.08 459.431 1079.08C458.631 1077.62 455.964 1073.35 453.297 1069.48C448.764 1062.68 448.631 1062.42 450.364 1056.42C452.631 1048.15 451.431 1015.48 448.231 1003.75C446.364 996.684 438.764 975.617 433.697 963.351C433.031 961.617 433.431 961.084 435.564 961.084C440.231 961.084 448.631 956.151 452.497 950.951C454.497 948.417 457.297 943.084 458.497 939.351C459.831 935.484 461.031 932.951 461.031 933.751C461.164 934.417 461.431 954.817 461.697 979.084C462.097 1023.35 461.431 1030.95 456.364 1047.08C455.831 1048.95 456.097 1048.68 457.564 1046.42C458.631 1044.55 460.897 1037.48 462.497 1030.82C465.164 1019.08 465.297 1017.08 463.964 994.151C463.164 980.684 462.897 962.817 463.297 954.284C464.097 937.751 462.231 914.284 458.897 900.017C455.164 884.151 445.431 866.284 429.297 845.751C414.497 826.951 405.297 801.084 404.097 774.684L403.297 758.284L408.631 761.884C413.564 765.084 414.097 765.884 414.897 772.817ZM276.364 828.817C272.231 843.084 263.431 856.417 255.431 860.551C251.831 862.417 251.164 862.417 248.231 860.417C242.631 856.817 239.297 847.084 236.497 826.684L235.564 820.817L239.564 823.617C248.497 830.017 259.031 828.284 269.164 818.817C272.764 815.484 276.097 811.484 276.631 809.884C278.764 804.017 278.497 821.217 276.364 828.817ZM449.031 809.351C449.031 812.151 457.697 822.284 462.497 824.951C471.031 829.884 484.764 827.617 489.697 820.551C492.364 816.817 492.231 819.084 489.031 833.617C486.097 847.084 482.497 855.217 477.697 859.751C474.764 862.417 474.097 862.551 470.364 861.084C462.231 857.751 453.031 844.284 448.497 829.217C446.097 821.084 445.564 807.751 447.697 807.751C448.497 807.751 449.031 808.417 449.031 809.351ZM436.631 858.817C455.431 885.217 463.564 914.817 457.697 935.084C452.497 953.217 435.297 966.684 430.497 956.284C429.697 954.417 429.297 952.284 429.697 951.617C430.231 950.951 429.964 950.417 429.297 950.417C427.297 950.417 420.231 933.351 417.831 922.817C414.231 906.417 415.297 891.884 422.231 867.084C425.697 854.817 427.697 849.084 428.764 849.084C429.297 849.084 432.764 853.484 436.631 858.817Z" fill="black"/>
</svg>
