<svg width="312" height="440" viewBox="0 0 312 440" fill="none" xmlns="http://www.w3.org/2000/svg">
<path d="M86.0294 4.00537C102.529 1.50537 128.029 0.505371 128.029 0.505371C128.029 0.505371 133.766 2.26149 137.529 3.00537C143.495 4.18459 146.948 4.50537 153.029 4.50537C159.111 4.50537 162.518 3.92602 168.529 3.00537C173.45 2.25173 181.029 0.505371 181.029 0.505371C181.029 0.505371 194.406 1.75351 203.029 2.00537C207.128 2.12508 209.434 2.29047 213.529 2.50537C222.024 2.95121 227.083 2.96979 235.029 6.00537C242.068 8.69405 246.191 10.83 251.529 16.0054C257.929 22.2099 261.055 31.0054 262.529 35.0054C264.003 39.0054 265.995 45.0869 266.529 51.5054C267.029 57.5054 265.625 69.1891 265.029 80.5054C264.029 99.5054 261.029 115.005 261.029 115.005C261.029 115.005 273.303 135.854 279.529 150.005C285.871 164.421 292.234 184.505 293.029 188.005C295.529 199.005 298.529 208.005 300.029 226.505C301.53 245.011 301.724 255.442 302.029 274.005C302.225 285.915 302.849 292.623 302.029 304.505C301.029 319.005 297.029 328.505 297.029 328.505C297.029 328.505 310.029 355.505 311.029 365.005C312.133 375.486 308.529 387.005 305.529 400.005C303.766 407.647 303.266 412.546 299.029 419.005C296.529 422.817 295.876 425.059 292.029 427.505C289.52 429.102 288.007 429.818 285.029 430.505C282.175 431.164 280.429 431.418 277.529 431.005C274.715 430.605 273.131 430.152 270.529 429.005C267.555 427.695 266.053 426.553 263.529 424.505C259.006 420.835 256.719 418.173 254.029 413.005C251.23 407.628 250.029 398.005 250.029 398.005C250.029 398.005 250.273 401.979 250.029 404.505C249.74 407.505 247.754 414.451 244.529 420.005C241.742 424.805 240.28 428.135 235.529 431.005C231.232 433.601 223.029 434.005 223.029 434.005C223.029 434.005 218.641 426.586 216.529 421.505C213.874 415.115 212.9 411.288 211.529 404.505C210.129 397.573 209.579 393.796 209.529 386.505C209.477 378.828 210.095 374.048 211.529 366.505C212.883 359.387 214.191 355.371 216.029 348.505C218.835 338.029 221.954 332.797 223.029 322.005C224.095 311.312 222.96 305.211 222.029 294.505C221.029 283.005 224.569 276.005 224.029 274.505C219.529 262.005 215.958 252.694 211.529 239.005C208.374 229.252 206.694 223.891 203.529 214.005C198.464 198.181 189.529 173.505 189.529 173.505C189.529 173.505 180.029 150.505 176.029 141.005C170.733 128.427 169.029 116.505 164.529 108.005C160.029 99.5054 155.529 85.0054 155.529 85.0054C155.529 85.0054 152.508 91.2725 151.529 94.0054C144.803 112.79 144.728 122.375 135.529 140.005C129.529 151.505 125.921 158.789 121.029 171.505C116.029 184.505 107.807 206.066 100.529 228.505C94.5292 247.005 88.0293 269.505 88.0293 269.505C88.0293 269.505 90.4603 284.169 89.5293 294.505C89.1031 299.237 88.0293 305.172 87.0293 306.505C85.241 308.89 83.0294 312.505 83.0294 312.505C83.0294 312.505 86.801 322.521 89.0294 329.005C92.4215 338.876 95.0293 347.005 97.0294 354.505C99.4778 363.686 100.374 369.026 101.029 378.505C101.65 387.468 101.029 397.505 100.529 401.505C99.694 408.186 98.314 411.672 96.0294 418.005C93.0626 426.23 87.0294 438.505 87.0294 438.505C87.0294 438.505 80.5488 436.445 77.0294 434.005C74.4171 432.194 73.0879 430.927 71.0293 428.505C67.9706 424.907 66.8049 422.28 65.0294 418.005C62.9203 412.927 61.0294 404.505 61.0294 404.505C61.0294 404.505 58.4626 412.084 55.5293 416.005C53.7098 418.438 52.7612 419.945 50.5293 422.005C47.3696 424.922 43.5293 427.758 42.0294 428.505C38.7648 430.133 36.9174 431.144 33.0293 431.005C30.6156 430.919 28.8067 430.81 26.5294 430.005C22.9878 428.754 21.046 427.891 18.0293 425.505C15.0126 423.119 11.7742 417.833 10.0288 411.505C6.02906 397.005 0.0292823 379.505 0.529359 366.505C1.17084 349.829 14.5294 326.005 14.5294 326.005C14.5294 326.005 9.52936 305.005 9.52936 294.505C9.52936 284.005 9.01431 268.295 9.52936 251.505C9.93759 238.198 9.26586 230.702 11.0294 217.505C12.1051 209.455 12.7723 204.935 14.5294 197.005C17.629 183.017 20.1217 175.273 25.5294 162.005C29.452 152.381 32.3228 147.272 37.0294 138.005C41.3415 129.516 48.5294 116.505 48.5294 116.505C48.5294 116.505 46.0602 107.125 45.0294 101.005C43.4347 91.5391 43.4312 86.0966 43.0294 76.5054C42.6044 66.3606 42.4873 53.5054 43.0294 50.5054C44.303 43.4558 45.5577 39.5237 48.5294 33.0054C51.4744 26.5454 53.1154 22.6295 58.0294 17.5054C61.5974 13.7847 64.0211 12.0054 68.5294 9.50537C74.7943 6.03117 78.64 5.12498 86.0294 4.00537Z" stroke="black"/>
</svg>
