<svg width="317" height="263" viewBox="0 0 317 263" fill="none" xmlns="http://www.w3.org/2000/svg">
<path d="M40.1026 29.6692C46.7921 18.3992 58.6026 1.66919 58.6026 1.66919L74.6026 10.1692L80.1026 38.1692L89.6021 68.6692C95.0367 88.0251 97.3042 98.7605 100.103 118.669C101.961 131.887 102.43 139.373 103.603 152.669C105.102 169.669 104.602 180.169 104.602 180.169C104.602 180.169 105.283 187.787 106.103 193.669C107.618 204.542 108.727 214.669 108.102 221.669C107.336 230.255 107.196 235.333 103.603 243.169C101.299 248.192 100.031 251.282 96.1026 255.169C92.4834 258.751 89.5688 260.548 84.6021 261.669C81.4611 262.378 80.4396 262.212 77.3903 261.716L77.1021 261.669C73.1994 261.036 70.6229 259.968 67.1021 258.169C59.9539 254.517 51.6026 245.169 51.6026 245.169C51.6026 245.169 46.3661 237.451 43.6026 232.169C39.417 224.169 35.1026 210.669 35.1026 210.669C35.1026 210.669 29.3544 219.316 23.6026 221.669C19.7689 223.238 15.1016 224.169 13.1021 222.669C11.4049 221.396 10.1021 218.669 9.10257 215.169C6.70891 206.787 4.821 202.215 3.10257 193.669C0.589077 181.169 -0.160851 164.997 1.10257 146.669C2.12251 131.873 3.69759 123.604 7.10257 109.169C11.4547 90.719 14.995 80.5322 22.6026 63.1692C28.526 49.6499 32.5687 42.3617 40.1026 29.6692Z" stroke="black"/>
<path d="M259.602 0.669189L244.102 9.16919C244.102 9.16919 243.553 12.5331 243.102 14.6692C242.31 18.4228 241.807 19.8828 240.602 24.1692C237.676 34.5758 236.487 39.9026 233.102 50.1692C229.66 60.6101 226.986 66.209 223.602 76.6692C220.845 85.193 219.418 90.0151 217.102 98.6692C213.685 111.436 211.903 118.655 209.602 131.669C208.193 139.637 207.033 144.09 206.602 152.169C206.353 156.849 206.494 159.484 206.602 164.169C206.806 172.973 207.241 183.669 208.102 186.669C209.262 190.712 212.102 196.669 212.102 196.669C212.102 196.669 211.389 203.06 211.102 207.169C210.653 213.6 210.449 214.786 210.602 219.669C210.688 222.408 210.905 225.498 211.102 226.669C211.858 231.165 211.965 233.755 213.102 238.169C213.764 240.741 214.14 242.194 215.102 244.669C216.62 248.577 217.431 250.938 220.102 254.169C221.951 256.407 223.103 257.693 225.602 259.169C228.42 260.834 230.375 261.12 233.602 261.669C237.644 262.357 240.154 262.278 244.102 261.169L244.192 261.144C247.589 260.19 249.63 259.617 252.602 257.669C256.785 254.928 258.633 252.772 262.102 249.169C265.786 245.343 267.448 242.77 270.102 238.169C273.074 233.017 273.901 229.695 276.102 224.169C278.183 218.946 281.102 210.669 281.102 210.669C281.102 210.669 282.602 213.669 284.102 215.169C285.602 216.669 287.102 217.997 288.602 218.669C292.715 220.513 295.094 222.108 299.602 222.169C302.17 222.204 304.063 221.231 306.102 219.669C307.407 218.669 308.182 217.422 309.102 214.669C311.414 207.75 312.829 203.853 314.102 196.669C315.299 189.915 315.247 186.019 315.602 179.169C316.148 168.639 316.184 162.697 315.602 152.169C315.158 144.138 314.79 139.625 313.602 131.669C311.798 119.582 309.875 112.943 306.602 101.169C302.964 88.081 300.729 80.749 295.602 68.1692C291.471 58.0327 288.65 52.5252 283.684 42.8288L283.602 42.6692C278.302 32.3216 274.933 26.727 269.102 16.6692C265.457 10.3825 259.602 0.669189 259.602 0.669189Z" stroke="black"/>
</svg>
