<svg width="463" height="108" viewBox="0 0 463 108" fill="none" xmlns="http://www.w3.org/2000/svg">
<path d="M5.0647 39.5286C3.03866 42.2785 0.564697 47.0286 0.564697 47.0286C0.564697 47.0286 4.11014 53.717 7.0647 57.5286C11.6356 63.4254 15.3925 65.6818 21.0647 70.5286C27.0929 75.6795 30.5556 78.5005 37.0647 83.0286C43.4703 87.4847 47.2824 89.8781 54.0647 93.5286C59.4472 96.4257 62.4025 98.2255 68.0647 100.529C75.9653 103.742 81.0944 105.028 89.5647 106.029C95.77 106.761 100.565 106.594 105.065 106.029C112.303 105.119 116.198 103.993 123.065 101.529C129.074 99.3723 132.436 98.0403 138.065 95.0286L138.186 94.9638C145.179 91.2221 149.291 89.0221 155.065 83.5286C158.778 79.9955 163.565 73.5286 163.565 73.5286C163.565 73.5286 150.936 70.2893 143.065 67.5286C137.522 65.5845 134.307 64.6779 129.065 62.0286C125 59.9745 122.87 58.5306 119.065 56.0286C113.354 52.274 103.565 46.5286 103.565 46.5286C103.565 46.5286 108.625 41.7707 111.065 39.5286C116.816 34.2438 120.668 32.0101 127.065 27.5286C134.118 22.5874 145.565 15.5286 145.565 15.5286C145.565 15.5286 139.337 11.5409 135.065 9.52858C129.813 7.0549 126.668 6.04695 121.065 4.52858C116.26 3.2266 113.484 2.78925 108.565 2.02858L108.308 1.98886C102.841 1.14338 99.6689 0.652891 94.0647 0.528583C86.8181 0.367844 82.7227 0.887367 75.5647 2.02858C67.0061 3.39309 62.2146 4.58078 54.0647 7.52858C45.9334 10.4696 41.5928 12.7747 34.0647 17.0286C26.945 21.0517 22.8992 23.3566 16.5647 28.5286C11.7508 32.4591 8.75102 34.5252 5.0647 39.5286Z" stroke="black"/>
<path d="M451.565 33.0286C459.065 38.9496 462.065 46.5286 462.065 46.5286C462.065 46.5286 460.916 51.7523 459.065 54.5286C457.065 57.5286 450.34 64.4092 444.065 70.0286C437.635 75.7866 433.762 78.7644 426.565 83.5286C420.365 87.6326 416.551 89.3936 410.065 93.0286C403.662 96.6169 399.9 98.8534 393.065 101.529C386.494 104.1 382.824 104.617 376.065 105.529C368.515 106.547 356.565 106.029 356.565 106.029C356.565 106.029 344.968 104.29 338.065 101.529C333.065 99.5286 316.565 90.7303 314.065 89.0286C309.606 85.9936 307.261 84.0347 303.145 80.596L303.065 80.5286L298.565 73.5286C298.565 73.5286 306.844 71.579 312.065 70.0286C318.399 68.1477 321.993 67.1352 328.065 64.5286C333.923 62.0135 337.026 60.1853 342.565 57.0286C349.2 53.2468 359.065 46.5286 359.065 46.5286C359.065 46.5286 352.944 39.8297 348.565 36.0286C344.141 32.1889 341.442 30.2724 336.565 27.0286C329.506 22.334 317.565 16.5286 317.565 16.5286C317.565 16.5286 327.727 11.1898 334.565 8.52858C342.913 5.27925 347.741 3.57617 356.565 2.02858C364.088 0.709187 368.427 0.458663 376.065 0.528583C386.697 0.625917 392.867 1.01784 403.065 4.02858C412.783 6.89791 417.733 10.0603 426.565 15.0286C437.091 20.9504 445.565 28.2917 451.565 33.0286Z" stroke="black"/>
</svg>
