<svg width="393" height="43" viewBox="0 0 393 43" fill="none" xmlns="http://www.w3.org/2000/svg">
<path d="M15.8853 4.7761C10.8497 6.28799 8.38525 7.27612 4.88525 8.77612C3.98788 9.16071 0.885254 9.7761 0.885254 9.7761C0.885254 9.7761 2.59938 12.0162 3.88525 13.2761C5.36787 14.7288 6.26704 15.4762 7.88525 16.7761C9.45255 18.0351 10.6421 18.2746 12.3853 19.2761C18.6314 22.8646 22.0536 25.0473 27.8853 29.2761C31.4899 31.89 33.1896 33.7925 36.8853 36.2761C40.0817 38.4242 41.7269 40.0728 45.3853 41.2761C49.1135 42.5024 51.4614 42.1919 55.3853 42.2761C59.0995 42.3558 61.1918 42.1769 64.8853 41.7761C70.8243 41.1317 74.0426 40.0212 79.8853 38.7761C86.7417 37.315 90.5212 36.2013 97.3853 34.7761C102.447 33.7251 105.286 33.1255 110.385 32.2761C112.919 31.8541 116.885 31.2761 116.885 31.2761C116.885 31.2761 113.028 26.3123 110.385 23.2761C108.117 20.6705 107.005 19.028 104.385 16.7761C101.058 13.9158 98.777 12.8031 94.8853 10.7761C90.2222 8.34744 87.3586 7.48155 82.3853 5.7761C77.7677 4.19262 75.1657 3.26436 70.3853 2.2761C65.95 1.3592 63.4019 1.11187 58.8853 0.776099C52.9628 0.33582 49.562 0.492156 43.7251 0.760481L43.3853 0.776099C37.1161 1.06402 33.5778 1.25708 27.3853 2.2761C22.8503 3.02236 20.2871 3.45448 15.8853 4.7761Z" stroke="black"/>
<path d="M281.385 21.7761C277.756 25.3953 272.885 31.7761 272.885 31.7761C272.885 31.7761 278.07 32.3482 281.385 32.7761C287.849 33.6105 291.493 34.0067 297.885 35.2761C303.599 36.4107 306.676 37.6216 312.385 38.7761C320.126 40.3414 324.488 41.6673 332.385 41.7761C338.66 41.8625 342.432 42.2614 348.385 40.2761C353.027 38.7281 355.13 36.692 359.385 34.2761C363.724 31.8126 366.19 30.4775 370.385 27.7761C375.214 24.6669 377.854 22.8045 382.385 19.2761C386.212 16.2962 391.885 11.2761 391.885 11.2761C391.885 11.2761 382.574 7.4928 376.385 5.7761C369.485 3.86209 365.476 3.27794 358.385 2.2761C352.364 1.4253 348.961 1.03723 342.885 0.776098L342.877 0.775763C338.005 0.566356 335.253 0.448071 330.385 0.776098C325.866 1.0806 323.321 1.35934 318.885 2.2761C313.079 3.47623 309.892 4.57771 304.385 6.7761C299.762 8.62194 297.107 9.63743 292.885 12.2761C287.946 15.3637 285.51 17.6628 281.385 21.7761Z" stroke="black"/>
</svg>
