<svg width="640" height="56" viewBox="0 0 640 56" fill="none" xmlns="http://www.w3.org/2000/svg">
<path d="M160.063 33.5588C164.968 33.3104 176.063 32.0588 176.063 32.0588C176.063 32.0588 165.185 39.1904 160.063 42.0588C154.277 45.2993 146.864 47.4859 140.563 49.5588C129.545 53.1844 113.472 54.0588 107.063 54.0588C100.655 54.0588 85.2971 53.388 73.0635 51.0588C63.849 49.3045 62.8563 48.8815 54.2913 45.0588L44.8708 42.0588C37.7686 38.8892 35.1128 37.1194 28.0635 33.5588C20.4309 29.7037 1.56348 18.5588 1.56348 18.5588C1.56348 18.5588 22.8252 16.388 31.5635 14.0588C35.4773 13.0157 45.9389 10.9639 45.9389 10.9639C45.9389 10.9639 52.1181 10.3227 55.2597 9.79936C62.2504 8.6348 62.5635 2.05884 62.5635 2.05884C62.5635 2.05884 76.7794 6.84838 80.5635 8.05884C86.9066 10.0879 90.422 9.3029 97.0635 9.79936C105.004 10.3929 114.563 9.79936 114.563 9.79936C114.563 9.79936 122.183 17.2 128.563 21.5588C132.851 24.4876 139.7 28.9435 144.563 30.7614C147.679 31.9259 155.986 33.7654 160.063 33.5588Z" stroke="black"/>
<path d="M476.563 34.0588C473.143 34.0671 461.063 31.7966 461.063 31.7966C461.063 31.7966 468.747 37.0949 472.563 39.0588C475.958 40.8057 484.96 43.8783 489.563 45.5588C498.488 48.817 507.218 50.8497 516.563 52.5588C525.54 54.2005 529.438 54.5588 538.563 54.5588C547.689 54.5588 551.535 54.1278 560.525 52.5588C568.407 51.1832 575.511 49.7002 583.063 47.0588C590.084 44.6034 594.386 42.3343 601.063 39.0588C607.828 35.7407 612.618 33.3686 619.063 29.4674C624.407 26.2332 638.063 17.8219 638.063 17.8219H621.11C617.015 17.8219 612.525 14.4417 607.563 13.7459C601.99 12.9643 600.766 10.6585 594.563 8.50541C589.653 6.801 587.801 5.98493 583.063 3.84718C579.168 2.08922 577.063 0.558838 577.063 0.558838C577.063 0.558838 565.64 4.57957 560.525 6.05884C555.381 7.54618 550.378 7.84662 545.063 8.50541C537.839 9.40107 524.989 10.8345 524.989 10.8345C524.989 10.8345 517.698 19.7727 509.842 24.2269C505.945 26.437 501.898 28.17 497.609 29.4674C493.32 30.7649 483.223 34.0427 476.563 34.0588Z" stroke="black"/>
</svg>
