<svg width="641" height="52" viewBox="0 0 641 52" fill="none" xmlns="http://www.w3.org/2000/svg">
<path d="M23.4951 10.5554L1.49512 11.5554L17.9951 23.0554L37.4951 33.5554L52.4951 40.0554L75.4951 46.5554L98.9951 49.0554L127.995 48.0554L154.995 41.5554L166.495 36.0554L150.495 30.0554L133.495 20.5554L113.995 7.05542L104.995 0.55542L98.9951 2.55542L78.4951 6.05542L57.4951 7.05542L39.9951 6.55542L23.4951 10.5554Z" stroke="black"/>
<path d="M488.995 30.5554C481.418 33.881 469.495 37.5554 469.495 37.5554C469.495 37.5554 478.906 40.7166 484.995 42.5554C491.209 44.432 494.658 45.6516 500.995 47.0554C512.89 49.6903 519.812 50.5808 531.995 50.5554C541.011 50.5367 546.107 50.0684 554.995 48.5554C566.167 46.6536 572.345 44.4796 582.858 40.7798L583.495 40.5554C597.84 35.5082 605.462 31.4898 618.995 24.5554C626.928 20.4906 638.995 13.5554 638.995 13.5554C638.995 13.5554 632.707 12.6265 628.995 12.0554C622.495 11.0554 617.986 10.4223 613.495 9.05542L601.995 5.55542C601.995 5.55542 592.253 6.36621 585.995 6.55542C576.234 6.85054 570.912 6.95957 560.995 6.05542C554.505 5.46371 550.447 4.97709 543.995 4.05542C536.995 3.05542 533.495 1.55542 533.495 1.55542C533.495 1.55542 528.442 6.27695 524.995 9.05542C519.092 13.8145 515.453 16.0813 508.995 20.0554C504.495 22.8248 496.915 27.0796 488.995 30.5554Z" stroke="black"/>
</svg>
