<svg width="126" height="283" viewBox="0 0 126 283" fill="none" xmlns="http://www.w3.org/2000/svg">
<path d="M17.2915 93.5112C10.3628 98.7864 0.791504 108.511 0.791504 108.511C0.791504 108.511 10.74 114.79 17.2915 118.511C24.9619 122.868 29.1131 125.705 37.2915 129.011C45.7709 132.439 59.7915 135.511 59.7915 135.511C59.7915 135.511 62.3135 159.421 65.2915 174.511C67.8222 187.335 68.8393 194.722 73.2915 207.011C77.5751 218.835 80.8213 225.227 87.2915 236.011C93.2915 246.011 98.1857 254.127 106.792 264.011C113.14 271.304 123.792 281.011 123.792 281.011L123.292 260.511L122.792 218.011V163.011C122.792 163.011 122.792 137.011 122.292 127.511C122.06 123.112 121.127 120.466 119.792 116.511C118.001 111.211 115.808 108.819 112.792 104.011C110.197 99.8762 106.292 93.5112 106.292 93.5112C106.292 93.5112 108.387 89.9523 109.792 87.5112C113.028 81.8848 113.598 78.8477 115.792 72.0112C118.775 62.713 119.928 57.6806 121.292 48.0112C122.904 36.5775 124.553 29.5557 124.792 18.0112C124.896 12.9355 123.792 5.01119 123.792 5.01119C123.792 5.01119 121.454 3.30413 119.792 2.51119C116.197 0.796872 113.773 0.426477 109.792 0.511194C106.192 0.587782 100.792 2.51119 100.792 2.51119C100.792 2.51119 100.854 6.47355 100.792 9.01119C100.551 18.8414 100.594 24.5859 97.7915 34.0112C96.169 39.4679 95.005 42.8121 91.7915 47.5112C88.9857 51.6141 87.1102 53.3293 83.2915 56.5112C76.4994 62.1706 71.5521 63.7764 63.7915 68.0112C53.6729 73.5327 47.3344 75.3531 37.2915 81.0112C29.2669 85.5322 24.6198 87.9318 17.2915 93.5112Z" stroke="black"/>
</svg>
