<svg width="183" height="245" viewBox="0 0 183 245" fill="none" xmlns="http://www.w3.org/2000/svg">
<path d="M164.722 102.149C170.752 109.35 181.722 119.149 181.722 119.149V155.149V205.649V244.149C181.722 244.149 175.289 244.171 171.222 243.649C166.98 243.105 164.244 242.367 160.225 241.285L159.722 241.149C152.313 239.154 148.575 237.838 141.222 235.649C136.901 234.363 134.575 233.319 130.222 232.149C124.637 230.648 115.722 229.149 115.722 229.149C115.722 229.149 118.204 224.649 118.722 215.649C119.037 210.159 118.279 207.045 117.222 201.649C115.761 194.196 114.463 190.161 111.222 183.149C107.553 175.212 104.194 169.841 99.2217 162.649C91.677 151.737 86.4336 146.695 77.2217 137.149C70.3187 129.995 65.8702 126.54 59.2217 119.149C49.3486 108.174 43.9842 101.706 36.2217 89.1489C28.7831 77.1158 25.9193 69.5976 20.2217 56.6489C15.3149 45.4976 13.5694 38.8261 8.72168 27.6489C5.73168 20.755 0.72168 10.1489 0.72168 10.1489C0.72168 10.1489 7.82523 8.6366 12.2217 7.14893C18.0998 5.15988 26.7217 0.648926 26.7217 0.648926C26.7217 0.648926 37.8215 16.8677 46.7217 25.6489C55.5357 34.3451 60.3254 40.308 71.7217 45.1489C82.9811 49.9318 90.4905 49.8697 102.722 49.6489C113.602 49.4526 129.722 45.1489 129.722 45.1489C129.722 45.1489 134.045 55.523 137.222 61.6489C142.587 71.9942 146.834 76.9021 153.222 86.6489C157.378 92.9908 159.853 96.3356 164.722 102.149Z" stroke="black"/>
</svg>
