<svg width="64" height="410" viewBox="0 0 64 410" fill="none" xmlns="http://www.w3.org/2000/svg">
<path d="M1.50293 180.405C1.94847 113.424 3.50293 64.4045 3.50316 8.40454C3.50317 6.30149 4.04332 5.69928 5.50342 3.40476C9.00342 -2.09543 25.5034 1.90472 25.5034 1.90472C25.5034 1.90472 25.4222 12.5711 25.5034 19.4048C25.7473 39.9291 26.7761 51.4158 28.0034 71.9048C30.1589 107.888 31.7272 128.056 35.5034 163.905C40.106 207.599 44.9409 229.205 50.5034 275.405C56.0659 321.605 63.0034 393.905 63.0034 393.905C63.0034 393.905 53.5095 396.171 47.5034 397.905C40.7995 399.84 37.1561 401.3 30.5034 403.405C24.8506 405.193 21.7721 406.035 16.0034 407.405C10.2253 408.776 0.503418 409.405 0.503418 409.405C0.503418 409.405 0.837664 357.295 1.00342 323.905C1.28161 267.865 1.12887 236.639 1.50293 180.405Z" stroke="black"/>
</svg>
