<svg width="122" height="140" viewBox="0 0 122 140" fill="none" xmlns="http://www.w3.org/2000/svg">
<path d="M77.4463 58.3099C91.8251 70.2614 121.446 78.3099 121.446 78.3099C121.446 78.3099 121.446 86.3099 114.946 99.3099C110.512 108.178 107.348 113.808 100.946 121.81C89.3463 136.31 77.4463 139.31 77.4463 139.31C77.4463 139.31 63.9719 133.117 55.4463 127.81C41.4574 119.103 34.3504 111.408 22.9463 99.3099C13.5958 89.3903 0.946281 72.8099 0.946281 72.8099C0.946281 72.8099 -0.553719 38.3099 1.94628 30.8099C4.546 23.0108 17.4463 0.809937 17.4463 0.809937C17.4463 0.809937 45.318 28.3931 62.9463 46.3099C68.4667 51.9208 71.393 53.2785 77.4463 58.3099Z" stroke="black"/>
</svg>
