<svg width="529" height="22" viewBox="0 0 529 22" fill="none" xmlns="http://www.w3.org/2000/svg">
<path d="M13.9402 3.14077C8.9022 4.71244 5.54344 5.5912 0.91748 8.14077C0.91748 8.14077 10.3434 15.2401 17.4175 17.3213C24.1799 19.3107 28.388 18.1393 35.4175 18.6634C42.9733 17.579 47.2843 17.2822 54.9175 17.3213C64.3637 17.3695 78.9936 19.6524 78.9936 19.6524C75.8593 16.4007 73.7546 14.343 69.972 11.2817C67.2113 9.04735 66.0094 8.88154 62.9175 7.14074C57.6694 4.18595 54.3153 3.32466 48.4175 2.14074C42.7741 1.0079 41.1685 0.844257 35.4175 0.640741C31.7728 0.511762 28.0367 0.763597 24.4175 1.21569C20.4043 1.71701 17.8028 1.93579 13.9402 3.14077Z" stroke="black"/>
<path d="M465.4 11.9244C461.523 14.0511 459.242 15.302 455.524 17.9923C454.156 18.9825 453.064 19.8191 452.048 20.6766C452.048 20.6766 463.798 16.236 475.917 16.6407C479.44 16.7584 486.916 17.5863 490.417 17.9923C493.932 18.2544 497.393 18.6351 500.917 18.6634C506.41 18.7074 509.757 19.2012 514.917 17.3213C520.629 15.2408 527.486 8.14077 527.486 8.14077C524.809 6.8313 522.417 5.61077 519.417 4.57102C513.861 2.64492 510.76 1.77638 504.917 1.14073C499.479 0.54906 496.781 0.0580667 491.417 1.14068C487.053 2.02162 484.463 2.88581 480.205 4.57102C474.455 6.8467 471.338 8.666 465.917 11.6407L465.4 11.9244Z" stroke="black"/>
</svg>
