<svg width="527" height="44" viewBox="0 0 527 44" fill="none" xmlns="http://www.w3.org/2000/svg">
<path d="M94.4351 28.0492C91.0315 21.0648 88.6355 17.3118 83.7624 11.2726L77.759 4.56193C77.4186 4.20686 77.0915 3.86623 76.7749 3.53778C76.7749 3.53778 62.1449 1.25489 52.6987 1.2066C45.0656 1.16758 40.7545 1.4643 33.1987 2.54875C26.1693 5.95562 21.4003 6.52283 15.1987 11.2726C8.09191 16.7157 0.69873 29.0261 0.69873 29.0261C4.87366 31.2642 7.35833 32.2443 11.7215 34.0888C16.1477 35.96 18.6132 37.0891 23.1987 38.5261C27.9892 40.0273 30.6624 40.61 35.6987 41.5261C41.3615 42.5562 43.9452 42.9141 49.6987 43.0261C57.0099 43.1684 61.5054 42.8488 68.6987 41.5261C73.7333 40.6003 77.2723 39.4216 82.1987 38.0261C88.2271 36.3184 97.1033 34.0888 97.1033 34.0888C97.1033 34.0888 95.5645 30.3668 94.4351 28.0492Z" stroke="black"/>
<path d="M436.629 21.3386C433.711 26.1409 429.959 34.0889 429.959 34.0889C429.959 34.0889 435.241 35.3275 438.631 36.1021C443.315 37.1726 446.492 37.5607 451.199 38.5261C456.906 39.6967 459.927 40.2375 465.699 41.0261C471.401 41.8052 474.945 42.0624 480.699 42.1416C485.655 42.2099 487.813 41.8659 492.699 41.0261C495.875 40.4801 498.598 39.907 501.699 39.0261C507.804 37.2919 509.406 37.1269 515.199 34.5261C519.03 32.8059 521.839 31.3779 525.267 29.6041C525.267 29.6041 522.506 26.4883 520.699 24.5261C515.788 19.1928 512.992 16.3856 507.199 12.0261C500.863 7.25814 495.228 5.54663 488.199 1.87768C484.698 1.47161 477.221 0.643704 473.699 0.526074C461.579 0.121359 449.829 4.56193 449.829 4.56193C448.473 5.70765 447.253 6.89048 445.699 8.52609C441.475 12.9695 439.813 16.0998 436.629 21.3386Z" stroke="black"/>
</svg>
