<svg width="590" height="39" viewBox="0 0 590 39" fill="none" xmlns="http://www.w3.org/2000/svg">
<path d="M13.7271 9.7895C9.18751 13.045 1.05322 19.1844 1.05322 19.1844C1.05322 19.1844 4.71913 20.4379 6.05322 21.109C7.38731 21.78 7.5988 21.9882 8.55322 22.609C10.6941 24.0015 11.6972 25.059 13.7271 26.609C16.8315 28.9794 21.7316 32.6057 21.7316 32.6057C21.7316 32.6057 26.7112 35.8174 30.0532 37.609C30.0532 37.609 37.4464 25.2986 44.5532 19.8555C50.7548 15.1057 55.5238 14.5385 62.5532 11.1316C55.5238 10.6075 51.3156 11.779 44.5532 9.7895C37.4791 7.70832 28.0532 0.609009 28.0532 0.609009C25.0116 2.28537 23.9301 2.79099 21.0646 4.7565C18.1991 6.72201 16.5512 7.76425 13.7271 9.7895Z" stroke="black"/>
<path d="M564.553 5.10897C561.542 3.32471 559.87 3.09426 556.702 1.60897C555.981 1.27103 555.293 0.937223 554.622 0.609009C554.622 0.609009 547.764 7.70907 542.053 9.7895C536.893 11.6694 533.545 11.1757 528.053 11.1316C524.529 11.1034 521.068 10.7227 517.553 10.4606C524.583 14.1295 530.218 15.841 536.553 20.609C542.346 24.9685 545.142 27.7757 550.053 33.109C551.86 35.0712 554.622 38.187 554.622 38.187L568.709 31.2636C572.172 29.2979 574 28.0022 577.38 25.8951C581.558 23.2905 588.053 19.1844 588.053 19.1844C588.053 19.1844 584.739 18.1062 582.717 17.1712C578.777 15.35 576.968 13.5778 573.378 11.1316C569.668 8.60299 568.415 7.39703 564.553 5.10897Z" stroke="black"/>
</svg>
