<svg width="626" height="57" viewBox="0 0 626 57" fill="none" xmlns="http://www.w3.org/2000/svg">
<path d="M26.0605 16.8489C16.5605 23.349 1.06055 31.8489 1.06055 31.8489C1.06055 31.8489 12.2002 37.6537 19.0605 41.8488C27.3312 46.9065 42.6991 50.8408 58.5605 53.5C69.9584 55.4109 88.0605 55.8488 88.0605 55.8488C86.4967 53.3772 81.9864 49.9421 82.5605 45.3488C83.0605 41.349 92.5462 33.646 100.061 27.3489C108.487 20.2876 123.561 11.8489 123.561 11.8489C123.561 11.8489 118.095 9.16295 114.561 7.849C108.946 5.76201 105.875 4.78692 100.061 3.34885C92.6076 1.50558 88.2607 1.11803 80.5605 0.848999C73.122 0.589111 68.8994 0.607613 61.5605 1.84885C54.6029 3.02563 50.6137 3.73156 44.0605 6.34885C36.503 9.36728 32.7769 12.2534 26.0605 16.8489Z" stroke="black"/>
<path d="M536.061 35.3488C542.561 41.3488 544.061 47.3488 544.061 47.3488C544.061 47.3488 558.373 49.4743 567.561 49C580.145 48.3504 585.595 45.3751 599.061 42C609.529 39.3762 624.561 31.3489 624.561 31.3489C621.731 30.7025 620.223 30.0051 617.561 28.8489C609.96 25.548 607.086 21.2439 600.061 16.8489C593.388 12.674 589.851 9.81629 582.561 6.84885C575.454 3.95631 568.084 1.91424 563.561 1.34886C559.561 0.848877 548.905 0.0274351 539.561 0.84885C531.626 1.54631 527.049 2.13338 519.561 4.84885C513.157 7.17112 504.061 12.8489 504.061 12.8489C504.061 12.8489 514.456 18.6047 520.561 22.8489C527.047 27.3584 530.255 29.9902 536.061 35.3488Z" stroke="black"/>
</svg>
