<svg width="688" height="45" viewBox="0 0 688 45" fill="none" xmlns="http://www.w3.org/2000/svg">
<path d="M19 1.12436C15.0753 1.12436 12.5 1.62448 9 2.12448C7.25469 2.37381 4.90783 3.58076 3 5.62436C1.38995 7.34898 0.50002 8.76499 0.5 11.1244C0.49998 13.4838 1.78904 14.808 3 16.6245C4 18.1245 11.375 25.1245 14 26.6245C17.5 28.6245 24.5138 32.0791 31.5 34.6243C38.4862 37.1696 51.3584 41.5246 65 43.1245C71.8752 43.9308 79.9756 43.9737 89 43.4349C93.7579 43.1508 98.7726 42.7051 104 42.1243C117.5 40.6245 128 37.1243 128 37.1243C128 37.1243 121.696 30.1752 118.5 25.1244C118.5 25.1244 100.398 24.6864 89 22.7755C73.1386 20.1163 57.7707 16.182 49.5 11.1244C42.6397 6.92916 31.5 1.12436 31.5 1.12436H19Z" stroke="black"/>
<path d="M567.5 27.6244C563.745 32.3997 556.5 38.6243 556.5 38.6243C556.5 38.6243 563.171 40.3105 567.5 41.1243C574.104 42.3658 579.245 42.9974 584.5 43.3149C589.2 43.5989 593.99 43.6315 600 43.6243C612.535 43.6094 619.636 43.189 632 41.1243C639.896 39.8057 644.338 38.9444 652 36.6243C660.225 34.1339 668.5 31.461 672.5 29.1245C676.851 26.5829 679.925 25.3173 683 21.1245C685.016 18.3745 686.877 15.4968 687 13.1245C687.123 10.7522 686.652 9.20162 685.5 7.12436C684.359 5.06825 681 3.12436 681 3.12436C681 3.12436 674.435 1.22203 669 0.62436C663.565 0.0266847 660.33 1.84167 655 0.62436C655 0.62436 639.968 8.65174 629.5 11.2755C616.034 14.6506 610.585 17.6259 598 18.2755C588.812 18.7498 574.5 16.6244 574.5 16.6244C574.5 16.6244 570.648 23.6219 567.5 27.6244Z" stroke="black"/>
</svg>
