<svg width="260" height="49" viewBox="0 0 260 49" fill="none" xmlns="http://www.w3.org/2000/svg">
<path d="M129.151 31.6212C129.151 31.6212 133.335 36.6685 136.345 39.0361C140.971 42.6748 143.189 42.9306 148.845 44.5361C156.802 46.7946 162.396 47.0978 170.656 47.4845C178.88 47.8696 184.127 47.0302 192.345 46.5361C199.322 46.1166 202.57 46.258 209.345 44.5361C215.505 42.9706 218.901 41.8231 224.345 38.5361C230.588 34.7671 233.411 32.2134 238.512 26.9943C246.193 19.1366 249.396 13.5697 255.641 4.52122C256.47 3.32013 257.86 1.53608 258.602 0.411072C254.732 3.09057 251.897 5.14206 247.845 7.53608C237.792 13.4759 231.837 16.4435 220.845 20.3846C204.361 26.2951 194.309 27.7316 176.845 29.0361C165.941 29.8506 159.623 30.8815 148.845 29.0361C140.888 27.6737 129.064 23.0361 129.064 23.0361M129.151 31.6212C129.151 31.6212 125.659 35.2049 123.845 37.0361C121.23 39.677 119.635 40.8151 116.345 42.5361C111.078 45.2909 106.655 45.2951 100.845 46.5361C95.0357 47.7771 79.3452 47.5361 69.8452 47.0361C60.3452 46.5361 53.7528 46.2219 44.1655 42.8577C36.3427 40.1127 31.6964 38.3924 25.3452 33.0361C20.3241 28.8015 17.9817 25.5045 13.8606 20.3846C8.2223 13.3797 4.91557 8.16053 0.422852 1.03608C0.422852 1.03608 7.6571 5.05752 12.3452 7.53608C22.3578 12.8296 27.747 16.3907 38.3452 20.3846C52.0532 25.5504 60.2772 27.497 74.8452 29.0361C86.8845 30.308 93.8619 30.7574 105.845 29.0361C115.115 27.7045 129.064 23.0361 129.064 23.0361M129.151 31.6212L129.064 23.0361" stroke="black"/>
</svg>
