<svg width="342" height="103" viewBox="0 0 342 103" fill="none" xmlns="http://www.w3.org/2000/svg">
<path d="M170.868 94.84C170.868 94.84 156.919 99.5084 147.649 100.84C135.666 102.561 128.688 102.112 116.649 100.84C102.081 99.301 93.857 97.3544 80.149 92.1885C69.5508 88.1947 64.1615 84.6336 54.149 79.34C49.4609 76.8615 42.2266 72.84 42.2266 72.84C41.7177 72.0329 41.1935 71.2014 40.649 70.34C32.7523 57.8484 29.8786 50.311 22.649 37.84L0.430176 0.340027C0.430176 0.340027 6.59023 7.44211 11.149 11.34C18.0239 17.2184 22.5169 19.8788 30.649 23.84C39.3644 28.0855 44.8554 29.0809 54.149 31.84C63.229 34.5357 68.3868 35.8588 77.649 37.84C89.6404 40.4051 96.5271 40.9868 108.649 42.84C119.377 44.4801 125.313 46.2349 136.149 46.84C142.972 47.2211 146.901 47.9221 153.649 46.84C160.42 45.7542 170.326 41.34 170.326 41.34M170.868 94.84C170.868 94.84 182.692 99.4776 190.649 100.84C201.427 102.685 207.745 101.655 218.649 100.84C236.112 99.5355 246.164 98.099 262.649 92.1885C273.641 88.2474 279.595 85.2798 289.649 79.34C293.701 76.946 296.536 74.8945 300.405 72.215C308.108 60.5366 310.906 53.1512 318.149 39.84C324.435 28.2886 333.504 12.6746 340.767 0.340027C340.767 0.340027 334.27 7.34579 329.649 11.34C323.295 16.8323 319.566 19.9003 312.149 23.84C303.913 28.2147 298.569 29.1184 289.649 31.84C280.59 34.6043 275.414 35.8719 266.149 37.84C253.777 40.4682 246.666 41.0192 234.149 42.84C222.644 44.5136 216.261 46.2818 204.649 46.84C198.213 47.1494 194.529 47.7419 188.149 46.84C180.937 45.8205 170.326 41.34 170.326 41.34M170.868 94.84L170.326 41.34" stroke="black"/>
</svg>
