<svg width="372" height="74" viewBox="0 0 372 74" fill="none" xmlns="http://www.w3.org/2000/svg">
<path d="M188.354 49.4378C188.354 49.4378 186.125 45.2122 185.354 44.4378C182.523 41.5984 181.497 40.4936 178.854 38.4378C176.225 36.3932 174.928 35.5113 171.854 33.9378C166.933 31.4196 164.41 29.67 159.354 27.4378C152.651 24.479 148.193 23.3924 140.854 21.4378C134.673 19.7918 131.189 18.816 124.854 17.9378C119.231 17.1585 116.027 17.0971 110.354 16.9378C106.45 16.8282 104.244 16.5968 100.354 16.9378C95.5955 17.3549 93.028 18.3202 88.3535 19.3012C82.0824 20.6172 78.6387 21.6907 72.3535 22.9378C65.3634 24.3247 61.4646 25.4715 54.3535 25.9378C47.2424 26.4041 40.5104 25.9433 36.976 24.589C33.4416 23.2346 31.8897 21.5612 28.8535 19.3012C25.7723 17.0077 23.9269 15.2418 20.8535 12.9378C18.0369 10.8264 16.2014 9.71972 13.3535 7.93781C8.91188 5.15868 0.353516 0.437805 0.353516 0.437805C0.353516 0.437805 10.3535 10.4378 14.8535 18.9378C16.2253 21.5289 17.4603 23.8119 18.6347 25.9378C18.6347 25.9378 24.7948 33.0399 29.3535 36.9378C36.2285 42.8162 40.7215 45.4765 48.8535 49.4378C57.569 53.6833 63.0599 54.6787 72.3535 57.4378C81.4335 60.1335 86.5913 61.4565 95.8535 63.4378C107.845 66.0029 114.732 66.5846 126.854 68.4378C137.581 70.0779 143.518 71.8327 154.354 72.4378C161.177 72.8189 165.106 73.5199 171.854 72.4378C178.625 71.352 188.531 66.9378 188.531 66.9378M188.354 49.4378C188.354 49.4378 190.791 46.6952 192.354 44.9378C193.916 43.1804 196.354 40.4378 196.354 40.4378C196.354 40.4378 202.041 35.4681 206.354 32.9378C212.217 29.4974 222.854 25.9378 222.854 25.9378C222.854 25.9378 234.694 22.0315 242.522 20.4378C249.404 19.0368 252.872 18.1968 259.854 17.4378C268.31 16.5184 272.898 16.8131 280.854 17.4378C290.563 18.2003 296.254 20.52 305.354 22.4378C312.763 23.9995 317.293 24.8533 324.854 25.25C328.194 25.4252 331.526 25.5864 334.854 25.25C338.519 24.8794 342.854 23.4378 344.354 22.9378C345.854 22.4378 356.354 15.9378 356.354 15.9378L370.854 5.93781C370.854 5.93781 365.684 14.537 358.972 25.9378C358.972 25.9378 352.474 32.9436 347.854 36.9378C341.5 42.4301 337.771 45.4981 330.354 49.4378C322.118 53.8125 316.773 54.7162 307.854 57.4378C298.794 60.2021 293.619 61.4697 284.354 63.4378C271.981 66.066 264.87 66.617 252.354 68.4378C240.849 70.1114 234.466 71.8796 222.854 72.4378C216.417 72.7472 212.734 73.3397 206.354 72.4378C199.141 71.4183 188.531 66.9378 188.531 66.9378M188.354 49.4378L188.531 66.9378" stroke="black"/>
</svg>
