<svg width="294" height="246" viewBox="0 0 294 246" fill="none" xmlns="http://www.w3.org/2000/svg">
<path d="M45.5822 40.1187C43.2763 37.8963 40.5822 33.6187 40.5822 33.6187C40.5822 33.6187 32.762 46.1371 28.5825 54.1187C22.4204 65.8865 19.2138 72.1686 14.5825 84.6187C9.41133 98.5202 7.33986 106.545 4.58221 121.119C1.44977 137.673 1.88338 147.29 1.08221 164.119C0.200064 182.649 0.582501 199.619 0.582358 211.619C0.58225 220.654 1.09663 226.432 3.58221 235.119C4.66992 238.92 7.08221 244.619 7.08221 244.619C7.08221 244.619 16.5697 228.636 26.0822 212.119C35.5947 195.601 43.5822 181.119 49.5822 169.619C54.4462 160.296 56.4745 154.496 60.0822 144.619C63.4719 135.339 68.0822 120.619 68.0822 120.619C68.0822 120.619 68.564 128.858 69.0822 134.119C70.1271 144.727 71.0697 150.651 73.0822 161.119C75.0138 171.165 79.0822 186.619 79.0822 186.619C79.0822 186.619 88.5822 153.619 96.0822 134.119C103.023 116.073 105.588 105.442 113.082 87.6187C117.993 75.9396 119.438 68.7965 126.582 58.1187C132.885 48.6975 146.082 36.1187 146.082 36.1187C146.082 36.1187 162.259 50.4212 169.082 62.1187C175.929 73.8568 182.521 93.5413 189.607 114.701L190.082 116.119C195.125 131.175 197.461 140.423 202.582 155.119C207.463 169.125 216.582 189.619 216.582 189.619C216.582 189.619 219.929 174.131 221.582 164.119C222.964 155.754 223.972 151.074 224.582 142.619C225.243 133.465 224.582 119.119 224.582 119.119C224.582 119.119 228.747 132.844 231.582 140.619C235.669 151.827 237.626 156.766 242.582 167.619C247.538 178.471 256.582 193.119 265.082 207.119C273.582 221.119 278.582 231.119 288.582 244.619C288.582 244.619 293.082 232.408 293.082 224.119C293.082 215.119 293.294 205.614 293.082 193.119C292.768 174.555 293.557 157.119 292.082 144.619C290.385 130.24 289.196 122.304 285.582 108.119C281.953 93.8757 279.405 85.6141 273.582 72.1187C269.535 62.7373 266.917 57.7247 262.082 48.6187C258.47 41.8159 252.582 31.1187 252.582 31.1187C252.582 31.1187 250.734 34.8634 249.082 37.1187C246.557 40.5653 244.373 41.8645 240.743 44.0229L240.582 44.1187C235.624 47.0681 232.214 48.3671 226.582 49.6187C222.082 50.6187 217.379 51.1436 211.082 51.1187C204.979 51.0944 196.082 49.6187 196.082 49.6187C196.082 49.6187 184.213 47.4263 177.582 44.1187C173.267 41.9659 167.082 37.6187 167.082 37.6187C167.082 37.6187 162.513 33.948 160.082 31.1187C155.978 26.3427 154.503 22.9317 152.082 17.1187C149.442 10.7789 147.582 0.118652 147.582 0.118652C147.582 0.118652 143.949 14.9776 138.082 23.6187C134.356 29.1066 131.791 33.012 126.582 37.1187C121.161 41.3927 117.541 43.1809 111.082 45.6187C103.809 48.3637 97.8112 49.7856 90.0822 50.6187C81.346 51.5603 77.2646 50.9694 68.5822 49.6187C62.5917 48.6867 57.5825 47.3287 55.0822 46.1187C51.5233 44.3963 48.7417 43.1637 45.5822 40.1187Z" stroke="black"/>
</svg>
