<svg width="225" height="136" viewBox="0 0 225 136" fill="none" xmlns="http://www.w3.org/2000/svg">
<path d="M65.5367 3.00537C74.1322 2.26988 87.5367 1.00537 87.5367 1.00537C87.5367 1.00537 97.8617 4.39511 105.037 5.00537C111.266 5.53516 115.326 5.71945 121.537 5.00537C128.88 4.16105 140.037 0.505371 140.037 0.505371C140.037 0.505371 161.453 1.95908 175.037 4.00537C177.537 4.38199 187.328 4.69451 194.537 7.50537C201.151 10.0847 204.973 12.0293 210.037 17.0054C215.292 22.1698 217.237 26.1894 220.037 33.0054C222.555 39.1386 223.225 42.925 224.037 49.5054C225.065 57.8407 223.887 62.6141 223.537 71.0054C223.145 80.3881 223.039 85.6682 222.037 95.0054C221.173 103.05 220.997 110.505 218.537 115.505C216.382 119.885 215.001 122.231 211.537 125.505C209.037 127.868 202.912 131.017 197.037 133.005C192.037 134.697 186.775 134.789 180.037 135.005C173.958 135.2 170.525 134.972 164.537 134.005C156.911 132.775 152.631 131.561 145.537 128.505C139.353 125.842 135.511 123.543 130.537 119.005C127.36 116.107 125.834 114.788 123.537 111.505C120.581 107.282 119.952 104.292 118.037 99.5054C115.743 93.7725 113.037 84.5054 113.037 84.5054C113.037 84.5054 110.482 98.3762 106.037 106.005C103.303 110.696 101.402 113.193 97.5367 117.005C93.8667 120.626 91.4504 122.342 87.0367 125.005C81.5706 128.304 77.6247 129.583 71.5367 131.505C66.0367 133.242 59.1864 134.603 52.0367 135.005C45.786 135.357 43.558 134.625 37.5367 134.005C32.3939 133.476 29.4626 133.074 24.5367 131.505C21.5309 130.548 19.747 130.119 17.0367 128.505C14.1797 126.804 12.0367 124.674 10.5367 123.005C8.47288 120.709 7.37543 119.287 6.03666 116.505C5.31482 115.005 3.53666 105.505 3.53666 105.505C3.53666 105.505 2.12056 94.5539 1.53666 87.5054C0.939338 80.2948 0.646696 76.2398 0.536659 69.0054C0.420806 61.3885 0.534898 53.0054 1.53666 49.0054C2.99182 43.195 3.79153 40.2912 6.03666 35.0054C7.57291 31.3885 8.4621 29.3427 10.5367 26.0054C13.3219 21.5248 15.0914 19.008 19.0367 15.5054C23.6194 11.4368 26.8113 9.69078 32.5367 7.50537C37.939 5.44325 41.3185 5.36604 47.0367 4.50537C54.2043 3.42652 58.3146 3.62333 65.5367 3.00537Z" stroke="black"/>
</svg>
