<svg width="312" height="149" viewBox="0 0 312 149" fill="none" xmlns="http://www.w3.org/2000/svg">
<path d="M43.3711 21.6943C40.4428 14.7767 34.3711 4.69434 34.3711 4.69434C34.3711 4.69434 23.598 22.1866 16.8716 33.6943C13.4739 39.5072 11.1829 42.5763 8.37158 48.6943C4.76213 56.5494 1.42123 66.1943 0.871459 70.6943C0.232112 75.9275 0.544363 77.9324 0.871091 83.1943C1.59967 94.9281 6.87136 113.194 6.87136 113.194C6.87136 113.194 9.18577 124.503 13.3714 130.694C15.0795 133.221 15.9779 133.804 18.3714 135.694C21.6719 138.301 24.3714 139.787 27.3714 140.194C31.8592 140.804 34.6166 140.747 38.8714 139.194C43.2469 137.598 45.4674 135.874 48.8714 132.694C52.2753 129.515 56.2231 124.694 57.8714 120.694C59.3329 117.147 60.3714 113.194 60.3714 113.194C60.3714 113.194 60.8238 116.551 61.8714 120.194C63.3241 125.247 64.3967 128.556 66.8714 133.194C69.3186 137.782 71.6966 140.095 75.8714 143.194C79.9868 146.249 86.8714 147.694 86.8714 147.694C86.8714 147.694 90.5478 139.748 92.3714 134.694C95.4976 126.031 97.781 122.266 99.3714 113.194C100.787 105.117 101.003 100.371 100.371 92.1943C99.8399 85.3113 99.6778 80.9731 98.3711 74.1943C96.0663 62.2375 93.5588 55.7994 89.8711 44.1943C86.8041 34.5426 81.3711 19.6943 81.3711 19.6943C81.3711 19.6943 77.7676 23.3068 75.8714 26.1943C73.5626 29.7101 72.6804 32.1972 71.3711 36.1943C69.4395 42.0916 68.8153 45.1591 67.3714 51.1943C65.5421 58.8401 64.7998 66.6943 62.8711 71.1943C61.6744 73.9863 57.3711 76.6943 57.3711 76.6943C57.3711 76.6943 56.0804 73.367 55.3711 71.1943C52.9586 63.8044 53.1061 59.272 51.3711 51.6943C48.6649 39.8751 48.0978 32.8602 43.3711 21.6943Z" stroke="black"/>
<path d="M238.871 35.1943C235.999 27.691 229.871 16.6943 229.871 16.6943C229.871 16.6943 225.372 22.6943 220.371 39.6943C217.79 48.4687 216.02 53.3043 213.871 62.1943C211.396 72.431 209.665 78.1928 208.871 88.6943C208.179 97.8476 208.415 103.131 209.872 112.194C211.195 120.43 212.342 125.136 215.872 132.694C218.28 137.853 222.871 145.194 222.871 145.194C222.871 145.194 229.276 144.117 232.871 142.194C236.178 140.425 237.481 139.085 239.872 136.194C241.878 133.768 242.956 132.007 244.371 129.194C246.458 125.048 247.792 121.194 248.372 118.194C249.224 113.785 249.372 107.694 249.372 107.694C249.372 107.694 249.795 112.259 250.871 115.694C252.074 119.536 252.795 121.745 254.871 125.194C256.523 127.938 257.643 129.394 259.871 131.694C262.778 134.696 264.62 136.353 268.371 138.194C271.309 139.637 272.634 140.212 275.872 140.694C278.962 141.155 280.307 141.304 283.372 140.694C286.039 140.164 287.58 139.659 289.872 138.194C292.783 136.334 294.299 135.458 296.372 132.694C300.511 127.173 303.372 115.694 303.372 115.694C303.372 115.694 307.372 99.1943 309.372 89.6943C310.3 85.2831 310.904 79.6708 310.372 75.1943C309.81 70.4726 309.508 69.1588 307.872 64.6943C304.419 55.275 302.259 51.1133 297.782 42.4855L297.372 41.6943C293.902 35.006 291.69 31.6897 287.871 25.1943C282.421 15.9241 274.371 1.19434 274.371 1.19434C274.371 1.19434 270.636 11.0713 268.372 17.6943C264.877 27.9147 263.527 34.1104 261.371 44.6943C259.468 54.0383 258.372 65.1078 256.372 69.6943C253.989 75.1585 248.871 81.6943 248.871 81.6943C248.871 81.6943 247.952 76.2099 247.371 72.6943C246.178 65.4731 245.966 61.3376 244.371 54.1943C242.688 46.6553 241.633 42.4084 238.871 35.1943Z" stroke="black"/>
</svg>
