<svg width="172" height="220" viewBox="0 0 172 220" fill="none" xmlns="http://www.w3.org/2000/svg">
<path d="M13.6694 9.45947C9.18581 6.0508 0.669434 1.95947 0.669434 1.95947L5.16943 26.4595C5.16943 26.4595 8.72804 34.6079 10.6694 39.9595C15.0789 52.1145 16.1994 59.3751 19.1694 71.9595C22.5559 86.3085 24.5162 94.3743 26.6694 108.959C28.2756 119.839 28.8047 125.996 29.6694 136.959C30.6532 149.431 31.1694 168.959 31.1694 168.959C31.1694 168.959 31.4399 173.838 31.6694 176.959C32.4475 187.54 34.2897 193.357 34.6694 203.959C34.8511 209.033 34.6694 216.959 34.6694 216.959C34.6694 216.959 40.6263 212.545 43.6694 208.959C47.0718 204.951 48.0936 202.043 50.6694 197.459C55.5474 188.78 57.7666 183.619 61.6694 174.459C66.8747 162.243 69.5983 155.25 73.1694 142.459C76.5473 130.362 77.7494 123.373 79.6694 110.959C80.9023 102.989 82.1694 90.4595 82.1694 90.4595H87.6694C87.6694 90.4595 90.3928 110.693 93.1694 123.459C95.6153 134.705 97.1773 140.993 100.669 151.959C103.443 160.67 105.219 165.494 108.669 173.959C111.902 181.891 113.415 186.526 117.669 193.959C121.571 200.776 123.875 204.658 129.169 210.459C132.242 213.826 137.669 218.459 137.669 218.459C137.669 218.459 137.083 210.539 137.169 205.459C137.229 201.94 137.363 199.966 137.669 196.459C137.96 193.13 138.669 187.959 138.669 187.959C138.669 187.959 136.654 183.766 135.669 180.959C134.994 179.036 134.564 177.96 134.169 175.959C133.827 174.225 133.84 173.219 133.669 171.459C132.523 159.604 132.678 152.829 133.669 140.959C134.276 133.694 134.94 129.645 136.169 122.459C138.438 109.202 140.625 101.935 144.169 88.9595C147.669 76.1496 149.797 68.9983 154.169 56.4595C156.916 48.583 159.055 44.3808 161.669 36.4595C164.09 29.1241 165.314 24.958 167.169 17.4595C168.751 11.0652 170.669 0.959473 170.669 0.959473C170.669 0.959473 160.62 6.58065 154.669 11.4595C148.9 16.19 145.709 18.9582 140.669 24.4595C135.498 30.104 132.814 33.523 128.669 39.9595C124.603 46.2755 119.669 56.9595 119.669 56.9595C119.669 56.9595 115.692 66.0399 112.669 71.4595C109.926 76.3784 107.169 81.8466 105.169 83.4595C103.397 84.8889 102.123 85.8916 100.169 86.9595C98.0022 88.1442 96.3394 88.4618 94.1694 88.9595C90.5085 89.7991 88.9242 90.0518 85.1694 89.9595C81.3793 89.8663 79.245 89.2202 75.6694 87.9595C71.7156 86.5654 69.4011 85.6302 66.1694 82.9595C63.0665 80.3951 59.6694 74.9595 59.6694 74.9595C59.6694 74.9595 53.1694 62.7865 51.6694 59.9595C46.7537 50.6948 44.6335 44.5866 38.6694 35.9595C34.2474 29.563 31.5912 26.0339 26.1694 20.4595C21.6357 15.7981 18.8459 13.3949 13.6694 9.45947Z" stroke="black"/>
</svg>
