<svg width="312" height="179" viewBox="0 0 312 179" fill="none" xmlns="http://www.w3.org/2000/svg">
<path d="M9.15831 19.3271C11.4751 12.3406 16.1583 1.82715 16.1583 1.82715C16.1583 1.82715 17.031 8.53724 17.6582 12.8271C20.3895 31.5085 23.3849 41.803 26.6583 60.3271C29.8372 78.3167 33.0213 88.1324 34.6582 106.327C35.3589 114.116 35.71 119.007 35.6582 126.827C35.5843 138 35.1583 146.827 33.6583 154.827C32.3371 161.873 24.6583 170.827 24.6583 170.827C24.6583 170.827 21.608 159.553 19.6583 152.327C16.9189 142.175 15.4977 136.452 12.6583 126.327C9.47157 114.964 6.57886 108.878 4.15831 97.3271C2.6176 89.975 1.80451 85.8112 1.15831 78.3271C0.368834 69.1838 0.196514 63.9539 1.15831 54.8271C1.84468 48.3139 2.75765 44.7249 4.15831 38.3271C5.79919 30.8321 6.74335 26.6098 9.15831 19.3271Z" stroke="black"/>
<path d="M97.6583 32.8271C95.4888 24.0132 90.6583 10.8271 90.6583 10.8271C90.6583 10.8271 82.0482 20.9019 77.1583 27.8271C72.5023 34.4212 69.7197 38.0831 66.1583 45.3271C63.0224 51.7056 61.4272 55.4431 59.6583 62.3271C57.8921 69.2008 57.5375 73.7404 57.1583 80.8271C56.9183 85.3118 56.8484 89.8271 57.1583 91.8271C57.8486 96.282 58.8236 98.7094 60.6583 102.827C62.403 106.743 65.4028 111.327 66.1583 112.327C68.2407 115.083 69.4582 116.672 72.1583 118.827C76.6676 122.426 85.6583 124.827 85.6583 124.827C85.6583 124.827 87.1328 119.552 88.6583 115.827C92.6163 106.162 98.1737 94.3271 99.1583 90.3271C100.486 84.9343 101.068 81.8496 101.658 76.3271C102.55 67.9784 102.308 63.1982 101.658 54.8271C100.985 46.1537 99.7376 41.2746 97.6583 32.8271Z" stroke="black"/>
<path d="M231.158 20.3271C227.162 14.637 220.158 6.32715 220.158 6.32715C216.644 18.8239 213.638 25.5845 211.158 38.3271C209.539 46.6487 208.517 51.3571 208.158 59.8271C207.819 67.8352 207.946 72.4041 209.158 80.3271C210.254 87.4896 211.362 91.455 213.658 98.3271C216.788 107.692 224.158 121.327 224.158 121.327C224.158 121.327 228.132 122.146 230.658 121.827C233.109 121.518 234.483 120.996 236.658 119.827C239.103 118.514 240.205 117.299 242.158 115.327C245.932 111.518 247.287 108.757 249.658 103.827C252.042 98.8719 253.371 95.7692 254.158 90.3271C254.92 85.0586 254.648 81.9409 254.195 76.7527L254.158 76.3271C253.5 68.7731 252.4 64.5708 250.158 57.3271C247.778 49.6362 245.824 45.4953 242.158 38.3271C238.408 30.9923 235.893 27.069 231.158 20.3271Z" stroke="black"/>
<path d="M288.158 39.8271C290.634 25.7571 294.658 3.82715 294.658 3.82715C294.658 3.82715 301.185 16.9537 304.158 25.8271C307.408 35.5275 308.798 41.1876 310.158 51.3271C311.457 61.0113 311.192 66.5708 310.658 76.3271C310.02 87.9945 308.065 94.0097 305.158 105.327C302.332 116.332 300.044 122.481 296.658 133.327C291.366 150.281 285.158 177.327 285.158 177.327C285.158 177.327 278.286 166.255 276.158 156.327C274.658 149.327 274.068 138.707 274.158 129.327C274.231 121.702 274.193 117.391 275.158 109.827C275.735 105.305 276.333 102.81 277.158 98.3271C279.071 87.9322 280.673 82.2084 282.658 71.8271C285.04 59.3729 285.961 52.3153 288.158 39.8271Z" stroke="black"/>
</svg>
