<svg width="439" height="47" viewBox="0 0 439 47" fill="none" xmlns="http://www.w3.org/2000/svg">
<path d="M131.349 6.61918C125.806 4.67512 122.592 3.76854 117.349 1.11918C117.349 1.11918 111.527 5.80855 107.349 8.0906C99.9787 12.1166 95.0586 12.8174 86.8494 14.5906C70.431 18.137 60.4952 17.8401 43.8494 15.5906C33.7138 14.2208 28.0413 12.8862 18.3494 9.61916C11.126 7.18419 0.340332 2.0906 0.340332 2.0906C3.0404 4.59643 5.82521 6.60781 9.34942 9.61916C15.3776 14.7701 18.8403 17.591 25.3494 22.1192C31.755 26.5753 35.5671 28.9687 42.3494 32.6192C47.732 35.5163 50.6872 37.3161 56.3494 39.6192C64.25 42.8328 69.3791 44.119 77.8494 45.1192C84.0547 45.8519 88.8494 45.6843 93.3494 45.1192C100.588 44.2101 104.483 43.0833 111.349 40.6192C117.358 38.4629 120.72 37.1309 126.349 34.1192L126.47 34.0544C133.464 30.3127 137.576 28.1127 143.349 22.6192C147.062 19.0861 151.849 12.6192 151.849 12.6192C151.849 12.6192 139.221 9.37986 131.349 6.61918Z" stroke="black"/>
<path d="M300.349 9.11918C306.683 7.23834 310.278 6.22578 316.349 3.61918C318.894 2.52666 320.919 1.56375 322.849 0.565247C328.317 3.50408 331.069 5.82944 336.849 8.0906C342.63 10.3518 349.475 11.8305 358.349 13.0906C369.974 14.7412 377.621 15.1353 389.349 14.5906C401.405 14.0307 408.176 12.6791 419.849 9.61916C427.152 7.70498 438.226 3.61918 438.226 3.61918C436.329 5.47084 434.317 7.35703 432.349 9.11918C425.919 14.8772 422.047 17.855 414.849 22.6192C408.649 26.7232 404.836 28.4842 398.349 32.1192C391.946 35.7075 388.184 37.944 381.349 40.6192C374.778 43.1911 371.108 43.7076 364.349 44.6192C356.8 45.6373 344.849 45.1192 344.849 45.1192C344.849 45.1192 333.253 43.3806 326.349 40.6192C321.349 38.6192 304.849 29.8209 302.349 28.1192C297.891 25.0842 295.546 23.1253 291.43 19.6866L291.349 19.6192L286.849 12.6192C286.849 12.6192 295.128 10.6696 300.349 9.11918Z" stroke="black"/>
</svg>
