<svg width="456" height="45" viewBox="0 0 456 45" fill="none" xmlns="http://www.w3.org/2000/svg">
<path d="M15.1416 28.5286C10.3276 32.4591 7.32788 34.5252 3.64156 39.5286C2.90428 40.5293 2.10768 41.7949 1.39258 43C1.39258 43 14.3452 35.6356 23.1416 32C32.6151 28.0845 37.2832 25.8091 47.1416 23C55.4764 20.625 61.0145 19.3279 69.6416 18.5C78.6015 17.6402 83.8001 18.3119 92.6416 20C98.4114 21.1017 101.541 22.2293 107.142 24C113.278 25.9402 122.642 29.6018 122.642 29.6018C123.585 28.9567 124.578 28.2737 125.642 27.5286C132.694 22.5874 144.142 15.5286 144.142 15.5286C144.142 15.5286 137.914 11.5409 133.642 9.52858C128.389 7.0549 125.245 6.04695 119.642 4.52858C114.837 3.2266 112.061 2.78925 107.142 2.02858L106.885 1.98887C101.418 1.14338 98.2458 0.652891 92.6416 0.528583C85.3949 0.367844 81.2996 0.887367 74.1416 2.02858C65.583 3.39309 60.7915 4.58078 52.6416 7.52858C44.5103 10.4696 40.1696 12.7747 32.6416 17.0286C25.5219 21.0517 21.476 23.3566 15.1416 28.5286Z" stroke="black"/>
<path d="M425.142 15.0286C435.668 20.9504 444.142 28.2917 450.142 33.0286C451.962 34.4654 453.517 35.9999 454.828 37.5C454.828 37.5 436.911 30.5786 425.142 27.0286C418.744 25.099 411.822 23.5092 408.642 22.5C403.675 20.9241 400.793 20.2839 395.642 19.5C390.8 18.7632 388.039 18.5288 383.142 18.5C377.855 18.4689 374.872 18.7306 369.642 19.5C362.473 20.5545 358.498 21.6565 351.642 24C346.44 25.7777 338.642 29.3943 338.642 29.3943C337.58 28.6588 336.438 27.8905 335.142 27.0286C328.082 22.334 316.142 16.5286 316.142 16.5286C316.142 16.5286 326.304 11.1898 333.142 8.52858C341.49 5.27925 346.318 3.57617 355.142 2.02858C362.664 0.709187 367.004 0.458663 374.642 0.528583C385.273 0.625917 391.444 1.01784 401.642 4.02858C411.36 6.89791 416.31 10.0603 425.142 15.0286Z" stroke="black"/>
</svg>
