<svg width="352" height="40" viewBox="0 0 352 40" fill="none" xmlns="http://www.w3.org/2000/svg">
<path d="M73.354 7.7981C68.691 5.36943 65.8273 4.50355 60.854 2.7981C58.1003 1.85381 56.0635 1.14252 53.854 0.512573C53.854 0.512573 40.2219 2.96034 31.854 5.79812C24.3997 8.32606 20.1838 9.88524 13.354 13.7981C8.20533 16.7478 0.854004 22.4363 0.854004 22.4363C2.54071 23.5701 4.29754 24.8069 6.354 26.2981C9.95868 28.912 11.6583 30.8145 15.354 33.2981C18.5505 35.4462 20.1956 37.0948 23.854 38.2981C27.5822 39.5244 29.9302 39.2139 33.854 39.2981C37.5683 39.3778 39.6606 39.1988 43.354 38.7981C49.293 38.1537 52.5113 37.0432 58.354 35.7981C65.2105 34.337 68.99 33.2233 75.854 31.7981C80.9159 30.7471 83.7544 30.1475 88.854 29.2981C91.3874 28.8761 95.354 28.2981 95.354 28.2981C95.354 28.2981 91.497 23.3343 88.854 20.2981C86.5858 17.6925 85.4737 16.05 82.854 13.7981C79.5264 10.9378 77.2458 9.82505 73.354 7.7981Z" stroke="black"/>
<path d="M259.854 18.7981C256.225 22.4173 251.354 28.7981 251.354 28.7981C251.354 28.7981 256.539 29.3702 259.854 29.7981C266.318 30.6325 269.962 31.0287 276.354 32.2981C282.068 33.4327 285.144 34.6436 290.854 35.7981C298.595 37.3634 302.957 38.6893 310.854 38.7981C317.129 38.8845 320.901 39.2834 326.854 37.2981C331.496 35.7501 333.599 33.714 337.854 31.2981C342.193 28.8346 344.659 27.4995 348.854 24.7981C350.193 23.9356 349.764 24.2548 350.854 23.522C350.854 23.522 337.9 17.0871 329.354 13.522C322.225 10.548 315.87 8.24587 310.854 6.522C303.25 3.90888 290.854 0.907592 290.854 0.907592C288.334 1.6648 285.964 2.55651 282.854 3.79809C278.231 5.64394 275.575 6.65942 271.354 9.29809C266.414 12.3857 263.979 14.6848 259.854 18.7981Z" stroke="black"/>
</svg>
