<svg width="393" height="28" viewBox="0 0 393 28" fill="none" xmlns="http://www.w3.org/2000/svg">
<path d="M15.8853 4.7761C10.8497 6.28799 8.38525 7.27612 4.88525 8.77612C3.98788 9.16071 0.885254 9.7761 0.885254 9.7761C0.885254 9.7761 2.59938 12.0162 3.88525 13.2761C5.36787 14.7288 6.26704 15.4762 7.88525 16.7761C9.45255 18.0351 10.6421 18.2746 12.3853 19.2761C16.4288 21.5991 19.2888 23.3331 22.3853 25.4143C22.3853 25.4143 29.7366 19.7258 34.8853 16.7761C41.7151 12.8632 45.931 11.3041 53.3853 8.77612C61.7532 5.93835 75.3853 3.49058 75.3853 3.49058C73.8896 3.06417 72.3149 2.67502 70.3853 2.2761C65.95 1.3592 63.4019 1.11187 58.8853 0.776099C52.9628 0.33582 49.562 0.492156 43.7251 0.760481L43.3853 0.776099C37.1161 1.06402 33.5778 1.25708 27.3853 2.2761C22.8503 3.02236 20.2871 3.45448 15.8853 4.7761Z" stroke="black"/>
<path d="M330.385 0.776098C325.866 1.0806 323.321 1.35934 318.885 2.2761C316.358 2.79843 314.327 3.30207 312.385 3.88559C312.385 3.88559 324.781 6.88689 332.385 9.5C337.402 11.2239 343.756 13.526 350.885 16.5C359.431 20.0651 372.385 26.5 372.385 26.5C375.224 24.5911 379.111 21.8257 382.385 19.2761C386.212 16.2962 391.885 11.2761 391.885 11.2761C391.885 11.2761 382.574 7.4928 376.385 5.7761C369.485 3.86209 365.476 3.27794 358.385 2.2761L342.877 0.775763C338.005 0.566356 335.253 0.448071 330.385 0.776098Z" stroke="black"/>
</svg>
