<svg width="463" height="62" viewBox="0 0 463 62" fill="none" xmlns="http://www.w3.org/2000/svg">
<path d="M103.565 28.9028C103.565 28.9028 108.625 24.145 111.065 21.9029C115.86 17.4967 119.335 15.2115 124.065 11.9761C124.065 11.9761 114.702 8.31449 108.565 6.37427C102.964 4.60353 99.8348 3.47595 94.0649 2.37427C85.2235 0.686136 80.0249 0.0144362 71.0649 0.874273C62.4379 1.70216 56.8998 2.99927 48.5649 5.37427C38.7066 8.1834 34.0385 10.4588 24.5649 14.3743C15.7686 18.0098 2.81596 25.3743 2.81596 25.3743C1.56596 27.4809 0.564941 29.4028 0.564941 29.4028C0.564941 29.4028 4.11038 36.0913 7.06494 39.9029C8.79591 42.1359 10.4101 43.8469 12.0559 45.3743C12.0559 45.3743 22.8415 50.4679 30.0649 52.9028C39.7569 56.1699 45.4293 57.5045 55.5649 58.8743C72.2107 61.1238 82.1465 61.4207 98.5649 57.8743C106.774 56.1011 111.694 55.4002 119.065 51.3743C123.243 49.0922 129.065 44.4029 129.065 44.4029C125 42.3488 122.87 40.9049 119.065 38.4029C113.355 34.6482 103.565 28.9028 103.565 28.9028Z" stroke="black"/>
<path d="M359.065 28.9029C359.065 28.9029 352.944 22.2039 348.565 18.4029C345.317 15.5835 342.999 13.801 340.065 11.7686C340.065 11.7686 347.864 8.15202 353.065 6.37427C359.921 4.03077 363.896 2.92881 371.065 1.87427C376.295 1.10488 379.279 0.843131 384.565 0.874273C389.462 0.903122 392.224 1.13745 397.065 1.87427C402.216 2.65821 405.099 3.2984 410.065 4.87427C413.245 5.88347 420.168 7.47328 426.565 9.40285C438.335 12.9529 456.251 19.8743 456.251 19.8743C460.344 24.5559 462.065 28.9029 462.065 28.9029C462.065 28.9029 460.916 34.1266 459.065 36.9029C457.692 38.9621 454.093 42.8497 449.941 46.9029C449.941 46.9029 438.868 50.9887 431.565 52.9028C419.891 55.9628 413.12 57.3144 401.065 57.8743C389.337 58.419 381.689 58.0249 370.065 56.3743C361.191 55.1142 354.346 53.6354 348.565 51.3743C342.784 49.1131 340.032 46.7878 334.565 43.8489C337.079 42.5488 339.432 41.1883 342.565 39.4029C349.201 35.621 359.065 28.9029 359.065 28.9029Z" stroke="black"/>
</svg>
