<svg width="518" height="22" viewBox="0 0 518 22" fill="none" xmlns="http://www.w3.org/2000/svg">
<path d="M108.828 6.50378L92.828 0.503784C92.828 0.503784 74.5043 1.26539 62.828 2.50378C56.6625 3.15771 53.2288 3.72274 47.078 4.50378C40.9155 5.18571 37.4654 5.62381 31.328 6.50378C19.084 8.25932 12.2418 9.46577 0.135742 12.0038C7.04502 13.9564 10.7932 15.5681 17.828 17.0038C26.8708 18.8492 32.1075 19.1075 41.328 19.5038C52.6495 19.9904 59.1032 20.0579 70.328 18.5038C81.071 17.0164 87.2571 16.0286 97.328 12.0038C101.951 10.1563 108.828 6.50378 108.828 6.50378Z" stroke="black"/>
<path d="M431.328 1.00378C423.751 4.32935 411.828 8.00378 411.828 8.00378C411.828 8.00378 421.239 11.165 427.328 13.0038C433.542 14.8803 436.991 16.1 443.328 17.5038C455.223 20.1387 462.145 21.0291 474.328 21.0038C483.344 20.985 488.44 20.5168 497.328 19.0038C504.798 17.7322 510.035 16.3389 515.828 14.4492C515.828 14.4492 508.568 11.5707 497.328 8.00378C495.562 7.44347 481.328 5.00378 481.328 5.00378C481.328 5.00378 465.758 3.58927 455.828 2.50378C446.028 1.43249 431.328 1.00378 431.328 1.00378Z" stroke="black"/>
</svg>
