<svg width="639" height="34" viewBox="0 0 639 34" fill="none" xmlns="http://www.w3.org/2000/svg">
<path d="M36.2861 22.4264L51.2861 28.9264L56.5938 30.4264C68.6999 27.8884 75.5421 26.6819 87.7861 24.9264C93.9235 24.0464 97.3736 23.6083 103.536 22.9264C99.338 17.6543 96.7552 13.5443 90.7861 9.42639C85.0246 5.4517 81.9938 4.43807 74.2861 3.92639C64.9179 3.30448 60.4422 7.34864 51.2861 9.42639C44.5242 10.9609 40.72 12.4231 33.7861 12.4264C19.8896 12.4331 0.286133 0.426392 0.286133 0.426392L16.7861 11.9264L36.2861 22.4264Z" stroke="black"/>
<path d="M617.786 13.4264C625.719 9.36159 637.786 2.42639 637.786 2.42639C637.786 2.42639 623.667 7.60331 614.286 7.42639C605.667 7.26385 601.406 2.31231 592.786 2.42639C583.453 2.54992 577.154 4.51316 568.286 7.42639C560.774 9.89444 557.699 12.0866 550.786 15.9264C545.528 18.8473 537.786 23.4264 537.786 23.4264C537.786 23.4264 552.021 25.8661 553.786 26.4264C565.026 29.9933 572.286 32.8718 572.286 32.8718C575.157 31.9353 578.165 30.8768 581.649 29.6507L582.286 29.4264C596.631 24.3791 604.253 20.3607 617.786 13.4264Z" stroke="black"/>
</svg>
