<svg width="640" height="38" viewBox="0 0 640 38" fill="none" xmlns="http://www.w3.org/2000/svg">
<path d="M28.0635 18.3246C20.4309 14.4695 1.56348 3.32464 1.56348 3.32464C1.56348 3.32464 7.89245 2.67844 15.0635 1.71289C15.0635 1.71289 29.8374 0.0621828 39.0635 1.71289C45.1799 2.80723 48.9141 3.21112 54.2913 6.32464C60.092 9.68342 62.2861 13.1638 66.5635 18.3246C71.9582 24.8337 78.0635 36.6655 78.0635 36.6655C76.3607 36.4128 74.6846 36.1333 73.0635 35.8246C63.849 34.0703 62.8563 33.6473 54.2913 29.8246L44.8708 26.8246C37.7686 23.655 35.1128 21.8852 28.0635 18.3246Z" stroke="black"/>
<path d="M638.063 2.58767C638.063 2.58767 628.274 2.57313 622.063 1.82464C622.063 1.82464 604.337 -1.07984 593.563 1.71289C586.746 3.48009 582.368 4.35967 577.063 8.99274C572.21 13.2321 570.98 17.0777 568.063 22.8246C565.383 28.1077 562.563 36.9627 562.563 36.9627C569.645 35.6824 576.168 34.2364 583.063 31.8246C590.084 29.3692 594.386 27.1001 601.063 23.8246C607.828 20.5065 612.618 18.1344 619.063 14.2332C624.407 10.999 638.063 2.58767 638.063 2.58767Z" stroke="black"/>
</svg>
