<svg width="608" height="56" viewBox="0 0 608 56" fill="none" xmlns="http://www.w3.org/2000/svg">
<path d="M161.067 32.0468C161.067 32.0468 149.972 33.2983 145.067 33.5468C140.989 33.7533 132.683 31.9139 129.567 30.7493C124.703 28.9314 117.854 24.4755 113.567 21.5468C107.186 17.1879 99.5669 9.78727 99.5669 9.78727C99.5669 9.78727 90.0073 10.3808 82.0669 9.78727C75.4254 9.29082 71.91 10.0758 65.5669 8.04675C61.7828 6.83629 46.5669 1.04675 46.5669 1.04675C46.5669 1.04675 43.9582 3.08183 41.0669 4.54675C37.7224 6.24131 34.0265 7.6015 30.5669 9.04675C25.21 11.2846 20.4807 13.0036 16.5669 14.0468C12.5961 15.1051 6.03945 16.1308 0.0668945 16.935C0.0668945 16.935 14.8408 15.2843 24.0669 16.935C30.1833 18.0293 33.9175 18.4332 39.2947 21.5468C45.0955 24.9055 47.2896 28.3859 51.5669 33.5468C56.9616 40.0558 63.0669 51.8876 63.0669 51.8876C74.2138 53.5419 86.508 54.0468 92.0669 54.0468C98.475 54.0468 114.548 53.1723 125.567 49.5468C131.867 47.4738 139.28 45.2872 145.067 42.0468C150.189 39.1784 161.067 32.0468 161.067 32.0468ZM446.067 31.7845C446.067 31.7845 458.147 34.055 461.567 34.0468C468.227 34.0306 478.323 30.7528 482.612 29.4554C486.901 28.1579 490.948 26.4249 494.846 24.2148C502.701 19.7606 509.992 10.8224 509.992 10.8224C509.992 10.8224 522.842 9.38899 530.067 8.49333C535.381 7.83453 540.384 7.53409 545.528 6.04675C550.644 4.56749 562.067 0.546753 562.067 0.546753C562.067 0.546753 565.705 2.58615 568.067 3.8351C572.114 5.9749 574.383 7.18857 578.567 9.04675C583.538 11.2546 586.346 12.519 591.567 14.0468C597.484 15.7784 600.946 16.309 607.067 17.0468C607.067 17.0468 589.341 14.1423 578.567 16.935C571.749 18.7022 567.371 19.5818 562.067 24.2148C557.213 28.4542 555.983 32.2998 553.067 38.0468C550.151 43.7937 545.528 52.5468 545.528 52.5468C536.538 54.1157 532.693 54.5468 523.567 54.5468C514.441 54.5468 510.543 54.1884 501.567 52.5468C492.221 50.8376 483.491 48.8049 474.567 45.5468C469.964 43.8662 460.961 40.7936 457.567 39.0468C453.751 37.0828 446.067 31.7845 446.067 31.7845Z" stroke="black"/>
</svg>
