<svg width="640" height="36" viewBox="0 0 640 36" fill="none" xmlns="http://www.w3.org/2000/svg">
<path d="M23.6519 10.5554L1.65186 11.5554C1.65186 11.5554 21.2553 23.5621 35.1519 23.5554C42.0857 23.5521 45.8899 22.0899 52.6519 20.5554C61.8079 18.4777 66.2836 14.4335 75.6519 15.0554C83.3595 15.5671 86.3903 16.5807 92.1519 20.5554C98.121 24.6733 100.704 28.7833 104.902 34.0554C111.053 33.2744 114.486 32.7093 120.652 32.0554C132.328 30.817 150.652 30.0554 150.652 30.0554L133.652 20.5554L114.152 7.05542L105.152 0.55542L99.1519 2.55542L78.6519 6.05542L57.6519 7.05542L40.1519 6.55542L23.6519 10.5554Z" stroke="black"/>
<path d="M509.152 20.0554C504.652 22.8248 497.072 27.0796 489.152 30.5554C489.152 30.5554 503.852 30.9841 513.652 32.0554C523.582 33.1409 539.152 34.5554 539.152 34.5554C539.152 34.5554 546.893 29.9763 552.152 27.0554C559.065 23.2156 562.139 21.0235 569.652 18.5554C578.519 15.6422 584.819 13.6789 594.152 13.5554C602.771 13.4413 607.033 18.3929 615.652 18.5554C625.033 18.7323 639.152 13.5554 639.152 13.5554C639.152 13.5554 632.864 12.6265 629.152 12.0554C622.652 11.0554 618.143 10.4223 613.652 9.05542L602.152 5.55542C602.152 5.55542 592.41 6.36621 586.152 6.55542C576.391 6.85054 571.069 6.95957 561.152 6.05542C554.662 5.46371 550.604 4.97709 544.152 4.05542C537.152 3.05542 533.652 1.55542 533.652 1.55542C533.652 1.55542 528.598 6.27695 525.152 9.05542C519.249 13.8145 515.61 16.0813 509.152 20.0554Z" stroke="black"/>
</svg>
