<svg
  xmlns="http://www.w3.org/2000/svg"
  width="1536"
  height="1024"
  viewBox="0 0 1536 1024"
  preserveAspectRatio="xMidYMid meet"
>
  <g class="muscle-base" transform="translate(0,1024) scale(0.1,-0.1)" stroke="none">
    <path d="M3283 9480 c-68 -14 -154 -60 -204 -110 -99 -100 -139 -209 -139
-387 0 -93 -2 -111 -14 -107 -8 3 -24 -4 -37 -17 -19 -19 -21 -29 -16 -83 8
-85 31 -134 88 -186 48 -45 49 -47 74 -163 27 -126 32 -222 12 -248 -22 -29
-279 -149 -319 -149 -11 0 -52 16 -92 35 -83 41 -209 75 -275 75 -82 -1 -174
-19 -294 -58 l-117 -38 -49 28 c-68 39 -190 69 -255 62 -72 -7 -183 -41 -235
-71 -24 -14 -42 -21 -39 -17 2 5 17 36 33 69 32 64 31 47 24 305 -2 81 1 116
15 155 26 74 106 232 126 250 16 14 21 13 68 -19 62 -41 123 -56 242 -57 72
-1 98 3 132 20 62 30 145 106 153 139 6 31 -22 133 -62 224 -33 74 -48 79
-243 85 -187 6 -288 -6 -367 -42 -80 -35 -131 -90 -193 -205 -58 -107 -105
-172 -193 -268 -125 -138 -233 -303 -294 -452 -31 -73 -111 -353 -120 -417
-12 -81 51 -155 194 -227 49 -24 171 -87 272 -141 101 -53 221 -112 266 -130
148 -62 313 -78 538 -53 107 12 110 12 126 -9 10 -11 28 -54 40 -94 60 -196
86 -250 250 -531 147 -253 173 -309 201 -430 l22 -96 -22 -136 c-24 -149 -20
-223 18 -308 18 -43 18 -44 0 -69 -37 -50 -135 -358 -169 -532 -12 -61 -33
-127 -58 -180 -111 -233 -164 -499 -164 -817 0 -181 18 -273 81 -417 39 -87
40 -90 48 -258 13 -268 11 -307 -24 -420 -44 -148 -56 -236 -49 -383 5 -128
12 -163 137 -732 58 -262 53 -323 -37 -423 -30 -34 -73 -91 -94 -128 -48 -80
-68 -99 -139 -129 -134 -56 -200 -108 -200 -157 0 -32 34 -80 63 -89 12 -4 47
-18 77 -32 37 -17 86 -29 150 -35 93 -10 96 -9 165 20 39 16 91 38 117 47 35
13 56 29 82 66 42 59 67 76 125 84 52 8 101 32 121 60 28 39 29 75 5 165 -46
172 -43 432 10 696 31 155 44 191 112 302 113 188 120 304 37 642 -41 163 -42
147 25 298 51 115 73 181 117 346 19 72 61 195 94 273 102 245 149 426 171
649 12 133 29 176 29 76 0 -152 66 -454 138 -636 22 -55 54 -135 71 -177 17
-43 52 -153 77 -244 43 -161 87 -281 141 -387 l25 -51 -26 -75 c-50 -148 -77
-286 -78 -400 -1 -134 16 -192 88 -308 72 -114 117 -250 169 -512 29 -144 21
-348 -20 -491 -37 -132 -11 -186 108 -222 39 -12 79 -31 89 -42 68 -83 83 -96
126 -112 26 -9 72 -28 102 -43 85 -39 205 -34 320 15 83 36 125 63 128 84 9
60 -37 104 -184 178 -86 44 -108 63 -147 132 -15 25 -52 74 -83 110 -67 76
-93 129 -94 186 0 76 36 239 145 659 72 276 72 441 0 690 -55 187 -56 199 -40
330 8 66 15 150 15 188 0 51 7 86 26 135 15 37 30 72 34 77 20 26 61 191 72
288 23 219 -33 568 -130 802 -61 147 -82 213 -102 312 -30 154 -54 239 -112
397 -28 76 -51 150 -51 165 1 14 8 51 17 81 21 72 20 126 -5 270 l-21 120 20
88 c30 129 53 182 148 347 194 336 227 405 284 599 37 126 59 151 129 141 25
-4 71 -11 101 -15 100 -15 337 -5 411 17 98 31 217 85 342 156 62 35 166 90
231 123 90 44 134 72 177 114 85 84 87 97 33 288 -63 222 -71 245 -124 353
-58 119 -119 205 -235 334 -119 132 -164 194 -215 294 -23 46 -61 105 -86 131
-55 59 -152 108 -239 122 -98 15 -393 7 -430 -12 -37 -19 -68 -73 -101 -176
-24 -76 -24 -84 -11 -117 17 -40 100 -110 165 -139 70 -32 322 -23 322 11 0 4
-26 5 -58 3 -55 -4 -59 -3 -77 24 -13 20 -21 55 -25 109 l-6 80 -8 -59 c-7
-50 -5 -67 12 -108 l20 -48 -32 0 c-57 0 -80 37 -85 133 -3 57 -6 74 -12 57
-13 -44 -9 -120 7 -151 20 -39 13 -45 -35 -31 -59 18 -74 50 -73 147 1 45 6
94 12 109 5 15 6 25 1 21 -21 -12 -43 -108 -38 -161 3 -30 2 -54 -3 -54 -4 0
-22 16 -40 37 -29 32 -31 41 -26 77 4 23 21 75 39 116 43 101 50 104 250 108
180 4 265 -7 346 -45 76 -36 128 -92 186 -203 55 -104 88 -149 211 -288 189
-212 266 -350 335 -597 56 -201 63 -236 55 -271 -11 -42 -84 -107 -162 -144
-57 -28 -81 -33 -168 -37 -88 -5 -181 3 -266 23 -14 3 -6 -4 17 -15 46 -21
162 -41 246 -41 l52 0 -85 -43 c-47 -24 -132 -68 -190 -99 -232 -124 -407
-151 -700 -109 -89 13 -136 6 -155 -23 -7 -11 -25 -63 -40 -115 -43 -155 -100
-286 -202 -466 -152 -268 -146 -262 -113 -123 25 106 25 218 -1 333 -11 50
-26 132 -34 184 l-14 94 30 58 c17 32 57 83 88 112 61 58 103 76 231 97 36 5
93 19 127 30 75 23 203 80 203 90 0 4 -48 -10 -106 -32 -60 -22 -155 -47 -222
-58 -64 -11 -123 -22 -129 -25 -17 -6 -17 -7 11 51 13 27 27 60 31 74 4 14 27
69 52 123 25 54 43 100 40 103 -12 12 -87 -134 -143 -280 -13 -35 -43 -74
-101 -132 -72 -73 -90 -99 -152 -221 -88 -173 -120 -212 -219 -260 l-76 -38
-151 0 c-140 0 -154 2 -205 26 -30 14 -73 42 -94 62 -21 20 -41 37 -43 37 -11
0 31 -62 59 -85 45 -38 101 -60 188 -75 100 -17 142 -39 163 -87 33 -79 30
-135 -11 -173 -16 -15 -21 -14 -63 17 -93 67 -207 87 -304 55 -33 -11 -61 -19
-64 -17 -2 2 -6 42 -10 89 -9 116 -23 122 -20 8 1 -51 -1 -95 -5 -99 -3 -3
-18 0 -33 8 -43 23 -207 19 -264 -7 -104 -48 -199 -184 -199 -286 0 -48 40
-92 92 -100 30 -5 334 6 383 14 19 3 20 -4 25 -131 l5 -133 -25 -13 c-23 -12
-21 -13 33 -16 31 -2 57 -2 57 -1 0 2 -9 11 -20 20 -17 15 -19 31 -20 132 -1
63 -1 120 -1 126 1 12 175 11 291 -1 84 -8 149 7 182 44 23 26 28 41 28 84 0
56 -40 154 -66 164 -11 4 -6 14 16 39 39 45 45 74 31 140 -9 40 -22 64 -48 89
l-36 35 44 0 c157 0 294 91 370 245 l34 70 7 -75 c3 -41 16 -120 28 -175 34
-164 26 -257 -47 -530 -13 -49 -33 -130 -44 -180 l-19 -90 22 -140 c19 -122
20 -149 9 -209 -11 -69 -48 -143 -80 -163 -97 -61 -295 -154 -378 -178 -33 -9
-30 6 22 113 74 152 103 265 86 332 l-9 35 -1 -35 c-2 -59 -29 -157 -71 -254
-21 -51 -47 -119 -57 -149 -18 -56 -18 -56 -68 -67 -106 -22 -284 -29 -389
-14 -151 20 -185 32 -192 63 -12 55 -28 98 -57 156 -51 102 -77 183 -77 238 0
37 -3 48 -10 37 -16 -24 -11 -103 9 -161 10 -30 42 -101 70 -158 45 -91 59
-131 48 -131 -17 0 -164 57 -238 93 -116 55 -193 111 -213 155 -9 18 -21 64
-27 102 -10 61 -9 83 11 186 25 131 22 178 -24 344 -22 80 -61 272 -71 350
-11 81 -7 190 9 268 11 51 16 113 14 162 -2 44 -1 80 2 80 3 0 22 -33 42 -73
72 -139 172 -215 314 -238 l70 -11 -27 -27 c-34 -35 -54 -98 -45 -145 7 -38
59 -106 71 -94 4 4 0 15 -10 24 -23 24 -35 58 -35 104 0 89 40 119 196 145
113 20 177 48 222 100 43 48 41 60 -3 19 -73 -69 -210 -101 -383 -91 -174 10
-270 82 -371 278 -69 132 -126 213 -189 267 -38 32 -55 55 -68 95 -35 106 -86
215 -110 238 l-26 24 17 -40 c10 -22 29 -67 42 -100 13 -33 35 -87 48 -119 14
-33 23 -61 21 -63 -2 -3 -33 4 -68 15 -34 11 -94 23 -133 27 -38 4 -114 21
-168 39 -53 17 -91 26 -84 19 27 -28 163 -74 257 -88 158 -24 225 -49 288
-108 30 -29 67 -74 83 -102 25 -43 29 -60 29 -129 0 -43 -9 -133 -21 -200 -24
-137 -22 -271 6 -390 9 -37 14 -73 13 -78 -2 -6 -19 18 -38 53 -18 35 -60 109
-93 164 -108 181 -155 278 -208 434 -29 85 -62 164 -72 174 -18 18 -27 19
-116 11 -53 -5 -159 -8 -236 -8 -189 2 -250 19 -491 139 -105 52 -195 95 -201
95 -6 0 -16 6 -22 14 -10 12 -3 15 41 20 107 11 144 16 178 24 56 13 21 21
-45 10 -96 -16 -240 -5 -308 23 -76 31 -147 86 -172 131 -17 31 -18 43 -9 85
31 142 90 339 125 418 49 110 163 282 267 402 116 134 134 159 192 263 76 136
112 177 186 212 83 39 174 50 364 46 193 -4 196 -5 240 -120 54 -141 53 -166
-8 -215 l-39 -31 5 48 c4 47 -12 140 -29 170 -6 9 -6 -12 -2 -50 18 -154 6
-191 -74 -208 -51 -12 -60 -5 -32 24 30 32 42 95 30 161 -19 99 -30 95 -24 -9
6 -94 5 -99 -20 -131 -16 -22 -38 -37 -58 -41 -38 -7 -46 -2 -30 18 20 24 26
130 9 154 -12 18 -13 14 -10 -44 3 -38 -1 -76 -8 -94 -11 -26 -18 -30 -50 -30
-37 0 -142 46 -144 63 -1 5 23 16 52 26 86 29 80 39 -14 24 -95 -15 -104 -13
-166 45 -16 14 -28 21 -28 16 0 -22 52 -84 75 -90 31 -8 31 -8 1 -47 -34 -44
-103 -196 -122 -270 -11 -40 -16 -91 -14 -142 8 -219 6 -247 -24 -305 -43 -83
-61 -104 -127 -154 -40 -31 -55 -46 -42 -46 21 0 101 48 121 73 25 30 176 96
257 112 129 27 237 1 353 -82 37 -27 76 -55 88 -63 12 -8 37 -26 54 -39 58
-43 17 12 -45 61 -29 24 -54 46 -54 49 -1 3 29 15 67 27 199 64 306 75 431 43
141 -37 269 -114 284 -172 5 -17 -1 -19 -48 -19 -78 0 -76 -17 2 -24 119 -11
265 -36 363 -62 96 -26 229 -88 268 -125 12 -11 22 -15 22 -10 0 21 -120 103
-192 131 -42 16 -143 43 -223 59 -80 15 -147 30 -148 32 -2 2 -18 24 -37 47
-27 36 -30 46 -19 53 8 5 17 9 21 9 3 0 44 17 90 38 45 21 97 44 115 51 18 7
38 19 44 27 6 8 17 14 24 14 10 0 10 -12 0 -58 -6 -33 -15 -64 -19 -70 -4 -7
-3 -12 2 -12 33 0 68 203 51 296 -6 30 -9 65 -7 77 3 21 4 21 18 -5 26 -47
124 -155 165 -182 22 -15 58 -31 80 -37 53 -15 151 -7 196 14 65 32 162 123
196 184 18 32 33 54 33 48 0 -5 1 -84 3 -175 3 -140 7 -172 24 -211 30 -67 44
-68 23 -1 -18 60 -32 142 -23 142 3 0 23 -15 44 -34 22 -18 87 -53 144 -77 58
-24 105 -49 105 -55 0 -7 -17 -27 -39 -47 -30 -27 -54 -38 -117 -51 -225 -48
-339 -95 -423 -173 l-46 -44 40 27 c131 86 289 140 525 179 115 19 172 40 80
29 l-55 -6 35 36 c52 54 148 122 210 147 46 19 74 23 165 23 98 0 124 -4 235
-37 69 -21 131 -40 139 -43 10 -3 0 -20 -37 -57 -65 -66 -69 -92 -4 -32 57 54
185 132 249 151 25 8 85 14 132 14 72 0 102 -6 182 -34 52 -18 122 -50 155
-71 96 -62 141 -85 166 -85 18 0 14 4 -17 19 -57 25 -149 113 -184 175 -49 86
-64 160 -52 265 11 100 8 144 -16 216 -22 69 -111 258 -125 266 -28 18 -24 -7
13 -75 22 -41 54 -112 71 -158 31 -81 32 -87 33 -253 l0 -170 33 -67 c35 -73
39 -86 20 -70 -23 18 -183 70 -239 77 -97 11 -234 -26 -321 -86 -26 -19 -27
-19 -100 10 -99 39 -211 70 -284 77 -118 12 -250 -25 -356 -101 l-49 -36 -27
19 c-15 10 -70 39 -122 64 -114 54 -155 92 -163 151 -7 51 -1 146 15 245 10
68 15 77 54 114 49 46 83 119 91 194 7 61 -3 79 -47 89 l-29 6 1 97 c3 248
-106 426 -300 491 -65 22 -204 27 -289 11z"/>
    <path d="M2760 5076 c0 -3 11 -40 24 -83 22 -70 46 -182 86 -410 14 -78 31
-101 23 -30 -19 165 -47 311 -78 406 -20 61 -40 113 -45 116 -6 4 -10 4 -10 1z"/>
    <path d="M2485 4844 c-68 -159 -101 -329 -91 -473 6 -99 18 -156 56 -276 33
-102 36 -64 5 62 -39 156 -45 322 -16 463 12 58 33 138 46 179 27 80 27 108 0
45z"/>
    <path d="M2776 4503 c-10 -27 -40 -102 -68 -168 -28 -66 -68 -160 -89 -210
-128 -306 -75 -616 121 -704 54 -25 79 -26 128 -5 80 33 127 99 163 231 18 66
21 94 16 183 -8 135 -41 307 -90 465 -26 87 -35 61 -12 -38 85 -364 95 -525
42 -654 -47 -115 -99 -163 -177 -163 -85 0 -139 43 -189 150 -40 86 -54 188
-41 295 12 97 39 180 108 330 54 119 72 167 97 264 20 76 14 89 -9 24z"/>
    <path d="M2725 3240 c-5 -8 -22 -42 -38 -75 -16 -33 -38 -70 -49 -82 -24 -26
-13 -31 18 -9 23 16 88 150 82 168 -3 9 -7 8 -13 -2z"/>
    <path d="M2423 2815 c3 -44 19 -174 36 -290 16 -115 35 -254 42 -308 6 -54 14
-95 17 -93 7 8 3 132 -8 223 -16 131 -81 537 -87 543 -3 3 -3 -31 0 -75z"/>
    <path d="M2681 1734 c-2 -48 17 -135 35 -162 22 -34 25 -23 8 28 -9 25 -22 72
-29 105 -9 43 -13 51 -14 29z"/>
    <path d="M4001 4983 c-28 -92 -57 -237 -71 -355 -20 -160 -5 -134 29 52 18 96
42 217 52 269 11 51 18 96 15 98 -3 3 -14 -26 -25 -64z"/>
    <path d="M4324 4848 c31 -111 68 -281 77 -355 15 -112 5 -191 -46 -368 -55
-189 -39 -189 25 0 41 122 57 243 48 357 -8 98 -47 254 -85 333 -13 28 -21 42
-19 33z"/>
    <path d="M4005 4564 c11 -80 59 -210 133 -364 141 -294 164 -459 86 -614 -53
-105 -108 -146 -194 -146 -132 0 -209 121 -217 340 -4 103 -1 132 31 280 33
156 56 322 43 310 -4 -4 -27 -103 -53 -220 -70 -323 -70 -470 0 -608 51 -101
154 -157 243 -133 95 26 182 137 213 270 31 131 -14 309 -140 561 -67 134
-130 299 -130 340 0 10 -5 22 -11 25 -7 5 -8 -8 -4 -41z"/>
    <path d="M4388 3458 c5 -102 -10 -165 -43 -180 -35 -16 -108 -1 -152 31 -62
45 -67 46 -54 23 21 -40 102 -85 174 -96 26 -4 37 -2 37 7 0 6 5 4 11 -6 6
-11 8 -37 5 -60 -4 -23 -6 -45 -6 -49 0 -16 -34 -94 -48 -110 -14 -16 -13 -18
2 -18 29 0 70 103 72 185 2 39 10 99 19 135 19 71 16 151 -7 195 -13 25 -14
20 -10 -57z"/>
    <path d="M4082 3233 c13 -48 71 -159 104 -198 l25 -30 -13 30 c-22 51 -118
235 -122 235 -3 0 0 -17 6 -37z"/>
    <path d="M4411 2878 c-28 -86 -68 -292 -80 -413 -18 -180 -24 -355 -12 -355 6
0 11 4 11 9 0 6 7 92 15 193 17 198 30 292 70 492 14 71 24 131 21 133 -2 2
-13 -24 -25 -59z"/>
    <path d="M4106 2703 c32 -135 11 -262 -59 -353 -66 -88 -66 -87 -29 -61 43 30
89 94 104 143 6 21 14 38 19 38 12 0 16 -83 6 -160 -11 -95 -4 -331 12 -356
10 -15 11 0 6 72 -4 50 -1 154 5 230 7 99 7 154 0 189 -6 28 -15 85 -20 128
-10 88 -36 187 -49 187 -5 0 -3 -26 5 -57z"/>
    <path d="M4127 1694 c-2 -38 -7 -78 -10 -89 -12 -53 -17 -99 -8 -85 14 22 41
145 41 183 0 67 -18 59 -23 -9z"/>
    <path d="M11798 9471 c-206 -68 -322 -264 -303 -508 6 -77 5 -83 -12 -83 -33
0 -63 -37 -63 -78 0 -47 24 -136 44 -167 9 -13 36 -38 60 -54 40 -28 47 -38
71 -116 37 -115 33 -204 -10 -267 -31 -44 -57 -60 -233 -141 l-83 -38 -29 21
c-107 76 -263 110 -423 90 -107 -12 -170 -30 -249 -71 -31 -16 -58 -25 -60
-19 -9 27 -234 100 -309 100 -53 0 -186 -36 -254 -69 -33 -17 -61 -28 -63 -27
-1 2 8 16 21 32 13 16 35 49 48 74 22 42 23 54 21 187 -3 168 4 196 103 393
l64 128 40 -19 c22 -10 45 -19 50 -19 6 0 67 -18 136 -40 69 -22 145 -41 170
-42 52 -1 95 23 95 54 0 12 18 37 41 59 40 37 41 41 36 82 -9 65 -65 212 -91
240 -35 38 -85 47 -251 47 -187 0 -259 -11 -340 -48 -84 -40 -129 -88 -194
-206 -52 -95 -119 -185 -263 -350 -154 -178 -235 -337 -293 -578 -13 -53 -33
-123 -45 -156 -19 -52 -20 -65 -10 -96 25 -78 115 -148 262 -206 46 -19 157
-74 247 -123 279 -152 365 -179 566 -181 72 -1 174 3 229 8 80 7 100 6 107 -5
5 -8 30 -79 55 -159 49 -153 124 -309 216 -451 84 -129 105 -168 148 -274 55
-136 78 -289 61 -421 -17 -145 -14 -205 16 -294 l27 -80 -22 -52 c-42 -102
-83 -235 -128 -413 -25 -99 -74 -258 -109 -355 -71 -197 -97 -280 -119 -392
-57 -279 -43 -517 45 -743 47 -124 53 -150 75 -350 l18 -160 -42 -135 c-59
-194 -72 -252 -78 -370 -5 -93 -2 -122 26 -255 18 -82 38 -179 46 -215 7 -36
28 -128 47 -205 19 -77 43 -189 53 -249 15 -95 16 -119 5 -185 -18 -105 -39
-140 -128 -216 -59 -49 -98 -73 -161 -97 -113 -43 -130 -83 -57 -128 38 -23
211 -70 260 -70 18 0 81 -14 141 -32 165 -48 286 -40 346 24 37 40 38 109 2
212 l-25 75 26 45 c34 59 34 114 0 221 -46 142 -44 191 14 420 49 191 67 238
140 367 78 138 77 318 -4 573 -39 126 -34 161 50 355 20 47 56 162 80 256 32
127 60 209 108 315 36 79 72 167 82 194 43 127 95 406 95 509 0 29 4 45 10 41
6 -3 10 -23 10 -43 0 -57 47 -326 75 -427 32 -115 54 -174 111 -286 24 -50 58
-132 73 -182 16 -51 44 -139 61 -197 18 -58 49 -139 70 -180 57 -115 83 -193
78 -237 -3 -21 -22 -94 -44 -163 -37 -121 -38 -130 -39 -275 l0 -150 66 -140
c75 -157 73 -151 129 -370 38 -145 41 -167 35 -235 -4 -41 -17 -113 -31 -160
-13 -46 -24 -99 -24 -116 0 -31 27 -101 52 -136 10 -14 8 -29 -10 -80 -48
-138 -35 -204 48 -245 64 -33 152 -31 271 6 52 15 130 33 174 40 95 15 200 46
238 73 49 35 26 103 -43 123 -93 27 -262 168 -295 247 -20 48 -20 175 0 269 9
40 52 217 96 393 94 371 102 439 74 606 -9 58 -40 172 -68 254 l-50 150 17
170 c9 94 18 189 21 211 2 22 18 74 35 115 65 158 75 214 75 440 0 184 -3 219
-28 345 -17 85 -59 232 -107 375 -43 129 -97 307 -120 395 -43 166 -74 267
-116 371 l-25 62 20 49 c31 78 35 148 16 264 -20 127 -20 255 0 334 22 83 120
284 192 391 117 174 211 373 253 531 11 42 27 87 36 101 14 22 21 23 57 17
238 -39 391 -32 543 25 58 21 193 87 264 129 25 14 119 60 210 101 91 42 184
86 207 98 58 30 107 84 122 133 11 37 9 53 -19 163 -99 377 -166 511 -367 729
-100 108 -177 209 -229 298 -60 103 -106 153 -176 187 -90 44 -133 52 -313 59
-246 8 -269 -3 -326 -159 -45 -124 -45 -180 -1 -219 18 -16 31 -32 30 -36 -1
-5 1 -18 5 -30 14 -41 111 -42 204 -2 25 10 76 26 114 34 38 8 92 26 119 41
28 15 51 25 53 23 16 -28 93 -193 121 -260 42 -102 56 -183 46 -264 -12 -96
11 -181 72 -268 l20 -27 -54 21 c-91 37 -163 57 -223 63 -80 7 -207 -23 -311
-76 l-43 -21 -58 26 c-123 54 -200 71 -323 71 -126 -1 -192 -17 -299 -75 -30
-16 -62 -29 -72 -29 -23 0 -214 76 -264 105 -22 13 -48 31 -57 42 -40 44 -39
205 2 329 17 49 27 64 49 74 59 24 92 78 110 179 11 67 1 99 -37 113 l-27 11
0 121 c-1 100 -5 132 -24 185 -68 195 -207 289 -436 297 -89 3 -121 1 -167
-15z"/>
    <path d="M13906 8820 c5 -8 9 -17 9 -20 0 -10 158 -210 162 -206 7 7 -13 40
-69 113 -50 66 -120 143 -102 113z"/>
    <path d="M9999 8807 c-24 -18 -169 -221 -162 -227 8 -8 81 78 128 150 64 101
64 100 34 77z"/>
    <path d="M11804 8633 c-18 -2 -39 -12 -48 -22 -16 -17 -15 -18 33 -5 45 11 56
10 114 -8 l65 -21 68 22 c69 22 118 20 178 -4 29 -13 10 12 -23 29 -38 20
-150 15 -184 -7 -33 -22 -45 -21 -98 3 -24 11 -51 19 -59 18 -8 -1 -29 -3 -46
-5z"/>
    <path d="M9566 8461 c-109 -179 -186 -421 -186 -587 0 -105 63 -170 189 -194
59 -11 160 -11 206 -1 20 5 -6 9 -80 13 -180 10 -259 48 -286 139 -10 33 -9
57 5 137 35 193 91 357 171 500 38 68 22 62 -19 -7z"/>
    <path d="M14348 8425 c57 -115 102 -237 128 -347 20 -86 37 -105 27 -30 -16
129 -113 370 -178 447 -19 23 -14 5 23 -70z"/>
    <path d="M11872 8269 c-12 -61 -38 -151 -57 -200 -19 -49 -35 -96 -35 -105 0
-9 26 -65 58 -123 31 -58 60 -114 64 -123 4 -10 12 -18 17 -18 13 0 -12 72
-41 120 -46 76 -68 122 -68 142 0 12 12 50 26 85 32 81 60 189 69 271 11 101
-8 71 -33 -49z"/>
    <path d="M11970 8345 c1 -26 32 -132 69 -239 22 -65 41 -133 41 -150 0 -18
-15 -68 -34 -112 -33 -75 -63 -195 -34 -134 100 212 112 258 83 325 -9 22 -37
99 -62 170 -41 116 -64 167 -63 140z"/>
    <path d="M10717 7996 c-64 -19 -73 -30 -17 -21 116 20 227 0 337 -60 69 -38
76 -25 9 18 -110 69 -228 92 -329 63z"/>
    <path d="M13000 8004 c-54 -9 -106 -27 -159 -57 -72 -41 -50 -46 38 -8 70 30
122 42 251 59 l65 9 -85 0 c-47 0 -96 -1 -110 -3z"/>
    <path d="M14503 7803 c-35 -68 -118 -107 -256 -119 -40 -3 -74 -8 -76 -10 -2
-2 34 -4 81 -4 104 0 173 19 221 62 36 32 77 108 58 108 -5 0 -18 -17 -28 -37z"/>
    <path d="M11113 7753 c13 -74 90 -163 196 -226 148 -88 171 -128 171 -294 0
-168 31 -249 180 -462 48 -69 95 -140 104 -158 21 -43 37 -51 26 -15 -12 43
-24 63 -127 219 -123 184 -143 241 -153 423 -4 74 -11 144 -15 155 -18 46 -78
104 -156 152 -105 64 -137 93 -183 166 -38 60 -48 69 -43 40z"/>
    <path d="M12725 7683 c-42 -59 -66 -80 -200 -166 -113 -73 -128 -106 -136
-287 -8 -180 -24 -225 -143 -408 -81 -124 -129 -209 -124 -222 4 -13 222 314
247 372 42 98 52 151 51 261 0 158 29 211 155 282 84 47 136 95 169 154 40 74
28 83 -19 14z"/>
    <path d="M10345 7688 c28 -23 72 -67 100 -98 102 -113 192 -196 241 -222 135
-73 344 -76 474 -8 45 24 39 24 -62 0 -145 -35 -273 -24 -388 32 -48 23 -88
55 -152 122 -49 49 -88 93 -88 97 0 9 -114 91 -150 108 -14 7 -3 -7 25 -31z"/>
    <path d="M13523 7662 c-40 -31 -109 -91 -155 -133 -104 -96 -164 -134 -253
-161 -121 -37 -232 -29 -380 27 -20 8 -20 8 0 -14 36 -37 130 -64 230 -65 162
-2 289 56 431 198 39 39 102 100 138 135 37 35 65 65 64 67 -2 1 -36 -23 -75
-54z"/>
    <path d="M11957 7456 c-10 -161 -6 -1743 5 -1676 12 73 21 1580 11 1695 l-9
90 -7 -109z"/>
    <path d="M10935 7246 c11 -49 82 -162 129 -203 53 -46 106 -78 106 -64 0 6 -4
11 -8 11 -20 0 -122 111 -156 170 -21 36 -41 67 -45 70 -4 3 -13 14 -20 25
-11 18 -12 17 -6 -9z"/>
    <path d="M12922 7195 c-39 -75 -102 -149 -144 -171 -36 -18 -32 -29 6 -15 51
20 118 93 153 168 35 76 37 83 26 83 -5 0 -23 -29 -41 -65z"/>
    <path d="M12080 6315 c0 -12 27 -64 53 -103 52 -79 216 -163 311 -161 38 0 36
2 -34 23 -144 43 -241 110 -295 202 -23 39 -35 53 -35 39z"/>
    <path d="M11759 6226 c-58 -63 -130 -105 -266 -157 -34 -13 -60 -25 -58 -27 2
-2 38 6 80 17 138 38 236 100 281 177 15 25 25 46 23 48 -2 2 -29 -24 -60 -58z"/>
    <path d="M11385 5473 c-86 -46 -168 -130 -211 -215 -38 -75 -28 -89 13 -19 48
80 130 171 188 208 25 15 45 31 45 36 0 9 1 9 -35 -10z"/>
    <path d="M12495 5468 c63 -47 156 -143 196 -204 23 -35 43 -64 45 -64 4 0 -12
43 -27 73 -43 84 -184 218 -228 217 -11 -1 -7 -8 14 -22z"/>
    <path d="M11040 5084 c0 -7 13 -50 29 -95 16 -46 37 -113 46 -149 24 -92 28
-99 33 -71 7 43 -37 203 -73 266 -19 33 -35 55 -35 49z"/>
    <path d="M12824 5048 c-38 -60 -72 -160 -82 -246 -11 -91 -1 -81 28 28 12 47
37 123 56 170 18 46 31 86 29 88 -2 2 -16 -16 -31 -40z"/>
    <path d="M12730 4484 c0 -6 18 -53 41 -105 92 -210 146 -393 174 -580 8 -59
15 -112 15 -118 0 -7 5 -9 11 -6 25 16 -20 281 -80 466 -45 139 -160 384 -161
343z"/>
    <path d="M11159 4458 c-89 -163 -135 -291 -174 -480 -24 -112 -45 -330 -32
-318 3 3 15 64 27 135 44 263 84 411 159 584 23 52 39 96 37 99 -3 2 -10 -7
-17 -20z"/>
    <path d="M11421 4175 c-58 -268 -112 -400 -256 -615 -132 -199 -141 -240 -82
-375 19 -44 41 -109 48 -145 14 -73 29 -100 29 -54 0 50 -36 178 -69 243 -17
33 -31 68 -31 78 0 31 46 117 118 225 137 204 171 274 221 450 39 134 53 214
49 263 -2 34 -7 22 -27 -70z"/>
    <path d="M12475 4208 c22 -201 92 -392 215 -593 143 -233 160 -267 160 -311 0
-24 -13 -72 -29 -110 -34 -80 -57 -159 -66 -226 -11 -85 9 -51 37 60 14 59 38
134 53 166 50 110 38 153 -114 405 -50 83 -108 193 -131 245 -41 98 -94 283
-106 375 -10 75 -27 65 -19 -11z"/>
    <path d="M12200 4113 c0 -35 30 -181 51 -250 12 -36 56 -143 99 -237 79 -174
120 -305 120 -383 0 -24 5 -43 10 -43 18 0 11 105 -14 203 -15 58 -53 156 -94
244 -83 177 -116 265 -143 387 -20 92 -29 115 -29 79z"/>
    <path d="M12560 3184 c0 -4 15 -57 34 -118 19 -61 39 -131 45 -156 10 -42 10
-40 6 25 -5 69 -32 171 -61 228 -14 25 -24 35 -24 21z"/>
    <path d="M12655 2440 c10 -40 58 -104 90 -119 70 -35 176 -23 214 23 17 20 17
20 -47 -4 -60 -23 -73 -24 -124 -10 -36 10 -98 66 -126 113 -13 22 -13 22 -7
-3z"/>
    <path d="M10950 2382 c0 -17 69 -71 98 -78 15 -3 33 -8 41 -10 21 -7 86 14
115 37 39 30 32 42 -11 16 -26 -15 -54 -21 -94 -22 -49 0 -63 5 -103 33 -25
18 -46 29 -46 24z"/>
    <path d="M13022 2343 c-63 -90 -194 -429 -246 -638 -36 -147 -47 -399 -20
-448 8 -13 9 5 6 66 -5 105 22 322 54 435 36 123 151 436 186 505 50 100 59
135 20 80z"/>
    <path d="M11320 2305 c24 -25 49 -57 56 -72 l12 -28 1 29 c1 22 -10 39 -45 73
-61 57 -81 56 -24 -2z"/>
    <path d="M12604 2306 c-19 -19 -34 -44 -34 -57 0 -22 1 -22 16 6 8 17 27 42
42 58 37 39 16 33 -24 -7z"/>
    <path d="M5323 8940 c-54 -49 -128 -61 -203 -35 -24 8 -46 13 -48 10 -12 -12
26 -34 79 -48 51 -13 60 -13 103 4 57 21 73 34 92 71 18 35 17 34 -23 -2z"/>
    <path d="M1388 8748 c-78 -118 -105 -165 -86 -150 8 7 28 31 44 55 16 23 39
56 53 72 25 31 55 94 48 101 -2 2 -29 -33 -59 -78z"/>
    <path d="M5421 8768 c33 -68 123 -208 132 -208 5 0 -3 21 -18 48 -37 63 -127
202 -131 202 -3 0 5 -19 17 -42z"/>
    <path d="M1012 8428 c-23 -30 -82 -159 -103 -228 -24 -81 -33 -259 -14 -279 7
-7 10 24 11 92 2 115 29 225 89 354 33 72 37 85 17 61z"/>
    <path d="M5851 8350 c60 -154 98 -313 100 -429 l2 -56 9 68 c8 54 6 86 -10
165 -21 105 -71 242 -103 282 -18 24 -18 22 2 -30z"/>
    <path d="M3598 8063 c-14 -32 -36 -89 -48 -128 -13 -38 -29 -83 -37 -98 -21
-41 -9 -44 15 -5 22 36 106 277 99 284 -2 2 -15 -22 -29 -53z"/>
    <path d="M3210 8082 c0 -55 82 -270 110 -287 16 -10 12 8 -19 76 -15 35 -41
101 -55 147 -28 83 -36 97 -36 64z"/>
    <path d="M1461 7808 c116 -109 280 -169 419 -155 76 8 182 36 199 52 12 12 4
11 -45 0 -32 -8 -99 -18 -149 -21 -146 -10 -241 20 -405 128 l-75 49 56 -53z"/>
    <path d="M5395 7819 c-42 -28 -161 -88 -210 -106 -64 -23 -112 -28 -235 -26
-109 1 -144 8 -255 48 -16 5 -15 3 5 -14 53 -44 145 -65 285 -65 119 -1 136 2
200 27 76 31 200 104 229 136 24 26 19 26 -19 0z"/>
    <path d="M3409 7385 c-2 -115 -2 -230 1 -255 l6 -45 6 35 c8 46 6 418 -3 450
-3 14 -8 -69 -10 -185z"/>
    <path d="M4260 6844 c-27 -12 -55 -14 -120 -10 -82 6 -84 5 -51 -9 61 -28 211
-10 211 24 0 13 3 14 -40 -5z"/>
    <path d="M2605 6825 c53 -27 101 -28 161 -4 16 7 34 11 39 10 6 -2 6 2 -1 8
-7 8 -19 8 -43 0 -30 -11 -55 -10 -171 6 -34 5 -33 4 15 -20z"/>
    <path d="M2687 6694 c-3 -3 -41 -6 -84 -6 -52 1 -71 -2 -58 -8 11 -5 46 -9 77
-9 l57 -1 34 -52 c38 -60 100 -118 125 -118 11 0 4 8 -18 24 -42 28 -74 71
-100 131 -20 46 -22 49 -33 39z"/>
    <path d="M4206 6691 c-73 -6 -80 -8 -105 -38 -34 -43 -99 -162 -78 -144 9 7
37 44 62 82 25 38 49 70 53 70 4 1 32 3 62 4 70 2 122 14 114 26 -3 5 -11 8
-17 7 -7 -1 -47 -4 -91 -7z"/>
    <path d="M2636 6560 c8 -65 59 -164 102 -200 54 -45 58 -37 10 23 -24 29 -55
79 -69 112 -15 33 -32 71 -38 85 -9 21 -10 19 -5 -20z"/>
    <path d="M4176 6510 c-21 -46 -58 -103 -88 -135 -28 -31 -48 -58 -46 -61 13
-12 116 98 142 151 25 52 45 125 34 125 -2 0 -21 -36 -42 -80z"/>
    <path d="M2916 6218 c-21 -29 -21 -129 -1 -168 19 -36 69 -74 115 -88 19 -6
73 -13 119 -16 116 -8 94 10 -44 34 -117 21 -146 37 -171 97 -17 39 -18 107
-3 135 15 28 4 34 -15 6z"/>
    <path d="M3903 6152 c0 -117 -54 -164 -198 -172 -50 -3 -90 -9 -90 -15 0 -6
35 -11 80 -13 71 -2 86 0 135 25 68 35 95 76 94 148 -1 29 -6 60 -11 69 -7 13
-10 2 -10 -42z"/>
    <path d="M3375 5914 l-25 -27 22 -24 c25 -26 79 -31 97 -9 7 8 11 30 9 48 -3
30 -6 33 -40 36 -31 3 -43 -2 -63 -24z m80 -14 c9 -27 1 -37 -35 -42 -37 -6
-60 23 -39 48 18 22 66 18 74 -6z"/>
    <path d="M2781 5630 c39 -44 74 -80 76 -80 13 0 -35 67 -78 109 -80 79 -79 60
2 -29z"/>
    <path d="M4068 5663 c-34 -35 -58 -79 -58 -105 0 -5 15 10 33 35 17 25 42 59
55 76 32 43 14 39 -30 -6z"/>
  </g>

  <g class="muscle-regions">
    <g class="muscle-region" data-group="Shoulder">
      <path d="M200 240 Q200 210 235 210 L315 210 Q350 210 350 240 L350 285 Q350 315 315 315 L235 315 Q200 315 200 285 Z" />
      <path d="M415 240 Q415 210 450 210 L530 210 Q565 210 565 240 L565 285 Q565 315 530 315 L450 315 Q415 315 415 285 Z" />
      <path d="M970 240 Q970 210 1005 210 L1085 210 Q1120 210 1120 240 L1120 285 Q1120 315 1085 315 L1005 315 Q970 315 970 285 Z" />
      <path d="M1185 240 Q1185 210 1220 210 L1300 210 Q1335 210 1335 240 L1335 285 Q1335 315 1300 315 L1220 315 Q1185 315 1185 285 Z" />
    </g>

    <g class="muscle-region" data-group="Chest">
      <path d="M265 280 Q265 250 300 250 L485 250 Q520 250 520 280 L520 370 Q520 400 485 400 L300 400 Q265 400 265 370 Z" />
    </g>

    <g class="muscle-region" data-group="Back">
      <path d="M1030 290 Q1030 260 1070 260 L1230 260 Q1270 260 1270 290 L1270 500 Q1270 530 1230 530 L1070 530 Q1030 530 1030 500 Z" />
    </g>

    <g class="muscle-region" data-group="Core">
      <path d="M295 400 Q295 370 330 370 L475 370 Q510 370 510 400 L510 560 Q510 590 475 590 L330 590 Q295 590 295 560 Z" />
    </g>

    <g class="muscle-region" data-group="Biceps">
      <path d="M150 310 Q150 280 180 280 L230 280 Q260 280 260 310 L260 460 Q260 490 230 490 L180 490 Q150 490 150 460 Z" />
      <path d="M545 310 Q545 280 575 280 L625 280 Q655 280 655 310 L655 460 Q655 490 625 490 L575 490 Q545 490 545 460 Z" />
    </g>

    <g class="muscle-region" data-group="Triceps">
      <path d="M915 320 Q915 290 945 290 L995 290 Q1025 290 1025 320 L1025 470 Q1025 500 995 500 L945 500 Q915 500 915 470 Z" />
      <path d="M1265 320 Q1265 290 1295 290 L1345 290 Q1375 290 1375 320 L1375 470 Q1375 500 1345 500 L1295 500 Q1265 500 1265 470 Z" />
    </g>

    <g class="muscle-region" data-group="Forearms">
      <path d="M125 470 Q125 440 155 440 L215 440 Q245 440 245 470 L245 620 Q245 650 215 650 L155 650 Q125 650 125 620 Z" />
      <path d="M565 470 Q565 440 595 440 L655 440 Q685 440 685 470 L685 620 Q685 650 655 650 L595 650 Q565 650 565 620 Z" />
      <path d="M890 480 Q890 450 920 450 L980 450 Q1010 450 1010 480 L1010 630 Q1010 660 980 660 L920 660 Q890 660 890 630 Z" />
      <path d="M1310 480 Q1310 450 1340 450 L1400 450 Q1430 450 1430 480 L1430 630 Q1430 660 1400 660 L1340 660 Q1310 660 1310 630 Z" />
    </g>

    <g class="muscle-region" data-group="Legs">
      <path d="M320 600 Q320 560 350 560 L420 560 Q450 560 450 600 L450 940 Q450 980 420 980 L350 980 Q320 980 320 940 Z" />
      <path d="M435 600 Q435 560 465 560 L535 560 Q565 560 565 600 L565 940 Q565 980 535 980 L465 980 Q435 980 435 940 Z" />
      <path d="M1080 600 Q1080 560 1110 560 L1180 560 Q1210 560 1210 600 L1210 940 Q1210 980 1180 980 L1110 980 Q1080 980 1080 940 Z" />
      <path d="M1195 600 Q1195 560 1225 560 L1295 560 Q1325 560 1325 600 L1325 940 Q1325 980 1295 980 L1225 980 Q1195 980 1195 940 Z" />
    </g>
  </g>
</svg>
